  0
SECTION
  2
HEADER
  9
$ACADVER
  1
AC1009
  9
$FILLMODE
 70
0
  9
$EXTMIN
 10
-55.0000
 20
-33.0000
 30
0.0000
  9
$EXTMAX
 10
54.3087
 20
32.4750
 30
0.0000
  0
ENDSEC
  0
SECTION
  2
TABLES
  0
TABLE
  2
LTYPE
 70
1
  0
LTYPE
  2
CONTINUOUS
 70
64
  3
Solid line
 72
65
 73
0
 40
0
  0
ENDTAB
  0
TABLE
  2
LAYER
 70
255
  0
LAYER
  2
20
 70
64
 62
31
  6
CONTINUOUS
  0
LAYER
  2
21
 70
64
 62
253
  6
CONTINUOUS
  0
ENDTAB
  0
ENDSEC
  0
SECTION
  2
BLOCKS
  0
BLOCK
  8
0
  2
RECT
 70
64
 10
0.0000
 20
0.0000
 30
0.0000
  3
RECT
  0
SOLID
  8
0
 10
-0.5000
 20
-0.5000
 30
0.0000
 11
0.5000
 21
-0.5000
 31
0.0000
 12
-0.5000
 22
0.5000
 32
0.0000
 13
0.5000
 23
0.5000
 33
0.0000
  0
ENDBLK
  8
0
  0
BLOCK
  8
0
  2
PIE
 70
64
 10
0.0000
 20
0.0000
 30
0.0000
  3
PIE
  0
CIRCLE
  8
0
 10
0.0000
 20
0.0000
 30
0.0000
 40
0.5000
  0
ENDBLK
  8
0
  0
BLOCK
  8
0
  2
OCTAGONP
 70
64
 10
0.0000
 20
0.0000
 30
0.0000
  3
OCTAGONP
  0
POLYLINE
  8
0
 66
1
 10
0.0000
 20
0.0000
 30
0.0000
 40
0.0000
 41
0.0000
 70
1
  0
VERTEX
  8
0
 10
-0.5000
 20
-0.2071
 30
0.0000
  0
VERTEX
  8
0
 10
-0.5000
 20
0.2071
 30
0.0000
  0
VERTEX
  8
0
 10
-0.2071
 20
0.5000
 30
0.0000
  0
VERTEX
  8
0
 10
0.2071
 20
0.5000
 30
0.0000
  0
VERTEX
  8
0
 10
0.5000
 20
0.2071
 30
0.0000
  0
VERTEX
  8
0
 10
0.5000
 20
-0.2071
 30
0.0000
  0
VERTEX
  8
0
 10
0.2071
 20
-0.5000
 30
0.0000
  0
VERTEX
  8
0
 10
-0.2071
 20
-0.5000
 30
0.0000
  0
SEQEND
  8
0
  0
ENDBLK
  8
0
  0
BLOCK
  8
0
  2
SQUAREP
 70
64
 10
0.0000
 20
0.0000
 30
0.0000
  3
SQUAREP
  0
SOLID
  8
0
 10
-0.5000
 20
-0.5000
 30
0.0000
 11
0.5000
 21
-0.5000
 31
0.0000
 12
-0.5000
 22
0.5000
 32
0.0000
 13
0.5000
 23
0.5000
 33
0.0000
  0
ENDBLK
  8
0
  0
BLOCK
  8
0
  2
ROUNDP
 70
64
 10
0.0000
 20
0.0000
 30
0.0000
  3
ROUNDP
  0
CIRCLE
  8
0
 10
0.0000
 20
0.0000
 30
0.0000
 40
0.5000
  0
ENDBLK
  8
0
  0
BLOCK
  8
0
  2
ANNULUSP
 70
64
 10
0.0000
 20
0.0000
 30
0.0000
  3
ANNULUSP
  0
CIRCLE
  8
0
 10
0.0000
 20
0.0000
 30
0.0000
 40
0.5000
  0
ENDBLK
  8
0
  0
BLOCK
  8
0
  2
THERMALP
 70
64
 10
0.0000
 20
0.0000
 30
0.0000
  3
THERMALP
  0
POLYLINE
  8
0
 66
1
 10
0.0000
 20
0.0000
 30
0.0000
 40
0.0000
 41
0.0000
 70
1
  0
VERTEX
  8
0
 10
-0.2379
 20
0.4000
 30
0.0000
  0
VERTEX
  8
0
 10
0.2379
 20
0.4000
 30
0.0000
 42
1.0000
  0
VERTEX
  8
0
 10
0.2379
 20
0.5000
 30
0.0000
  0
VERTEX
  8
0
 10
-0.2379
 20
0.5000
 30
0.0000
 42
1.0000
  0
SEQEND
  8
0
  0
POLYLINE
  8
0
 66
1
 10
0.0000
 20
0.0000
 30
0.0000
 40
0.0000
 41
0.0000
 70
1
  0
VERTEX
  8
0
 10
0.4000
 20
0.2379
 30
0.0000
  0
VERTEX
  8
0
 10
0.4000
 20
-0.2379
 30
0.0000
 42
1.0000
  0
VERTEX
  8
0
 10
0.5000
 20
-0.2379
 30
0.0000
  0
VERTEX
  8
0
 10
0.5000
 20
0.2379
 30
0.0000
 42
1.0000
  0
SEQEND
  8
0
  0
POLYLINE
  8
0
 66
1
 10
0.0000
 20
0.0000
 30
0.0000
 40
0.0000
 41
0.0000
 70
1
  0
VERTEX
  8
0
 10
0.2379
 20
-0.4000
 30
0.0000
  0
VERTEX
  8
0
 10
-0.2379
 20
-0.4000
 30
0.0000
 42
1.0000
  0
VERTEX
  8
0
 10
-0.2379
 20
-0.5000
 30
0.0000
  0
VERTEX
  8
0
 10
0.2379
 20
-0.5000
 30
0.0000
 42
1.0000
  0
SEQEND
  8
0
  0
POLYLINE
  8
0
 66
1
 10
0.0000
 20
0.0000
 30
0.0000
 40
0.0000
 41
0.0000
 70
1
  0
VERTEX
  8
0
 10
-0.4000
 20
-0.2379
 30
0.0000
  0
VERTEX
  8
0
 10
-0.4000
 20
0.2379
 30
0.0000
 42
1.0000
  0
VERTEX
  8
0
 10
-0.5000
 20
0.2379
 30
0.0000
  0
VERTEX
  8
0
 10
-0.5000
 20
-0.2379
 30
0.0000
 42
1.0000
  0
SEQEND
  8
0
  0
ENDBLK
  8
0
  0
BLOCK
  8
0
  2
OCTAGONV
 70
64
 10
0.0000
 20
0.0000
 30
0.0000
  3
OCTAGONV
  0
POLYLINE
  8
0
 66
1
 10
0.0000
 20
0.0000
 30
0.0000
 40
0.0000
 41
0.0000
 70
1
  0
VERTEX
  8
0
 10
-0.5000
 20
-0.2071
 30
0.0000
  0
VERTEX
  8
0
 10
-0.5000
 20
0.2071
 30
0.0000
  0
VERTEX
  8
0
 10
-0.2071
 20
0.5000
 30
0.0000
  0
VERTEX
  8
0
 10
0.2071
 20
0.5000
 30
0.0000
  0
VERTEX
  8
0
 10
0.5000
 20
0.2071
 30
0.0000
  0
VERTEX
  8
0
 10
0.5000
 20
-0.2071
 30
0.0000
  0
VERTEX
  8
0
 10
0.2071
 20
-0.5000
 30
0.0000
  0
VERTEX
  8
0
 10
-0.2071
 20
-0.5000
 30
0.0000
  0
SEQEND
  8
0
  0
ENDBLK
  8
0
  0
BLOCK
  8
0
  2
SQUAREV
 70
64
 10
0.0000
 20
0.0000
 30
0.0000
  3
SQUAREV
  0
SOLID
  8
0
 10
-0.5000
 20
-0.5000
 30
0.0000
 11
0.5000
 21
-0.5000
 31
0.0000
 12
-0.5000
 22
0.5000
 32
0.0000
 13
0.5000
 23
0.5000
 33
0.0000
  0
ENDBLK
  8
0
  0
BLOCK
  8
0
  2
ROUNDV
 70
64
 10
0.0000
 20
0.0000
 30
0.0000
  3
ROUNDV
  0
CIRCLE
  8
0
 10
0.0000
 20
0.0000
 30
0.0000
 40
0.5000
  0
ENDBLK
  8
0
  0
BLOCK
  8
0
  2
ANNULUSV
 70
64
 10
0.0000
 20
0.0000
 30
0.0000
  3
ANNULUSV
  0
CIRCLE
  8
0
 10
0.0000
 20
0.0000
 30
0.0000
 40
0.5000
  0
ENDBLK
  8
0
  0
BLOCK
  8
0
  2
THERMALV
 70
64
 10
0.0000
 20
0.0000
 30
0.0000
  3
THERMALV
  0
POLYLINE
  8
0
 66
1
 10
0.0000
 20
0.0000
 30
0.0000
 40
0.0000
 41
0.0000
 70
1
  0
VERTEX
  8
0
 10
-0.2379
 20
0.4000
 30
0.0000
  0
VERTEX
  8
0
 10
0.2379
 20
0.4000
 30
0.0000
 42
1.0000
  0
VERTEX
  8
0
 10
0.2379
 20
0.5000
 30
0.0000
  0
VERTEX
  8
0
 10
-0.2379
 20
0.5000
 30
0.0000
 42
1.0000
  0
SEQEND
  8
0
  0
POLYLINE
  8
0
 66
1
 10
0.0000
 20
0.0000
 30
0.0000
 40
0.0000
 41
0.0000
 70
1
  0
VERTEX
  8
0
 10
0.4000
 20
0.2379
 30
0.0000
  0
VERTEX
  8
0
 10
0.4000
 20
-0.2379
 30
0.0000
 42
1.0000
  0
VERTEX
  8
0
 10
0.5000
 20
-0.2379
 30
0.0000
  0
VERTEX
  8
0
 10
0.5000
 20
0.2379
 30
0.0000
 42
1.0000
  0
SEQEND
  8
0
  0
POLYLINE
  8
0
 66
1
 10
0.0000
 20
0.0000
 30
0.0000
 40
0.0000
 41
0.0000
 70
1
  0
VERTEX
  8
0
 10
0.2379
 20
-0.4000
 30
0.0000
  0
VERTEX
  8
0
 10
-0.2379
 20
-0.4000
 30
0.0000
 42
1.0000
  0
VERTEX
  8
0
 10
-0.2379
 20
-0.5000
 30
0.0000
  0
VERTEX
  8
0
 10
0.2379
 20
-0.5000
 30
0.0000
 42
1.0000
  0
SEQEND
  8
0
  0
POLYLINE
  8
0
 66
1
 10
0.0000
 20
0.0000
 30
0.0000
 40
0.0000
 41
0.0000
 70
1
  0
VERTEX
  8
0
 10
-0.4000
 20
-0.2379
 30
0.0000
  0
VERTEX
  8
0
 10
-0.4000
 20
0.2379
 30
0.0000
 42
1.0000
  0
VERTEX
  8
0
 10
-0.5000
 20
0.2379
 30
0.0000
  0
VERTEX
  8
0
 10
-0.5000
 20
-0.2379
 30
0.0000
 42
1.0000
  0
SEQEND
  8
0
  0
ENDBLK
  8
0
  0
ENDSEC
  0
SECTION
  2
ENTITIES
  0
POLYLINE
  8
20
 66
1
 10
0.0000
 20
0.0000
 30
0.0000
 40
0.0000
 41
0.0000
 70
1
  0
VERTEX
  8
20
 10
-54.0000
 20
-32.4750
 30
0.0000
  0
VERTEX
  8
20
 10
54.0000
 20
-32.4750
 30
0.0000
 42
1.0000
  0
VERTEX
  8
20
 10
54.0000
 20
-32.3250
 30
0.0000
  0
VERTEX
  8
20
 10
-54.0000
 20
-32.3250
 30
0.0000
 42
1.0000
  0
SEQEND
  8
0
  0
POLYLINE
  8
20
 66
1
 10
0.0000
 20
0.0000
 30
0.0000
 40
0.0000
 41
0.0000
 70
1
  0
VERTEX
  8
20
 10
54.0750
 20
-32.4000
 30
0.0000
  0
VERTEX
  8
20
 10
54.0750
 20
32.4000
 30
0.0000
 42
1.0000
  0
VERTEX
  8
20
 10
53.9250
 20
32.4000
 30
0.0000
  0
VERTEX
  8
20
 10
53.9250
 20
-32.4000
 30
0.0000
 42
1.0000
  0
SEQEND
  8
0
  0
POLYLINE
  8
20
 66
1
 10
0.0000
 20
0.0000
 30
0.0000
 40
0.0000
 41
0.0000
 70
1
  0
VERTEX
  8
20
 10
54.0000
 20
32.4750
 30
0.0000
  0
VERTEX
  8
20
 10
-54.0000
 20
32.4750
 30
0.0000
 42
1.0000
  0
VERTEX
  8
20
 10
-54.0000
 20
32.3250
 30
0.0000
  0
VERTEX
  8
20
 10
54.0000
 20
32.3250
 30
0.0000
 42
1.0000
  0
SEQEND
  8
0
  0
POLYLINE
  8
20
 66
1
 10
0.0000
 20
0.0000
 30
0.0000
 40
0.0000
 41
0.0000
 70
1
  0
VERTEX
  8
20
 10
-54.0750
 20
32.4000
 30
0.0000
  0
VERTEX
  8
20
 10
-54.0750
 20
-32.4000
 30
0.0000
 42
1.0000
  0
VERTEX
  8
20
 10
-53.9250
 20
-32.4000
 30
0.0000
  0
VERTEX
  8
20
 10
-53.9250
 20
32.4000
 30
0.0000
 42
1.0000
  0
SEQEND
  8
0
  0
POLYLINE
  8
21
 66
1
 10
0.0000
 20
0.0000
 30
0.0000
 40
0.0000
 41
0.0000
 70
1
  0
VERTEX
  8
21
 10
-49.1640
 20
0.7733
 30
0.0000
 42
1.0000
  0
VERTEX
  8
21
 10
-50.0316
 20
1.1963
 30
0.0000
 42
0.1139
  0
VERTEX
  8
21
 10
-51.0000
 20
-3.0000
 30
0.0000
 42
1.0000
  0
VERTEX
  8
21
 10
-50.0348
 20
-3.0000
 30
0.0000
 42
-0.1139
  0
SEQEND
  8
0
  0
POLYLINE
  8
21
 66
1
 10
0.0000
 20
0.0000
 30
0.0000
 40
0.0000
 41
0.0000
 70
1
  0
VERTEX
  8
21
 10
-47.4522
 20
2.0348
 30
0.0000
 42
1.0000
  0
VERTEX
  8
21
 10
-47.4522
 20
3.0000
 30
0.0000
 42
0.3205
  0
VERTEX
  8
21
 10
-50.0543
 20
1.1413
 30
0.0000
 42
1.0000
  0
VERTEX
  8
21
 10
-49.1413
 20
0.8283
 30
0.0000
 42
-0.3205
  0
SEQEND
  8
0
  0
POLYLINE
  8
21
 66
1
 10
0.0000
 20
0.0000
 30
0.0000
 40
0.0000
 41
0.0000
 70
1
  0
VERTEX
  8
21
 10
-45.7630
 20
0.8283
 30
0.0000
 42
1.0000
  0
VERTEX
  8
21
 10
-44.8500
 20
1.1413
 30
0.0000
 42
0.3205
  0
VERTEX
  8
21
 10
-47.4522
 20
3.0000
 30
0.0000
 42
1.0000
  0
VERTEX
  8
21
 10
-47.4522
 20
2.0348
 30
0.0000
 42
-0.3205
  0
SEQEND
  8
0
  0
POLYLINE
  8
21
 66
1
 10
0.0000
 20
0.0000
 30
0.0000
 40
0.0000
 41
0.0000
 70
1
  0
VERTEX
  8
21
 10
-44.8696
 20
-3.0000
 30
0.0000
 42
1.0000
  0
VERTEX
  8
21
 10
-43.9044
 20
-3.0000
 30
0.0000
 42
0.1139
  0
VERTEX
  8
21
 10
-44.8727
 20
1.1963
 30
0.0000
 42
1.0000
  0
VERTEX
  8
21
 10
-45.7403
 20
0.7733
 30
0.0000
 42
-0.1139
  0
SEQEND
  8
0
  0
POLYLINE
  8
21
 66
1
 10
0.0000
 20
0.0000
 30
0.0000
 40
0.0000
 41
0.0000
 70
1
  0
VERTEX
  8
21
 10
-50.0348
 20
-3.0000
 30
0.0000
 42
1.0000
  0
VERTEX
  8
21
 10
-51.0000
 20
-3.0000
 30
0.0000
 42
0.1139
  0
VERTEX
  8
21
 10
-50.0316
 20
-7.1963
 30
0.0000
 42
1.0000
  0
VERTEX
  8
21
 10
-49.1640
 20
-6.7733
 30
0.0000
 42
-0.1139
  0
SEQEND
  8
0
  0
POLYLINE
  8
21
 66
1
 10
0.0000
 20
0.0000
 30
0.0000
 40
0.0000
 41
0.0000
 70
1
  0
VERTEX
  8
21
 10
-49.1413
 20
-6.8283
 30
0.0000
 42
1.0000
  0
VERTEX
  8
21
 10
-50.0544
 20
-7.1413
 30
0.0000
 42
0.3205
  0
VERTEX
  8
21
 10
-47.4522
 20
-9.0000
 30
0.0000
 42
1.0000
  0
VERTEX
  8
21
 10
-47.4522
 20
-8.0348
 30
0.0000
 42
-0.3205
  0
SEQEND
  8
0
  0
POLYLINE
  8
21
 66
1
 10
0.0000
 20
0.0000
 30
0.0000
 40
0.0000
 41
0.0000
 70
1
  0
VERTEX
  8
21
 10
-45.7403
 20
-6.7733
 30
0.0000
 42
1.0000
  0
VERTEX
  8
21
 10
-44.8727
 20
-7.1963
 30
0.0000
 42
0.1139
  0
VERTEX
  8
21
 10
-43.9044
 20
-3.0000
 30
0.0000
 42
1.0000
  0
VERTEX
  8
21
 10
-44.8696
 20
-3.0000
 30
0.0000
 42
-0.1139
  0
SEQEND
  8
0
  0
POLYLINE
  8
21
 66
1
 10
0.0000
 20
0.0000
 30
0.0000
 40
0.0000
 41
0.0000
 70
1
  0
VERTEX
  8
21
 10
-47.4522
 20
-8.0348
 30
0.0000
 42
1.0000
  0
VERTEX
  8
21
 10
-47.4522
 20
-9.0000
 30
0.0000
 42
0.3205
  0
VERTEX
  8
21
 10
-44.8500
 20
-7.1413
 30
0.0000
 42
1.0000
  0
VERTEX
  8
21
 10
-45.7630
 20
-6.8283
 30
0.0000
 42
-0.3205
  0
SEQEND
  8
0
  0
POLYLINE
  8
21
 66
1
 10
0.0000
 20
0.0000
 30
0.0000
 40
0.0000
 41
0.0000
 70
1
  0
VERTEX
  8
21
 10
-49.5275
 20
-6.3667
 30
0.0000
  0
VERTEX
  8
21
 10
-44.6232
 20
-0.2363
 30
0.0000
 42
1.0000
  0
VERTEX
  8
21
 10
-45.3768
 20
0.3667
 30
0.0000
  0
VERTEX
  8
21
 10
-50.2812
 20
-5.7637
 30
0.0000
 42
1.0000
  0
SEQEND
  8
0
  0
POLYLINE
  8
21
 66
1
 10
0.0000
 20
0.0000
 30
0.0000
 40
0.0000
 41
0.0000
 70
1
  0
VERTEX
  8
21
 10
-40.9761
 20
-8.5174
 30
0.0000
  0
VERTEX
  8
21
 10
-40.9761
 20
-7.9044
 30
0.0000
 42
1.0000
  0
VERTEX
  8
21
 10
-41.9413
 20
-7.9044
 30
0.0000
  0
VERTEX
  8
21
 10
-41.9413
 20
-8.5174
 30
0.0000
 42
1.0000
  0
SEQEND
  8
0
  0
POLYLINE
  8
21
 66
1
 10
0.0000
 20
0.0000
 30
0.0000
 40
0.0000
 41
0.0000
 70
1
  0
VERTEX
  8
21
 10
-41.4587
 20
-8.3870
 30
0.0000
  0
VERTEX
  8
21
 10
-40.8457
 20
-8.3870
 30
0.0000
 42
1.0000
  0
VERTEX
  8
21
 10
-40.8457
 20
-7.4218
 30
0.0000
  0
VERTEX
  8
21
 10
-41.4587
 20
-7.4218
 30
0.0000
 42
1.0000
  0
SEQEND
  8
0
  0
POLYLINE
  8
21
 66
1
 10
0.0000
 20
0.0000
 30
0.0000
 40
0.0000
 41
0.0000
 70
1
  0
VERTEX
  8
21
 10
-41.3283
 20
-7.9044
 30
0.0000
  0
VERTEX
  8
21
 10
-41.3283
 20
-8.5174
 30
0.0000
 42
1.0000
  0
VERTEX
  8
21
 10
-40.3631
 20
-8.5174
 30
0.0000
  0
VERTEX
  8
21
 10
-40.3631
 20
-7.9044
 30
0.0000
 42
1.0000
  0
SEQEND
  8
0
  0
POLYLINE
  8
21
 66
1
 10
0.0000
 20
0.0000
 30
0.0000
 40
0.0000
 41
0.0000
 70
1
  0
VERTEX
  8
21
 10
-40.8457
 20
-8.0348
 30
0.0000
  0
VERTEX
  8
21
 10
-41.4587
 20
-8.0348
 30
0.0000
 42
1.0000
  0
VERTEX
  8
21
 10
-41.4587
 20
-9.0000
 30
0.0000
  0
VERTEX
  8
21
 10
-40.8457
 20
-9.0000
 30
0.0000
 42
1.0000
  0
SEQEND
  8
0
  0
POLYLINE
  8
21
 66
1
 10
0.0000
 20
0.0000
 30
0.0000
 40
0.0000
 41
0.0000
 70
1
  0
VERTEX
  8
21
 10
-36.5640
 20
0.7733
 30
0.0000
 42
1.0000
  0
VERTEX
  8
21
 10
-37.4316
 20
1.1963
 30
0.0000
 42
0.1139
  0
VERTEX
  8
21
 10
-38.4000
 20
-3.0000
 30
0.0000
 42
1.0000
  0
VERTEX
  8
21
 10
-37.4348
 20
-3.0000
 30
0.0000
 42
-0.1139
  0
SEQEND
  8
0
  0
POLYLINE
  8
21
 66
1
 10
0.0000
 20
0.0000
 30
0.0000
 40
0.0000
 41
0.0000
 70
1
  0
VERTEX
  8
21
 10
-34.8522
 20
2.0348
 30
0.0000
 42
1.0000
  0
VERTEX
  8
21
 10
-34.8522
 20
3.0000
 30
0.0000
 42
0.3205
  0
VERTEX
  8
21
 10
-37.4543
 20
1.1413
 30
0.0000
 42
1.0000
  0
VERTEX
  8
21
 10
-36.5413
 20
0.8283
 30
0.0000
 42
-0.3205
  0
SEQEND
  8
0
  0
POLYLINE
  8
21
 66
1
 10
0.0000
 20
0.0000
 30
0.0000
 40
0.0000
 41
0.0000
 70
1
  0
VERTEX
  8
21
 10
-33.1630
 20
0.8283
 30
0.0000
 42
1.0000
  0
VERTEX
  8
21
 10
-32.2500
 20
1.1413
 30
0.0000
 42
0.3205
  0
VERTEX
  8
21
 10
-34.8522
 20
3.0000
 30
0.0000
 42
1.0000
  0
VERTEX
  8
21
 10
-34.8522
 20
2.0348
 30
0.0000
 42
-0.3205
  0
SEQEND
  8
0
  0
POLYLINE
  8
21
 66
1
 10
0.0000
 20
0.0000
 30
0.0000
 40
0.0000
 41
0.0000
 70
1
  0
VERTEX
  8
21
 10
-32.2696
 20
-3.0000
 30
0.0000
 42
1.0000
  0
VERTEX
  8
21
 10
-31.3044
 20
-3.0000
 30
0.0000
 42
0.1139
  0
VERTEX
  8
21
 10
-32.2727
 20
1.1963
 30
0.0000
 42
1.0000
  0
VERTEX
  8
21
 10
-33.1403
 20
0.7733
 30
0.0000
 42
-0.1139
  0
SEQEND
  8
0
  0
POLYLINE
  8
21
 66
1
 10
0.0000
 20
0.0000
 30
0.0000
 40
0.0000
 41
0.0000
 70
1
  0
VERTEX
  8
21
 10
-37.4348
 20
-3.0000
 30
0.0000
 42
1.0000
  0
VERTEX
  8
21
 10
-38.4000
 20
-3.0000
 30
0.0000
 42
0.1139
  0
VERTEX
  8
21
 10
-37.4316
 20
-7.1963
 30
0.0000
 42
1.0000
  0
VERTEX
  8
21
 10
-36.5640
 20
-6.7733
 30
0.0000
 42
-0.1139
  0
SEQEND
  8
0
  0
POLYLINE
  8
21
 66
1
 10
0.0000
 20
0.0000
 30
0.0000
 40
0.0000
 41
0.0000
 70
1
  0
VERTEX
  8
21
 10
-36.5413
 20
-6.8283
 30
0.0000
 42
1.0000
  0
VERTEX
  8
21
 10
-37.4544
 20
-7.1413
 30
0.0000
 42
0.3205
  0
VERTEX
  8
21
 10
-34.8522
 20
-9.0000
 30
0.0000
 42
1.0000
  0
VERTEX
  8
21
 10
-34.8522
 20
-8.0348
 30
0.0000
 42
-0.3205
  0
SEQEND
  8
0
  0
POLYLINE
  8
21
 66
1
 10
0.0000
 20
0.0000
 30
0.0000
 40
0.0000
 41
0.0000
 70
1
  0
VERTEX
  8
21
 10
-33.1403
 20
-6.7733
 30
0.0000
 42
1.0000
  0
VERTEX
  8
21
 10
-32.2727
 20
-7.1963
 30
0.0000
 42
0.1139
  0
VERTEX
  8
21
 10
-31.3044
 20
-3.0000
 30
0.0000
 42
1.0000
  0
VERTEX
  8
21
 10
-32.2696
 20
-3.0000
 30
0.0000
 42
-0.1139
  0
SEQEND
  8
0
  0
POLYLINE
  8
21
 66
1
 10
0.0000
 20
0.0000
 30
0.0000
 40
0.0000
 41
0.0000
 70
1
  0
VERTEX
  8
21
 10
-34.8522
 20
-8.0348
 30
0.0000
 42
1.0000
  0
VERTEX
  8
21
 10
-34.8522
 20
-9.0000
 30
0.0000
 42
0.3205
  0
VERTEX
  8
21
 10
-32.2500
 20
-7.1413
 30
0.0000
 42
1.0000
  0
VERTEX
  8
21
 10
-33.1630
 20
-6.8283
 30
0.0000
 42
-0.3205
  0
SEQEND
  8
0
  0
POLYLINE
  8
21
 66
1
 10
0.0000
 20
0.0000
 30
0.0000
 40
0.0000
 41
0.0000
 70
1
  0
VERTEX
  8
21
 10
-36.9275
 20
-6.3667
 30
0.0000
  0
VERTEX
  8
21
 10
-32.0232
 20
-0.2363
 30
0.0000
 42
1.0000
  0
VERTEX
  8
21
 10
-32.7768
 20
0.3667
 30
0.0000
  0
VERTEX
  8
21
 10
-37.6812
 20
-5.7637
 30
0.0000
 42
1.0000
  0
SEQEND
  8
0
  0
POLYLINE
  8
21
 66
1
 10
0.0000
 20
0.0000
 30
0.0000
 40
0.0000
 41
0.0000
 70
1
  0
VERTEX
  8
21
 10
-28.6159
 20
-0.3116
 30
0.0000
  0
VERTEX
  8
21
 10
-25.5507
 20
2.1406
 30
0.0000
 42
1.0000
  0
VERTEX
  8
21
 10
-26.1537
 20
2.8942
 30
0.0000
  0
VERTEX
  8
21
 10
-29.2189
 20
0.4421
 30
0.0000
 42
1.0000
  0
SEQEND
  8
0
  0
POLYLINE
  8
21
 66
1
 10
0.0000
 20
0.0000
 30
0.0000
 40
0.0000
 41
0.0000
 70
1
  0
VERTEX
  8
21
 10
-26.3348
 20
2.5174
 30
0.0000
  0
VERTEX
  8
21
 10
-26.3348
 20
-8.5174
 30
0.0000
 42
1.0000
  0
VERTEX
  8
21
 10
-25.3696
 20
-8.5174
 30
0.0000
  0
VERTEX
  8
21
 10
-25.3696
 20
2.5174
 30
0.0000
 42
1.0000
  0
SEQEND
  8
0
  0
POLYLINE
  8
21
 66
1
 10
0.0000
 20
0.0000
 30
0.0000
 40
0.0000
 41
0.0000
 70
1
  0
VERTEX
  8
21
 10
-28.9174
 20
-9.0000
 30
0.0000
  0
VERTEX
  8
21
 10
-22.7870
 20
-9.0000
 30
0.0000
 42
1.0000
  0
VERTEX
  8
21
 10
-22.7870
 20
-8.0348
 30
0.0000
  0
VERTEX
  8
21
 10
-28.9174
 20
-8.0348
 30
0.0000
 42
1.0000
  0
SEQEND
  8
0
  0
POLYLINE
  8
21
 66
1
 10
0.0000
 20
0.0000
 30
0.0000
 40
0.0000
 41
0.0000
 70
1
  0
VERTEX
  8
21
 10
-18.5640
 20
0.7733
 30
0.0000
 42
1.0000
  0
VERTEX
  8
21
 10
-19.4316
 20
1.1963
 30
0.0000
 42
0.1139
  0
VERTEX
  8
21
 10
-20.4000
 20
-3.0000
 30
0.0000
 42
1.0000
  0
VERTEX
  8
21
 10
-19.4348
 20
-3.0000
 30
0.0000
 42
-0.1139
  0
SEQEND
  8
0
  0
POLYLINE
  8
21
 66
1
 10
0.0000
 20
0.0000
 30
0.0000
 40
0.0000
 41
0.0000
 70
1
  0
VERTEX
  8
21
 10
-16.8522
 20
2.0348
 30
0.0000
 42
1.0000
  0
VERTEX
  8
21
 10
-16.8522
 20
3.0000
 30
0.0000
 42
0.3205
  0
VERTEX
  8
21
 10
-19.4543
 20
1.1413
 30
0.0000
 42
1.0000
  0
VERTEX
  8
21
 10
-18.5413
 20
0.8283
 30
0.0000
 42
-0.3205
  0
SEQEND
  8
0
  0
POLYLINE
  8
21
 66
1
 10
0.0000
 20
0.0000
 30
0.0000
 40
0.0000
 41
0.0000
 70
1
  0
VERTEX
  8
21
 10
-15.1630
 20
0.8283
 30
0.0000
 42
1.0000
  0
VERTEX
  8
21
 10
-14.2500
 20
1.1413
 30
0.0000
 42
0.3205
  0
VERTEX
  8
21
 10
-16.8522
 20
3.0000
 30
0.0000
 42
1.0000
  0
VERTEX
  8
21
 10
-16.8522
 20
2.0348
 30
0.0000
 42
-0.3205
  0
SEQEND
  8
0
  0
POLYLINE
  8
21
 66
1
 10
0.0000
 20
0.0000
 30
0.0000
 40
0.0000
 41
0.0000
 70
1
  0
VERTEX
  8
21
 10
-14.2696
 20
-3.0000
 30
0.0000
 42
1.0000
  0
VERTEX
  8
21
 10
-13.3044
 20
-3.0000
 30
0.0000
 42
0.1139
  0
VERTEX
  8
21
 10
-14.2727
 20
1.1963
 30
0.0000
 42
1.0000
  0
VERTEX
  8
21
 10
-15.1403
 20
0.7733
 30
0.0000
 42
-0.1139
  0
SEQEND
  8
0
  0
POLYLINE
  8
21
 66
1
 10
0.0000
 20
0.0000
 30
0.0000
 40
0.0000
 41
0.0000
 70
1
  0
VERTEX
  8
21
 10
-19.4348
 20
-3.0000
 30
0.0000
 42
1.0000
  0
VERTEX
  8
21
 10
-20.4000
 20
-3.0000
 30
0.0000
 42
0.1139
  0
VERTEX
  8
21
 10
-19.4316
 20
-7.1963
 30
0.0000
 42
1.0000
  0
VERTEX
  8
21
 10
-18.5640
 20
-6.7733
 30
0.0000
 42
-0.1139
  0
SEQEND
  8
0
  0
POLYLINE
  8
21
 66
1
 10
0.0000
 20
0.0000
 30
0.0000
 40
0.0000
 41
0.0000
 70
1
  0
VERTEX
  8
21
 10
-18.5413
 20
-6.8283
 30
0.0000
 42
1.0000
  0
VERTEX
  8
21
 10
-19.4544
 20
-7.1413
 30
0.0000
 42
0.3205
  0
VERTEX
  8
21
 10
-16.8522
 20
-9.0000
 30
0.0000
 42
1.0000
  0
VERTEX
  8
21
 10
-16.8522
 20
-8.0348
 30
0.0000
 42
-0.3205
  0
SEQEND
  8
0
  0
POLYLINE
  8
21
 66
1
 10
0.0000
 20
0.0000
 30
0.0000
 40
0.0000
 41
0.0000
 70
1
  0
VERTEX
  8
21
 10
-15.1403
 20
-6.7733
 30
0.0000
 42
1.0000
  0
VERTEX
  8
21
 10
-14.2727
 20
-7.1963
 30
0.0000
 42
0.1139
  0
VERTEX
  8
21
 10
-13.3044
 20
-3.0000
 30
0.0000
 42
1.0000
  0
VERTEX
  8
21
 10
-14.2696
 20
-3.0000
 30
0.0000
 42
-0.1139
  0
SEQEND
  8
0
  0
POLYLINE
  8
21
 66
1
 10
0.0000
 20
0.0000
 30
0.0000
 40
0.0000
 41
0.0000
 70
1
  0
VERTEX
  8
21
 10
-16.8522
 20
-8.0348
 30
0.0000
 42
1.0000
  0
VERTEX
  8
21
 10
-16.8522
 20
-9.0000
 30
0.0000
 42
0.3205
  0
VERTEX
  8
21
 10
-14.2500
 20
-7.1413
 30
0.0000
 42
1.0000
  0
VERTEX
  8
21
 10
-15.1630
 20
-6.8283
 30
0.0000
 42
-0.3205
  0
SEQEND
  8
0
  0
POLYLINE
  8
21
 66
1
 10
0.0000
 20
0.0000
 30
0.0000
 40
0.0000
 41
0.0000
 70
1
  0
VERTEX
  8
21
 10
-18.9275
 20
-6.3667
 30
0.0000
  0
VERTEX
  8
21
 10
-14.0232
 20
-0.2363
 30
0.0000
 42
1.0000
  0
VERTEX
  8
21
 10
-14.7768
 20
0.3667
 30
0.0000
  0
VERTEX
  8
21
 10
-19.6812
 20
-5.7637
 30
0.0000
 42
1.0000
  0
SEQEND
  8
0
  0
POLYLINE
  8
21
 66
1
 10
0.0000
 20
0.0000
 30
0.0000
 40
0.0000
 41
0.0000
 70
1
  0
VERTEX
  8
21
 10
-11.0726
 20
-8.6700
 30
0.0000
  0
VERTEX
  8
21
 10
-7.3943
 20
2.3648
 30
0.0000
 42
1.0000
  0
VERTEX
  8
21
 10
-8.3100
 20
2.6700
 30
0.0000
  0
VERTEX
  8
21
 10
-11.9883
 20
-8.3648
 30
0.0000
 42
1.0000
  0
SEQEND
  8
0
  0
POLYLINE
  8
21
 66
1
 10
0.0000
 20
0.0000
 30
0.0000
 40
0.0000
 41
0.0000
 70
1
  0
VERTEX
  8
21
 10
-8.3100
 20
2.3648
 30
0.0000
  0
VERTEX
  8
21
 10
-4.6317
 20
-8.6700
 30
0.0000
 42
1.0000
  0
VERTEX
  8
21
 10
-3.7161
 20
-8.3648
 30
0.0000
  0
VERTEX
  8
21
 10
-7.3943
 20
2.6700
 30
0.0000
 42
1.0000
  0
SEQEND
  8
0
  0
POLYLINE
  8
21
 66
1
 10
0.0000
 20
0.0000
 30
0.0000
 40
0.0000
 41
0.0000
 70
1
  0
VERTEX
  8
21
 10
-5.0935
 20
-5.2761
 30
0.0000
  0
VERTEX
  8
21
 10
-10.6109
 20
-5.2761
 30
0.0000
 42
1.0000
  0
VERTEX
  8
21
 10
-10.6109
 20
-6.2413
 30
0.0000
  0
VERTEX
  8
21
 10
-5.0935
 20
-6.2413
 30
0.0000
 42
1.0000
  0
SEQEND
  8
0
  0
POLYLINE
  8
21
 66
1
 10
0.0000
 20
0.0000
 30
0.0000
 40
0.0000
 41
0.0000
 70
1
  0
VERTEX
  8
21
 10
-49.9619
 20
6.2286
 30
0.0000
 42
1.0000
  0
VERTEX
  8
21
 10
-49.9619
 20
6.0000
 30
0.0000
 42
0.4142
  0
VERTEX
  8
21
 10
-49.2317
 20
6.7302
 30
0.0000
 42
1.0000
  0
VERTEX
  8
21
 10
-49.4603
 20
6.7302
 30
0.0000
 42
-0.4142
  0
SEQEND
  8
0
  0
POLYLINE
  8
21
 66
1
 10
0.0000
 20
0.0000
 30
0.0000
 40
0.0000
 41
0.0000
 70
1
  0
VERTEX
  8
21
 10
-50.8045
 20
6.5797
 30
0.0000
 42
1.0000
  0
VERTEX
  8
21
 10
-50.9669
 20
6.4187
 30
0.0000
 42
0.2000
  0
VERTEX
  8
21
 10
-49.9619
 20
6.0000
 30
0.0000
 42
1.0000
  0
VERTEX
  8
21
 10
-49.9619
 20
6.2286
 30
0.0000
 42
-0.2000
  0
SEQEND
  8
0
  0
POLYLINE
  8
21
 66
1
 10
0.0000
 20
0.0000
 30
0.0000
 40
0.0000
 41
0.0000
 70
1
  0
VERTEX
  8
21
 10
-50.1928
 20
8.7714
 30
0.0000
 42
1.0000
  0
VERTEX
  8
21
 10
-50.1928
 20
9.0000
 30
0.0000
 42
0.4142
  0
VERTEX
  8
21
 10
-50.9230
 20
8.2698
 30
0.0000
 42
1.0000
  0
VERTEX
  8
21
 10
-50.6944
 20
8.2698
 30
0.0000
 42
-0.4142
  0
SEQEND
  8
0
  0
POLYLINE
  8
21
 66
1
 10
0.0000
 20
0.0000
 30
0.0000
 40
0.0000
 41
0.0000
 70
1
  0
VERTEX
  8
21
 10
-49.5686
 20
8.5633
 30
0.0000
 42
1.0000
  0
VERTEX
  8
21
 10
-49.4314
 20
8.7462
 30
0.0000
 42
0.1623
  0
VERTEX
  8
21
 10
-50.1929
 20
9.0000
 30
0.0000
 42
1.0000
  0
VERTEX
  8
21
 10
-50.1928
 20
8.7714
 30
0.0000
 42
-0.1623
  0
SEQEND
  8
0
  0
POLYLINE
  8
21
 66
1
 10
0.0000
 20
0.0000
 30
0.0000
 40
0.0000
 41
0.0000
 70
1
  0
VERTEX
  8
21
 10
-50.6944
 20
8.2698
 30
0.0000
 42
1.0000
  0
VERTEX
  8
21
 10
-50.9230
 20
8.2698
 30
0.0000
 42
0.2656
  0
VERTEX
  8
21
 10
-50.5588
 20
7.6325
 30
0.0000
 42
1.0000
  0
VERTEX
  8
21
 10
-50.4428
 20
7.8294
 30
0.0000
 42
-0.2656
  0
SEQEND
  8
0
  0
POLYLINE
  8
21
 66
1
 10
0.0000
 20
0.0000
 30
0.0000
 40
0.0000
 41
0.0000
 70
1
  0
VERTEX
  8
21
 10
-49.4603
 20
6.7302
 30
0.0000
 42
1.0000
  0
VERTEX
  8
21
 10
-49.2317
 20
6.7302
 30
0.0000
 42
0.2656
  0
VERTEX
  8
21
 10
-49.5959
 20
7.3675
 30
0.0000
 42
1.0000
  0
VERTEX
  8
21
 10
-49.7120
 20
7.1706
 30
0.0000
 42
-0.2656
  0
SEQEND
  8
0
  0
POLYLINE
  8
21
 66
1
 10
0.0000
 20
0.0000
 30
0.0000
 40
0.0000
 41
0.0000
 70
1
  0
VERTEX
  8
21
 10
-49.5992
 20
7.3694
 30
0.0000
  0
VERTEX
  8
21
 10
-50.4461
 20
7.8313
 30
0.0000
 42
1.0000
  0
VERTEX
  8
21
 10
-50.5555
 20
7.6306
 30
0.0000
  0
VERTEX
  8
21
 10
-49.7087
 20
7.1687
 30
0.0000
 42
1.0000
  0
SEQEND
  8
0
  0
POLYLINE
  8
21
 66
1
 10
0.0000
 20
0.0000
 30
0.0000
 40
0.0000
 41
0.0000
 70
1
  0
VERTEX
  8
21
 10
-47.2904
 20
6.2286
 30
0.0000
  0
VERTEX
  8
21
 10
-48.5222
 20
6.2286
 30
0.0000
 42
1.0000
  0
VERTEX
  8
21
 10
-48.5222
 20
6.0000
 30
0.0000
  0
VERTEX
  8
21
 10
-47.2904
 20
6.0000
 30
0.0000
 42
1.0000
  0
SEQEND
  8
0
  0
POLYLINE
  8
21
 66
1
 10
0.0000
 20
0.0000
 30
0.0000
 40
0.0000
 41
0.0000
 70
1
  0
VERTEX
  8
21
 10
-48.4079
 20
6.1143
 30
0.0000
  0
VERTEX
  8
21
 10
-48.4079
 20
8.8857
 30
0.0000
 42
1.0000
  0
VERTEX
  8
21
 10
-48.6365
 20
8.8857
 30
0.0000
  0
VERTEX
  8
21
 10
-48.6365
 20
6.1143
 30
0.0000
 42
1.0000
  0
SEQEND
  8
0
  0
POLYLINE
  8
21
 66
1
 10
0.0000
 20
0.0000
 30
0.0000
 40
0.0000
 41
0.0000
 70
1
  0
VERTEX
  8
21
 10
-48.5222
 20
8.7714
 30
0.0000
  0
VERTEX
  8
21
 10
-47.2904
 20
8.7714
 30
0.0000
 42
1.0000
  0
VERTEX
  8
21
 10
-47.2904
 20
9.0000
 30
0.0000
  0
VERTEX
  8
21
 10
-48.5222
 20
9.0000
 30
0.0000
 42
1.0000
  0
SEQEND
  8
0
  0
POLYLINE
  8
21
 66
1
 10
0.0000
 20
0.0000
 30
0.0000
 40
0.0000
 41
0.0000
 70
1
  0
VERTEX
  8
21
 10
-48.5222
 20
7.5397
 30
0.0000
  0
VERTEX
  8
21
 10
-47.5984
 20
7.5397
 30
0.0000
 42
1.0000
  0
VERTEX
  8
21
 10
-47.5984
 20
7.7683
 30
0.0000
  0
VERTEX
  8
21
 10
-48.5222
 20
7.7683
 30
0.0000
 42
1.0000
  0
SEQEND
  8
0
  0
POLYLINE
  8
21
 66
1
 10
0.0000
 20
0.0000
 30
0.0000
 40
0.0000
 41
0.0000
 70
1
  0
VERTEX
  8
21
 10
-45.8278
 20
6.1143
 30
0.0000
  0
VERTEX
  8
21
 10
-45.8278
 20
8.8857
 30
0.0000
 42
1.0000
  0
VERTEX
  8
21
 10
-46.0564
 20
8.8857
 30
0.0000
  0
VERTEX
  8
21
 10
-46.0564
 20
6.1143
 30
0.0000
 42
1.0000
  0
SEQEND
  8
0
  0
POLYLINE
  8
21
 66
1
 10
0.0000
 20
0.0000
 30
0.0000
 40
0.0000
 41
0.0000
 70
1
  0
VERTEX
  8
21
 10
-46.7120
 20
8.7714
 30
0.0000
  0
VERTEX
  8
21
 10
-45.1723
 20
8.7714
 30
0.0000
 42
1.0000
  0
VERTEX
  8
21
 10
-45.1723
 20
9.0000
 30
0.0000
  0
VERTEX
  8
21
 10
-46.7120
 20
9.0000
 30
0.0000
 42
1.0000
  0
SEQEND
  8
0
  0
POLYLINE
  8
21
 66
1
 10
0.0000
 20
0.0000
 30
0.0000
 40
0.0000
 41
0.0000
 70
1
  0
VERTEX
  8
21
 10
-42.0161
 20
6.2286
 30
0.0000
  0
VERTEX
  8
21
 10
-42.6319
 20
6.2286
 30
0.0000
 42
1.0000
  0
VERTEX
  8
21
 10
-42.6319
 20
6.0000
 30
0.0000
  0
VERTEX
  8
21
 10
-42.0161
 20
6.0000
 30
0.0000
 42
1.0000
  0
SEQEND
  8
0
  0
POLYLINE
  8
21
 66
1
 10
0.0000
 20
0.0000
 30
0.0000
 40
0.0000
 41
0.0000
 70
1
  0
VERTEX
  8
21
 10
-43.1335
 20
6.7302
 30
0.0000
 42
1.0000
  0
VERTEX
  8
21
 10
-43.3621
 20
6.7302
 30
0.0000
 42
0.4142
  0
VERTEX
  8
21
 10
-42.6319
 20
6.0000
 30
0.0000
 42
1.0000
  0
VERTEX
  8
21
 10
-42.6319
 20
6.2286
 30
0.0000
 42
-0.4142
  0
SEQEND
  8
0
  0
POLYLINE
  8
21
 66
1
 10
0.0000
 20
0.0000
 30
0.0000
 40
0.0000
 41
0.0000
 70
1
  0
VERTEX
  8
21
 10
-43.1335
 20
6.7302
 30
0.0000
  0
VERTEX
  8
21
 10
-43.1335
 20
8.2698
 30
0.0000
 42
1.0000
  0
VERTEX
  8
21
 10
-43.3621
 20
8.2698
 30
0.0000
  0
VERTEX
  8
21
 10
-43.3621
 20
6.7302
 30
0.0000
 42
1.0000
  0
SEQEND
  8
0
  0
POLYLINE
  8
21
 66
1
 10
0.0000
 20
0.0000
 30
0.0000
 40
0.0000
 41
0.0000
 70
1
  0
VERTEX
  8
21
 10
-42.6319
 20
8.7714
 30
0.0000
 42
1.0000
  0
VERTEX
  8
21
 10
-42.6319
 20
9.0000
 30
0.0000
 42
0.4142
  0
VERTEX
  8
21
 10
-43.3621
 20
8.2698
 30
0.0000
 42
1.0000
  0
VERTEX
  8
21
 10
-43.1335
 20
8.2698
 30
0.0000
 42
-0.4142
  0
SEQEND
  8
0
  0
POLYLINE
  8
21
 66
1
 10
0.0000
 20
0.0000
 30
0.0000
 40
0.0000
 41
0.0000
 70
1
  0
VERTEX
  8
21
 10
-42.6319
 20
8.7714
 30
0.0000
  0
VERTEX
  8
21
 10
-42.0161
 20
8.7714
 30
0.0000
 42
1.0000
  0
VERTEX
  8
21
 10
-42.0161
 20
9.0000
 30
0.0000
  0
VERTEX
  8
21
 10
-42.6319
 20
9.0000
 30
0.0000
 42
1.0000
  0
SEQEND
  8
0
  0
POLYLINE
  8
21
 66
1
 10
0.0000
 20
0.0000
 30
0.0000
 40
0.0000
 41
0.0000
 70
1
  0
VERTEX
  8
21
 10
-41.3138
 20
8.8857
 30
0.0000
  0
VERTEX
  8
21
 10
-41.3138
 20
6.8841
 30
0.0000
 42
1.0000
  0
VERTEX
  8
21
 10
-41.0852
 20
6.8841
 30
0.0000
  0
VERTEX
  8
21
 10
-41.0852
 20
8.8857
 30
0.0000
 42
1.0000
  0
SEQEND
  8
0
  0
POLYLINE
  8
21
 66
1
 10
0.0000
 20
0.0000
 30
0.0000
 40
0.0000
 41
0.0000
 70
1
  0
VERTEX
  8
21
 10
-41.0852
 20
6.8841
 30
0.0000
 42
1.0000
  0
VERTEX
  8
21
 10
-41.3138
 20
6.8841
 30
0.0000
 42
1.0000
  0
VERTEX
  8
21
 10
-39.5455
 20
6.8841
 30
0.0000
 42
1.0000
  0
VERTEX
  8
21
 10
-39.7741
 20
6.8841
 30
0.0000
 42
-1.0000
  0
SEQEND
  8
0
  0
POLYLINE
  8
21
 66
1
 10
0.0000
 20
0.0000
 30
0.0000
 40
0.0000
 41
0.0000
 70
1
  0
VERTEX
  8
21
 10
-39.5455
 20
6.8841
 30
0.0000
  0
VERTEX
  8
21
 10
-39.5455
 20
8.8857
 30
0.0000
 42
1.0000
  0
VERTEX
  8
21
 10
-39.7741
 20
8.8857
 30
0.0000
  0
VERTEX
  8
21
 10
-39.7741
 20
6.8841
 30
0.0000
 42
1.0000
  0
SEQEND
  8
0
  0
POLYLINE
  8
21
 66
1
 10
0.0000
 20
0.0000
 30
0.0000
 40
0.0000
 41
0.0000
 70
1
  0
VERTEX
  8
21
 10
-38.5627
 20
6.1143
 30
0.0000
  0
VERTEX
  8
21
 10
-38.5627
 20
8.8857
 30
0.0000
 42
1.0000
  0
VERTEX
  8
21
 10
-38.7913
 20
8.8857
 30
0.0000
  0
VERTEX
  8
21
 10
-38.7913
 20
6.1143
 30
0.0000
 42
1.0000
  0
SEQEND
  8
0
  0
POLYLINE
  8
21
 66
1
 10
0.0000
 20
0.0000
 30
0.0000
 40
0.0000
 41
0.0000
 70
1
  0
VERTEX
  8
21
 10
-38.6770
 20
8.7714
 30
0.0000
  0
VERTEX
  8
21
 10
-37.9072
 20
8.7714
 30
0.0000
 42
1.0000
  0
VERTEX
  8
21
 10
-37.9072
 20
9.0000
 30
0.0000
  0
VERTEX
  8
21
 10
-38.6770
 20
9.0000
 30
0.0000
 42
1.0000
  0
SEQEND
  8
0
  0
POLYLINE
  8
21
 66
1
 10
0.0000
 20
0.0000
 30
0.0000
 40
0.0000
 41
0.0000
 70
1
  0
VERTEX
  8
21
 10
-37.9072
 20
7.4603
 30
0.0000
 42
1.0000
  0
VERTEX
  8
21
 10
-37.9072
 20
7.2317
 30
0.0000
 42
1.0000
  0
VERTEX
  8
21
 10
-37.9072
 20
9.0000
 30
0.0000
 42
1.0000
  0
VERTEX
  8
21
 10
-37.9072
 20
8.7714
 30
0.0000
 42
-1.0000
  0
SEQEND
  8
0
  0
POLYLINE
  8
21
 66
1
 10
0.0000
 20
0.0000
 30
0.0000
 40
0.0000
 41
0.0000
 70
1
  0
VERTEX
  8
21
 10
-37.9072
 20
7.4603
 30
0.0000
  0
VERTEX
  8
21
 10
-38.6770
 20
7.4603
 30
0.0000
 42
1.0000
  0
VERTEX
  8
21
 10
-38.6770
 20
7.2317
 30
0.0000
  0
VERTEX
  8
21
 10
-37.9072
 20
7.2317
 30
0.0000
 42
1.0000
  0
SEQEND
  8
0
  0
POLYLINE
  8
21
 66
1
 10
0.0000
 20
0.0000
 30
0.0000
 40
0.0000
 41
0.0000
 70
1
  0
VERTEX
  8
21
 10
-37.0351
 20
6.1654
 30
0.0000
  0
VERTEX
  8
21
 10
-37.6510
 20
7.3971
 30
0.0000
 42
1.0000
  0
VERTEX
  8
21
 10
-37.8555
 20
7.2949
 30
0.0000
  0
VERTEX
  8
21
 10
-37.2396
 20
6.0632
 30
0.0000
 42
1.0000
  0
SEQEND
  8
0
  0
POLYLINE
  8
21
 66
1
 10
0.0000
 20
0.0000
 30
0.0000
 40
0.0000
 41
0.0000
 70
1
  0
VERTEX
  8
21
 10
-36.1215
 20
6.1143
 30
0.0000
  0
VERTEX
  8
21
 10
-36.1215
 20
8.8857
 30
0.0000
 42
1.0000
  0
VERTEX
  8
21
 10
-36.3501
 20
8.8857
 30
0.0000
  0
VERTEX
  8
21
 10
-36.3501
 20
6.1143
 30
0.0000
 42
1.0000
  0
SEQEND
  8
0
  0
POLYLINE
  8
21
 66
1
 10
0.0000
 20
0.0000
 30
0.0000
 40
0.0000
 41
0.0000
 70
1
  0
VERTEX
  8
21
 10
-36.2358
 20
8.7714
 30
0.0000
  0
VERTEX
  8
21
 10
-35.4660
 20
8.7714
 30
0.0000
 42
1.0000
  0
VERTEX
  8
21
 10
-35.4660
 20
9.0000
 30
0.0000
  0
VERTEX
  8
21
 10
-36.2358
 20
9.0000
 30
0.0000
 42
1.0000
  0
SEQEND
  8
0
  0
POLYLINE
  8
21
 66
1
 10
0.0000
 20
0.0000
 30
0.0000
 40
0.0000
 41
0.0000
 70
1
  0
VERTEX
  8
21
 10
-35.4660
 20
7.4603
 30
0.0000
 42
1.0000
  0
VERTEX
  8
21
 10
-35.4660
 20
7.2317
 30
0.0000
 42
1.0000
  0
VERTEX
  8
21
 10
-35.4660
 20
9.0000
 30
0.0000
 42
1.0000
  0
VERTEX
  8
21
 10
-35.4660
 20
8.7714
 30
0.0000
 42
-1.0000
  0
SEQEND
  8
0
  0
POLYLINE
  8
21
 66
1
 10
0.0000
 20
0.0000
 30
0.0000
 40
0.0000
 41
0.0000
 70
1
  0
VERTEX
  8
21
 10
-35.4660
 20
7.4603
 30
0.0000
  0
VERTEX
  8
21
 10
-36.2358
 20
7.4603
 30
0.0000
 42
1.0000
  0
VERTEX
  8
21
 10
-36.2358
 20
7.2317
 30
0.0000
  0
VERTEX
  8
21
 10
-35.4660
 20
7.2317
 30
0.0000
 42
1.0000
  0
SEQEND
  8
0
  0
POLYLINE
  8
21
 66
1
 10
0.0000
 20
0.0000
 30
0.0000
 40
0.0000
 41
0.0000
 70
1
  0
VERTEX
  8
21
 10
-34.5939
 20
6.1654
 30
0.0000
  0
VERTEX
  8
21
 10
-35.2098
 20
7.3971
 30
0.0000
 42
1.0000
  0
VERTEX
  8
21
 10
-35.4142
 20
7.2949
 30
0.0000
  0
VERTEX
  8
21
 10
-34.7984
 20
6.0632
 30
0.0000
 42
1.0000
  0
SEQEND
  8
0
  0
POLYLINE
  8
21
 66
1
 10
0.0000
 20
0.0000
 30
0.0000
 40
0.0000
 41
0.0000
 70
1
  0
VERTEX
  8
21
 10
-32.5642
 20
6.2286
 30
0.0000
  0
VERTEX
  8
21
 10
-33.7960
 20
6.2286
 30
0.0000
 42
1.0000
  0
VERTEX
  8
21
 10
-33.7960
 20
6.0000
 30
0.0000
  0
VERTEX
  8
21
 10
-32.5642
 20
6.0000
 30
0.0000
 42
1.0000
  0
SEQEND
  8
0
  0
POLYLINE
  8
21
 66
1
 10
0.0000
 20
0.0000
 30
0.0000
 40
0.0000
 41
0.0000
 70
1
  0
VERTEX
  8
21
 10
-33.6817
 20
6.1143
 30
0.0000
  0
VERTEX
  8
21
 10
-33.6817
 20
8.8857
 30
0.0000
 42
1.0000
  0
VERTEX
  8
21
 10
-33.9103
 20
8.8857
 30
0.0000
  0
VERTEX
  8
21
 10
-33.9103
 20
6.1143
 30
0.0000
 42
1.0000
  0
SEQEND
  8
0
  0
POLYLINE
  8
21
 66
1
 10
0.0000
 20
0.0000
 30
0.0000
 40
0.0000
 41
0.0000
 70
1
  0
VERTEX
  8
21
 10
-33.7960
 20
8.7714
 30
0.0000
  0
VERTEX
  8
21
 10
-32.5642
 20
8.7714
 30
0.0000
 42
1.0000
  0
VERTEX
  8
21
 10
-32.5642
 20
9.0000
 30
0.0000
  0
VERTEX
  8
21
 10
-33.7960
 20
9.0000
 30
0.0000
 42
1.0000
  0
SEQEND
  8
0
  0
POLYLINE
  8
21
 66
1
 10
0.0000
 20
0.0000
 30
0.0000
 40
0.0000
 41
0.0000
 70
1
  0
VERTEX
  8
21
 10
-33.7960
 20
7.5397
 30
0.0000
  0
VERTEX
  8
21
 10
-32.8722
 20
7.5397
 30
0.0000
 42
1.0000
  0
VERTEX
  8
21
 10
-32.8722
 20
7.7683
 30
0.0000
  0
VERTEX
  8
21
 10
-33.7960
 20
7.7683
 30
0.0000
 42
1.0000
  0
SEQEND
  8
0
  0
POLYLINE
  8
21
 66
1
 10
0.0000
 20
0.0000
 30
0.0000
 40
0.0000
 41
0.0000
 70
1
  0
VERTEX
  8
21
 10
-31.6352
 20
6.1143
 30
0.0000
  0
VERTEX
  8
21
 10
-31.6352
 20
8.8857
 30
0.0000
 42
1.0000
  0
VERTEX
  8
21
 10
-31.8638
 20
8.8857
 30
0.0000
  0
VERTEX
  8
21
 10
-31.8638
 20
6.1143
 30
0.0000
 42
1.0000
  0
SEQEND
  8
0
  0
POLYLINE
  8
21
 66
1
 10
0.0000
 20
0.0000
 30
0.0000
 40
0.0000
 41
0.0000
 70
1
  0
VERTEX
  8
21
 10
-31.8494
 20
8.8302
 30
0.0000
  0
VERTEX
  8
21
 10
-30.3098
 20
6.0588
 30
0.0000
 42
1.0000
  0
VERTEX
  8
21
 10
-30.1099
 20
6.1698
 30
0.0000
  0
VERTEX
  8
21
 10
-31.6496
 20
8.9412
 30
0.0000
 42
1.0000
  0
SEQEND
  8
0
  0
POLYLINE
  8
21
 66
1
 10
0.0000
 20
0.0000
 30
0.0000
 40
0.0000
 41
0.0000
 70
1
  0
VERTEX
  8
21
 10
-30.0956
 20
6.1143
 30
0.0000
  0
VERTEX
  8
21
 10
-30.0956
 20
8.8857
 30
0.0000
 42
1.0000
  0
VERTEX
  8
21
 10
-30.3242
 20
8.8857
 30
0.0000
  0
VERTEX
  8
21
 10
-30.3242
 20
6.1143
 30
0.0000
 42
1.0000
  0
SEQEND
  8
0
  0
POLYLINE
  8
21
 66
1
 10
0.0000
 20
0.0000
 30
0.0000
 40
0.0000
 41
0.0000
 70
1
  0
VERTEX
  8
21
 10
-28.5816
 20
6.1143
 30
0.0000
  0
VERTEX
  8
21
 10
-28.5816
 20
8.8857
 30
0.0000
 42
1.0000
  0
VERTEX
  8
21
 10
-28.8102
 20
8.8857
 30
0.0000
  0
VERTEX
  8
21
 10
-28.8102
 20
6.1143
 30
0.0000
 42
1.0000
  0
SEQEND
  8
0
  0
POLYLINE
  8
21
 66
1
 10
0.0000
 20
0.0000
 30
0.0000
 40
0.0000
 41
0.0000
 70
1
  0
VERTEX
  8
21
 10
-29.4658
 20
8.7714
 30
0.0000
  0
VERTEX
  8
21
 10
-27.9261
 20
8.7714
 30
0.0000
 42
1.0000
  0
VERTEX
  8
21
 10
-27.9261
 20
9.0000
 30
0.0000
  0
VERTEX
  8
21
 10
-29.4658
 20
9.0000
 30
0.0000
 42
1.0000
  0
SEQEND
  8
0
  0
POLYLINE
  8
21
 66
1
 10
0.0000
 20
0.0000
 30
0.0000
 40
0.0000
 41
0.0000
 70
1
  0
VERTEX
  8
21
 10
-48.5293
 20
22.6500
 30
0.0000
  0
VERTEX
  8
21
 10
-50.9814
 20
14.0674
 30
0.0000
 42
1.0000
  0
VERTEX
  8
21
 10
-50.0534
 20
13.8022
 30
0.0000
  0
VERTEX
  8
21
 10
-47.6012
 20
22.3848
 30
0.0000
 42
1.0000
  0
SEQEND
  8
0
  0
POLYLINE
  8
21
 66
1
 10
0.0000
 20
0.0000
 30
0.0000
 40
0.0000
 41
0.0000
 70
1
  0
VERTEX
  8
21
 10
-50.5174
 20
13.4522
 30
0.0000
  0
VERTEX
  8
21
 10
-44.3870
 20
13.4522
 30
0.0000
 42
1.0000
  0
VERTEX
  8
21
 10
-44.3870
 20
14.4174
 30
0.0000
  0
VERTEX
  8
21
 10
-50.5174
 20
14.4174
 30
0.0000
 42
1.0000
  0
SEQEND
  8
0
  0
POLYLINE
  8
21
 66
1
 10
0.0000
 20
0.0000
 30
0.0000
 40
0.0000
 41
0.0000
 70
1
  0
VERTEX
  8
21
 10
-46.7087
 20
16.3870
 30
0.0000
  0
VERTEX
  8
21
 10
-46.7087
 20
11.4826
 30
0.0000
 42
1.0000
  0
VERTEX
  8
21
 10
-45.7435
 20
11.4826
 30
0.0000
  0
VERTEX
  8
21
 10
-45.7435
 20
16.3870
 30
0.0000
 42
1.0000
  0
SEQEND
  8
0
  0
POLYLINE
  8
21
 66
1
 10
0.0000
 20
0.0000
 30
0.0000
 40
0.0000
 41
0.0000
 70
1
  0
VERTEX
  8
21
 10
-40.9761
 20
11.4826
 30
0.0000
  0
VERTEX
  8
21
 10
-40.9761
 20
12.0956
 30
0.0000
 42
1.0000
  0
VERTEX
  8
21
 10
-41.9413
 20
12.0956
 30
0.0000
  0
VERTEX
  8
21
 10
-41.9413
 20
11.4826
 30
0.0000
 42
1.0000
  0
SEQEND
  8
0
  0
POLYLINE
  8
21
 66
1
 10
0.0000
 20
0.0000
 30
0.0000
 40
0.0000
 41
0.0000
 70
1
  0
VERTEX
  8
21
 10
-41.4587
 20
11.6130
 30
0.0000
  0
VERTEX
  8
21
 10
-40.8457
 20
11.6130
 30
0.0000
 42
1.0000
  0
VERTEX
  8
21
 10
-40.8457
 20
12.5782
 30
0.0000
  0
VERTEX
  8
21
 10
-41.4587
 20
12.5782
 30
0.0000
 42
1.0000
  0
SEQEND
  8
0
  0
POLYLINE
  8
21
 66
1
 10
0.0000
 20
0.0000
 30
0.0000
 40
0.0000
 41
0.0000
 70
1
  0
VERTEX
  8
21
 10
-41.3283
 20
12.0956
 30
0.0000
  0
VERTEX
  8
21
 10
-41.3283
 20
11.4826
 30
0.0000
 42
1.0000
  0
VERTEX
  8
21
 10
-40.3631
 20
11.4826
 30
0.0000
  0
VERTEX
  8
21
 10
-40.3631
 20
12.0956
 30
0.0000
 42
1.0000
  0
SEQEND
  8
0
  0
POLYLINE
  8
21
 66
1
 10
0.0000
 20
0.0000
 30
0.0000
 40
0.0000
 41
0.0000
 70
1
  0
VERTEX
  8
21
 10
-40.8457
 20
11.9652
 30
0.0000
  0
VERTEX
  8
21
 10
-41.4587
 20
11.9652
 30
0.0000
 42
1.0000
  0
VERTEX
  8
21
 10
-41.4587
 20
11.0000
 30
0.0000
  0
VERTEX
  8
21
 10
-40.8457
 20
11.0000
 30
0.0000
 42
1.0000
  0
SEQEND
  8
0
  0
POLYLINE
  8
21
 66
1
 10
0.0000
 20
0.0000
 30
0.0000
 40
0.0000
 41
0.0000
 70
1
  0
VERTEX
  8
21
 10
-37.9174
 20
17.1304
 30
0.0000
  0
VERTEX
  8
21
 10
-34.2391
 20
17.1304
 30
0.0000
 42
1.0000
  0
VERTEX
  8
21
 10
-34.2391
 20
18.0956
 30
0.0000
  0
VERTEX
  8
21
 10
-37.9174
 20
18.0956
 30
0.0000
 42
1.0000
  0
SEQEND
  8
0
  0
POLYLINE
  8
21
 66
1
 10
0.0000
 20
0.0000
 30
0.0000
 40
0.0000
 41
0.0000
 70
1
  0
VERTEX
  8
21
 10
-32.2696
 20
15.1609
 30
0.0000
 42
1.0000
  0
VERTEX
  8
21
 10
-31.3044
 20
15.1609
 30
0.0000
 42
0.4142
  0
VERTEX
  8
21
 10
-34.2391
 20
18.0956
 30
0.0000
 42
1.0000
  0
VERTEX
  8
21
 10
-34.2391
 20
17.1304
 30
0.0000
 42
-0.4142
  0
SEQEND
  8
0
  0
POLYLINE
  8
21
 66
1
 10
0.0000
 20
0.0000
 30
0.0000
 40
0.0000
 41
0.0000
 70
1
  0
VERTEX
  8
21
 10
-32.2696
 20
15.1609
 30
0.0000
  0
VERTEX
  8
21
 10
-32.2696
 20
14.5478
 30
0.0000
 42
1.0000
  0
VERTEX
  8
21
 10
-31.3044
 20
14.5478
 30
0.0000
  0
VERTEX
  8
21
 10
-31.3044
 20
15.1609
 30
0.0000
 42
1.0000
  0
SEQEND
  8
0
  0
POLYLINE
  8
21
 66
1
 10
0.0000
 20
0.0000
 30
0.0000
 40
0.0000
 41
0.0000
 70
1
  0
VERTEX
  8
21
 10
-37.4348
 20
14.5478
 30
0.0000
 42
1.0000
  0
VERTEX
  8
21
 10
-38.4000
 20
14.5478
 30
0.0000
 42
1.0000
  0
VERTEX
  8
21
 10
-31.3044
 20
14.5478
 30
0.0000
 42
1.0000
  0
VERTEX
  8
21
 10
-32.2696
 20
14.5478
 30
0.0000
 42
-1.0000
  0
SEQEND
  8
0
  0
POLYLINE
  8
21
 66
1
 10
0.0000
 20
0.0000
 30
0.0000
 40
0.0000
 41
0.0000
 70
1
  0
VERTEX
  8
21
 10
-37.4348
 20
14.5478
 30
0.0000
  0
VERTEX
  8
21
 10
-37.4348
 20
17.6130
 30
0.0000
 42
1.0000
  0
VERTEX
  8
21
 10
-38.4000
 20
17.6130
 30
0.0000
  0
VERTEX
  8
21
 10
-38.4000
 20
14.5478
 30
0.0000
 42
1.0000
  0
SEQEND
  8
0
  0
POLYLINE
  8
21
 66
1
 10
0.0000
 20
0.0000
 30
0.0000
 40
0.0000
 41
0.0000
 70
1
  0
VERTEX
  8
21
 10
-33.0130
 20
22.0348
 30
0.0000
 42
1.0000
  0
VERTEX
  8
21
 10
-33.0130
 20
23.0000
 30
0.0000
 42
0.4142
  0
VERTEX
  8
21
 10
-38.4000
 20
17.6130
 30
0.0000
 42
1.0000
  0
VERTEX
  8
21
 10
-37.4348
 20
17.6130
 30
0.0000
 42
-0.4142
  0
SEQEND
  8
0
  0
POLYLINE
  8
21
 66
1
 10
0.0000
 20
0.0000
 30
0.0000
 40
0.0000
 41
0.0000
 70
1
  0
VERTEX
  8
21
 10
-26.9293
 20
22.6500
 30
0.0000
  0
VERTEX
  8
21
 10
-29.3814
 20
14.0674
 30
0.0000
 42
1.0000
  0
VERTEX
  8
21
 10
-28.4534
 20
13.8022
 30
0.0000
  0
VERTEX
  8
21
 10
-26.0012
 20
22.3848
 30
0.0000
 42
1.0000
  0
SEQEND
  8
0
  0
POLYLINE
  8
21
 66
1
 10
0.0000
 20
0.0000
 30
0.0000
 40
0.0000
 41
0.0000
 70
1
  0
VERTEX
  8
21
 10
-28.9174
 20
13.4522
 30
0.0000
  0
VERTEX
  8
21
 10
-22.7870
 20
13.4522
 30
0.0000
 42
1.0000
  0
VERTEX
  8
21
 10
-22.7870
 20
14.4174
 30
0.0000
  0
VERTEX
  8
21
 10
-28.9174
 20
14.4174
 30
0.0000
 42
1.0000
  0
SEQEND
  8
0
  0
POLYLINE
  8
21
 66
1
 10
0.0000
 20
0.0000
 30
0.0000
 40
0.0000
 41
0.0000
 70
1
  0
VERTEX
  8
21
 10
-25.1087
 20
16.3870
 30
0.0000
  0
VERTEX
  8
21
 10
-25.1087
 20
11.4826
 30
0.0000
 42
1.0000
  0
VERTEX
  8
21
 10
-24.1435
 20
11.4826
 30
0.0000
  0
VERTEX
  8
21
 10
-24.1435
 20
16.3870
 30
0.0000
 42
1.0000
  0
SEQEND
  8
0
  0
POLYLINE
  8
21
 66
1
 10
0.0000
 20
0.0000
 30
0.0000
 40
0.0000
 41
0.0000
 70
1
  0
VERTEX
  8
21
 10
-19.4348
 20
21.2913
 30
0.0000
  0
VERTEX
  8
21
 10
-19.4348
 20
22.5174
 30
0.0000
 42
1.0000
  0
VERTEX
  8
21
 10
-20.4000
 20
22.5174
 30
0.0000
  0
VERTEX
  8
21
 10
-20.4000
 20
21.2913
 30
0.0000
 42
1.0000
  0
SEQEND
  8
0
  0
POLYLINE
  8
21
 66
1
 10
0.0000
 20
0.0000
 30
0.0000
 40
0.0000
 41
0.0000
 70
1
  0
VERTEX
  8
21
 10
-19.9174
 20
22.0348
 30
0.0000
  0
VERTEX
  8
21
 10
-13.7870
 20
22.0348
 30
0.0000
 42
1.0000
  0
VERTEX
  8
21
 10
-13.7870
 20
23.0000
 30
0.0000
  0
VERTEX
  8
21
 10
-19.9174
 20
23.0000
 30
0.0000
 42
1.0000
  0
SEQEND
  8
0
  0
POLYLINE
  8
21
 66
1
 10
0.0000
 20
0.0000
 30
0.0000
 40
0.0000
 41
0.0000
 70
1
  0
VERTEX
  8
21
 10
-14.2519
 20
22.6466
 30
0.0000
  0
VERTEX
  8
21
 10
-17.3172
 20
11.6118
 30
0.0000
 42
1.0000
  0
VERTEX
  8
21
 10
-16.3872
 20
11.3534
 30
0.0000
  0
VERTEX
  8
21
 10
-13.3220
 20
22.3882
 30
0.0000
 42
1.0000
  0
SEQEND
  8
0
  0
POLYLINE
  8
21
 66
1
 10
0.0000
 20
0.0000
 30
0.0000
 40
0.0000
 41
0.0000
 70
1
  0
VERTEX
  8
21
 10
-11.9883
 20
22.3648
 30
0.0000
  0
VERTEX
  8
21
 10
-8.3100
 20
11.3300
 30
0.0000
 42
1.0000
  0
VERTEX
  8
21
 10
-7.3943
 20
11.6352
 30
0.0000
  0
VERTEX
  8
21
 10
-11.0726
 20
22.6700
 30
0.0000
 42
1.0000
  0
SEQEND
  8
0
  0
POLYLINE
  8
21
 66
1
 10
0.0000
 20
0.0000
 30
0.0000
 40
0.0000
 41
0.0000
 70
1
  0
VERTEX
  8
21
 10
-7.3943
 20
11.3300
 30
0.0000
  0
VERTEX
  8
21
 10
-3.7161
 20
22.3648
 30
0.0000
 42
1.0000
  0
VERTEX
  8
21
 10
-4.6317
 20
22.6700
 30
0.0000
  0
VERTEX
  8
21
 10
-8.3100
 20
11.6352
 30
0.0000
 42
1.0000
  0
SEQEND
  8
0
  0
POLYLINE
  8
21
 66
1
 10
0.0000
 20
0.0000
 30
0.0000
 40
0.0000
 41
0.0000
 70
1
  0
VERTEX
  8
21
 10
-49.9619
 20
26.2286
 30
0.0000
 42
1.0000
  0
VERTEX
  8
21
 10
-49.9619
 20
26.0000
 30
0.0000
 42
0.4142
  0
VERTEX
  8
21
 10
-49.2317
 20
26.7302
 30
0.0000
 42
1.0000
  0
VERTEX
  8
21
 10
-49.4603
 20
26.7302
 30
0.0000
 42
-0.4142
  0
SEQEND
  8
0
  0
POLYLINE
  8
21
 66
1
 10
0.0000
 20
0.0000
 30
0.0000
 40
0.0000
 41
0.0000
 70
1
  0
VERTEX
  8
21
 10
-50.8045
 20
26.5797
 30
0.0000
 42
1.0000
  0
VERTEX
  8
21
 10
-50.9669
 20
26.4187
 30
0.0000
 42
0.2000
  0
VERTEX
  8
21
 10
-49.9619
 20
26.0000
 30
0.0000
 42
1.0000
  0
VERTEX
  8
21
 10
-49.9619
 20
26.2286
 30
0.0000
 42
-0.2000
  0
SEQEND
  8
0
  0
POLYLINE
  8
21
 66
1
 10
0.0000
 20
0.0000
 30
0.0000
 40
0.0000
 41
0.0000
 70
1
  0
VERTEX
  8
21
 10
-50.1928
 20
28.7714
 30
0.0000
 42
1.0000
  0
VERTEX
  8
21
 10
-50.1928
 20
29.0000
 30
0.0000
 42
0.4142
  0
VERTEX
  8
21
 10
-50.9230
 20
28.2698
 30
0.0000
 42
1.0000
  0
VERTEX
  8
21
 10
-50.6944
 20
28.2698
 30
0.0000
 42
-0.4142
  0
SEQEND
  8
0
  0
POLYLINE
  8
21
 66
1
 10
0.0000
 20
0.0000
 30
0.0000
 40
0.0000
 41
0.0000
 70
1
  0
VERTEX
  8
21
 10
-49.5686
 20
28.5633
 30
0.0000
 42
1.0000
  0
VERTEX
  8
21
 10
-49.4314
 20
28.7462
 30
0.0000
 42
0.1623
  0
VERTEX
  8
21
 10
-50.1929
 20
29.0000
 30
0.0000
 42
1.0000
  0
VERTEX
  8
21
 10
-50.1928
 20
28.7714
 30
0.0000
 42
-0.1623
  0
SEQEND
  8
0
  0
POLYLINE
  8
21
 66
1
 10
0.0000
 20
0.0000
 30
0.0000
 40
0.0000
 41
0.0000
 70
1
  0
VERTEX
  8
21
 10
-50.6944
 20
28.2698
 30
0.0000
 42
1.0000
  0
VERTEX
  8
21
 10
-50.9230
 20
28.2698
 30
0.0000
 42
0.2656
  0
VERTEX
  8
21
 10
-50.5588
 20
27.6325
 30
0.0000
 42
1.0000
  0
VERTEX
  8
21
 10
-50.4428
 20
27.8294
 30
0.0000
 42
-0.2656
  0
SEQEND
  8
0
  0
POLYLINE
  8
21
 66
1
 10
0.0000
 20
0.0000
 30
0.0000
 40
0.0000
 41
0.0000
 70
1
  0
VERTEX
  8
21
 10
-49.4603
 20
26.7302
 30
0.0000
 42
1.0000
  0
VERTEX
  8
21
 10
-49.2317
 20
26.7302
 30
0.0000
 42
0.2656
  0
VERTEX
  8
21
 10
-49.5959
 20
27.3675
 30
0.0000
 42
1.0000
  0
VERTEX
  8
21
 10
-49.7120
 20
27.1706
 30
0.0000
 42
-0.2656
  0
SEQEND
  8
0
  0
POLYLINE
  8
21
 66
1
 10
0.0000
 20
0.0000
 30
0.0000
 40
0.0000
 41
0.0000
 70
1
  0
VERTEX
  8
21
 10
-49.5992
 20
27.3694
 30
0.0000
  0
VERTEX
  8
21
 10
-50.4461
 20
27.8313
 30
0.0000
 42
1.0000
  0
VERTEX
  8
21
 10
-50.5555
 20
27.6306
 30
0.0000
  0
VERTEX
  8
21
 10
-49.7087
 20
27.1687
 30
0.0000
 42
1.0000
  0
SEQEND
  8
0
  0
POLYLINE
  8
21
 66
1
 10
0.0000
 20
0.0000
 30
0.0000
 40
0.0000
 41
0.0000
 70
1
  0
VERTEX
  8
21
 10
-47.2904
 20
26.2286
 30
0.0000
  0
VERTEX
  8
21
 10
-48.5222
 20
26.2286
 30
0.0000
 42
1.0000
  0
VERTEX
  8
21
 10
-48.5222
 20
26.0000
 30
0.0000
  0
VERTEX
  8
21
 10
-47.2904
 20
26.0000
 30
0.0000
 42
1.0000
  0
SEQEND
  8
0
  0
POLYLINE
  8
21
 66
1
 10
0.0000
 20
0.0000
 30
0.0000
 40
0.0000
 41
0.0000
 70
1
  0
VERTEX
  8
21
 10
-48.4079
 20
26.1143
 30
0.0000
  0
VERTEX
  8
21
 10
-48.4079
 20
28.8857
 30
0.0000
 42
1.0000
  0
VERTEX
  8
21
 10
-48.6365
 20
28.8857
 30
0.0000
  0
VERTEX
  8
21
 10
-48.6365
 20
26.1143
 30
0.0000
 42
1.0000
  0
SEQEND
  8
0
  0
POLYLINE
  8
21
 66
1
 10
0.0000
 20
0.0000
 30
0.0000
 40
0.0000
 41
0.0000
 70
1
  0
VERTEX
  8
21
 10
-48.5222
 20
28.7714
 30
0.0000
  0
VERTEX
  8
21
 10
-47.2904
 20
28.7714
 30
0.0000
 42
1.0000
  0
VERTEX
  8
21
 10
-47.2904
 20
29.0000
 30
0.0000
  0
VERTEX
  8
21
 10
-48.5222
 20
29.0000
 30
0.0000
 42
1.0000
  0
SEQEND
  8
0
  0
POLYLINE
  8
21
 66
1
 10
0.0000
 20
0.0000
 30
0.0000
 40
0.0000
 41
0.0000
 70
1
  0
VERTEX
  8
21
 10
-48.5222
 20
27.5397
 30
0.0000
  0
VERTEX
  8
21
 10
-47.5984
 20
27.5397
 30
0.0000
 42
1.0000
  0
VERTEX
  8
21
 10
-47.5984
 20
27.7683
 30
0.0000
  0
VERTEX
  8
21
 10
-48.5222
 20
27.7683
 30
0.0000
 42
1.0000
  0
SEQEND
  8
0
  0
POLYLINE
  8
21
 66
1
 10
0.0000
 20
0.0000
 30
0.0000
 40
0.0000
 41
0.0000
 70
1
  0
VERTEX
  8
21
 10
-45.8278
 20
26.1143
 30
0.0000
  0
VERTEX
  8
21
 10
-45.8278
 20
28.8857
 30
0.0000
 42
1.0000
  0
VERTEX
  8
21
 10
-46.0564
 20
28.8857
 30
0.0000
  0
VERTEX
  8
21
 10
-46.0564
 20
26.1143
 30
0.0000
 42
1.0000
  0
SEQEND
  8
0
  0
POLYLINE
  8
21
 66
1
 10
0.0000
 20
0.0000
 30
0.0000
 40
0.0000
 41
0.0000
 70
1
  0
VERTEX
  8
21
 10
-46.7120
 20
28.7714
 30
0.0000
  0
VERTEX
  8
21
 10
-45.1723
 20
28.7714
 30
0.0000
 42
1.0000
  0
VERTEX
  8
21
 10
-45.1723
 20
29.0000
 30
0.0000
  0
VERTEX
  8
21
 10
-46.7120
 20
29.0000
 30
0.0000
 42
1.0000
  0
SEQEND
  8
0
  0
POLYLINE
  8
21
 66
1
 10
0.0000
 20
0.0000
 30
0.0000
 40
0.0000
 41
0.0000
 70
1
  0
VERTEX
  8
21
 10
-43.5094
 20
28.8496
 30
0.0000
  0
VERTEX
  8
21
 10
-42.5856
 20
26.0782
 30
0.0000
 42
1.0000
  0
VERTEX
  8
21
 10
-42.3687
 20
26.1504
 30
0.0000
  0
VERTEX
  8
21
 10
-43.2925
 20
28.9218
 30
0.0000
 42
1.0000
  0
SEQEND
  8
0
  0
POLYLINE
  8
21
 66
1
 10
0.0000
 20
0.0000
 30
0.0000
 40
0.0000
 41
0.0000
 70
1
  0
VERTEX
  8
21
 10
-42.3687
 20
26.0782
 30
0.0000
  0
VERTEX
  8
21
 10
-41.4449
 20
28.8496
 30
0.0000
 42
1.0000
  0
VERTEX
  8
21
 10
-41.6618
 20
28.9218
 30
0.0000
  0
VERTEX
  8
21
 10
-42.5856
 20
26.1504
 30
0.0000
 42
1.0000
  0
SEQEND
  8
0
  0
POLYLINE
  8
21
 66
1
 10
0.0000
 20
0.0000
 30
0.0000
 40
0.0000
 41
0.0000
 70
1
  0
VERTEX
  8
21
 10
-40.7702
 20
26.8841
 30
0.0000
  0
VERTEX
  8
21
 10
-40.7702
 20
28.1159
 30
0.0000
 42
1.0000
  0
VERTEX
  8
21
 10
-40.9988
 20
28.1159
 30
0.0000
  0
VERTEX
  8
21
 10
-40.9988
 20
26.8841
 30
0.0000
 42
1.0000
  0
SEQEND
  8
0
  0
POLYLINE
  8
21
 66
1
 10
0.0000
 20
0.0000
 30
0.0000
 40
0.0000
 41
0.0000
 70
1
  0
VERTEX
  8
21
 10
-39.4591
 20
28.1159
 30
0.0000
 42
1.0000
  0
VERTEX
  8
21
 10
-39.2305
 20
28.1159
 30
0.0000
 42
1.0000
  0
VERTEX
  8
21
 10
-40.9988
 20
28.1159
 30
0.0000
 42
1.0000
  0
VERTEX
  8
21
 10
-40.7702
 20
28.1159
 30
0.0000
 42
-1.0000
  0
SEQEND
  8
0
  0
POLYLINE
  8
21
 66
1
 10
0.0000
 20
0.0000
 30
0.0000
 40
0.0000
 41
0.0000
 70
1
  0
VERTEX
  8
21
 10
-39.4591
 20
28.1159
 30
0.0000
  0
VERTEX
  8
21
 10
-39.4591
 20
26.8841
 30
0.0000
 42
1.0000
  0
VERTEX
  8
21
 10
-39.2305
 20
26.8841
 30
0.0000
  0
VERTEX
  8
21
 10
-39.2305
 20
28.1159
 30
0.0000
 42
1.0000
  0
SEQEND
  8
0
  0
POLYLINE
  8
21
 66
1
 10
0.0000
 20
0.0000
 30
0.0000
 40
0.0000
 41
0.0000
 70
1
  0
VERTEX
  8
21
 10
-40.7702
 20
26.8841
 30
0.0000
 42
1.0000
  0
VERTEX
  8
21
 10
-40.9988
 20
26.8841
 30
0.0000
 42
1.0000
  0
VERTEX
  8
21
 10
-39.2305
 20
26.8841
 30
0.0000
 42
1.0000
  0
VERTEX
  8
21
 10
-39.4591
 20
26.8841
 30
0.0000
 42
-1.0000
  0
SEQEND
  8
0
  0
POLYLINE
  8
21
 66
1
 10
0.0000
 20
0.0000
 30
0.0000
 40
0.0000
 41
0.0000
 70
1
  0
VERTEX
  8
21
 10
-38.5565
 20
28.8857
 30
0.0000
  0
VERTEX
  8
21
 10
-38.5565
 20
26.1143
 30
0.0000
 42
1.0000
  0
VERTEX
  8
21
 10
-38.3279
 20
26.1143
 30
0.0000
  0
VERTEX
  8
21
 10
-38.3279
 20
28.8857
 30
0.0000
 42
1.0000
  0
SEQEND
  8
0
  0
POLYLINE
  8
21
 66
1
 10
0.0000
 20
0.0000
 30
0.0000
 40
0.0000
 41
0.0000
 70
1
  0
VERTEX
  8
21
 10
-38.4422
 20
26.0000
 30
0.0000
  0
VERTEX
  8
21
 10
-37.2105
 20
26.0000
 30
0.0000
 42
1.0000
  0
VERTEX
  8
21
 10
-37.2105
 20
26.2286
 30
0.0000
  0
VERTEX
  8
21
 10
-38.4422
 20
26.2286
 30
0.0000
 42
1.0000
  0
SEQEND
  8
0
  0
POLYLINE
  8
21
 66
1
 10
0.0000
 20
0.0000
 30
0.0000
 40
0.0000
 41
0.0000
 70
1
  0
VERTEX
  8
21
 10
-35.7479
 20
26.1143
 30
0.0000
  0
VERTEX
  8
21
 10
-35.7479
 20
28.8857
 30
0.0000
 42
1.0000
  0
VERTEX
  8
21
 10
-35.9765
 20
28.8857
 30
0.0000
  0
VERTEX
  8
21
 10
-35.9765
 20
26.1143
 30
0.0000
 42
1.0000
  0
SEQEND
  8
0
  0
POLYLINE
  8
21
 66
1
 10
0.0000
 20
0.0000
 30
0.0000
 40
0.0000
 41
0.0000
 70
1
  0
VERTEX
  8
21
 10
-36.6320
 20
28.7714
 30
0.0000
  0
VERTEX
  8
21
 10
-35.0923
 20
28.7714
 30
0.0000
 42
1.0000
  0
VERTEX
  8
21
 10
-35.0923
 20
29.0000
 30
0.0000
  0
VERTEX
  8
21
 10
-36.6320
 20
29.0000
 30
0.0000
 42
1.0000
  0
SEQEND
  8
0
  0
POLYLINE
  8
21
 66
1
 10
0.0000
 20
0.0000
 30
0.0000
 40
0.0000
 41
0.0000
 70
1
  0
VERTEX
  8
21
 10
-34.4725
 20
26.0782
 30
0.0000
  0
VERTEX
  8
21
 10
-33.5487
 20
28.8496
 30
0.0000
 42
1.0000
  0
VERTEX
  8
21
 10
-33.7656
 20
28.9218
 30
0.0000
  0
VERTEX
  8
21
 10
-34.6894
 20
26.1504
 30
0.0000
 42
1.0000
  0
SEQEND
  8
0
  0
POLYLINE
  8
21
 66
1
 10
0.0000
 20
0.0000
 30
0.0000
 40
0.0000
 41
0.0000
 70
1
  0
VERTEX
  8
21
 10
-33.7656
 20
28.8496
 30
0.0000
  0
VERTEX
  8
21
 10
-32.8418
 20
26.0782
 30
0.0000
 42
1.0000
  0
VERTEX
  8
21
 10
-32.6249
 20
26.1504
 30
0.0000
  0
VERTEX
  8
21
 10
-33.5487
 20
28.9218
 30
0.0000
 42
1.0000
  0
SEQEND
  8
0
  0
POLYLINE
  8
21
 66
1
 10
0.0000
 20
0.0000
 30
0.0000
 40
0.0000
 41
0.0000
 70
1
  0
VERTEX
  8
21
 10
-32.9643
 20
26.9215
 30
0.0000
  0
VERTEX
  8
21
 10
-34.3500
 20
26.9215
 30
0.0000
 42
1.0000
  0
VERTEX
  8
21
 10
-34.3500
 20
26.6928
 30
0.0000
  0
VERTEX
  8
21
 10
-32.9643
 20
26.6928
 30
0.0000
 42
1.0000
  0
SEQEND
  8
0
  0
POLYLINE
  8
21
 66
1
 10
0.0000
 20
0.0000
 30
0.0000
 40
0.0000
 41
0.0000
 70
1
  0
VERTEX
  8
21
 10
-30.9080
 20
27.5397
 30
0.0000
  0
VERTEX
  8
21
 10
-30.4461
 20
27.5397
 30
0.0000
 42
1.0000
  0
VERTEX
  8
21
 10
-30.4461
 20
27.7683
 30
0.0000
  0
VERTEX
  8
21
 10
-30.9080
 20
27.7683
 30
0.0000
 42
1.0000
  0
SEQEND
  8
0
  0
POLYLINE
  8
21
 66
1
 10
0.0000
 20
0.0000
 30
0.0000
 40
0.0000
 41
0.0000
 70
1
  0
VERTEX
  8
21
 10
-30.5604
 20
27.6540
 30
0.0000
  0
VERTEX
  8
21
 10
-30.5604
 20
26.1143
 30
0.0000
 42
1.0000
  0
VERTEX
  8
21
 10
-30.3318
 20
26.1143
 30
0.0000
  0
VERTEX
  8
21
 10
-30.3318
 20
27.6540
 30
0.0000
 42
1.0000
  0
SEQEND
  8
0
  0
POLYLINE
  8
21
 66
1
 10
0.0000
 20
0.0000
 30
0.0000
 40
0.0000
 41
0.0000
 70
1
  0
VERTEX
  8
21
 10
-30.4461
 20
26.2286
 30
0.0000
  0
VERTEX
  8
21
 10
-31.3699
 20
26.2286
 30
0.0000
 42
1.0000
  0
VERTEX
  8
21
 10
-31.3699
 20
26.0000
 30
0.0000
  0
VERTEX
  8
21
 10
-30.4461
 20
26.0000
 30
0.0000
 42
1.0000
  0
SEQEND
  8
0
  0
POLYLINE
  8
21
 66
1
 10
0.0000
 20
0.0000
 30
0.0000
 40
0.0000
 41
0.0000
 70
1
  0
VERTEX
  8
21
 10
-31.8715
 20
26.7302
 30
0.0000
 42
1.0000
  0
VERTEX
  8
21
 10
-32.1001
 20
26.7302
 30
0.0000
 42
0.4142
  0
VERTEX
  8
21
 10
-31.3699
 20
26.0000
 30
0.0000
 42
1.0000
  0
VERTEX
  8
21
 10
-31.3699
 20
26.2286
 30
0.0000
 42
-0.4142
  0
SEQEND
  8
0
  0
POLYLINE
  8
21
 66
1
 10
0.0000
 20
0.0000
 30
0.0000
 40
0.0000
 41
0.0000
 70
1
  0
VERTEX
  8
21
 10
-31.8715
 20
26.7302
 30
0.0000
  0
VERTEX
  8
21
 10
-31.8715
 20
28.2698
 30
0.0000
 42
1.0000
  0
VERTEX
  8
21
 10
-32.1001
 20
28.2698
 30
0.0000
  0
VERTEX
  8
21
 10
-32.1001
 20
26.7302
 30
0.0000
 42
1.0000
  0
SEQEND
  8
0
  0
POLYLINE
  8
21
 66
1
 10
0.0000
 20
0.0000
 30
0.0000
 40
0.0000
 41
0.0000
 70
1
  0
VERTEX
  8
21
 10
-31.3699
 20
28.7714
 30
0.0000
 42
1.0000
  0
VERTEX
  8
21
 10
-31.3699
 20
29.0000
 30
0.0000
 42
0.4142
  0
VERTEX
  8
21
 10
-32.1001
 20
28.2698
 30
0.0000
 42
1.0000
  0
VERTEX
  8
21
 10
-31.8715
 20
28.2698
 30
0.0000
 42
-0.4142
  0
SEQEND
  8
0
  0
POLYLINE
  8
21
 66
1
 10
0.0000
 20
0.0000
 30
0.0000
 40
0.0000
 41
0.0000
 70
1
  0
VERTEX
  8
21
 10
-31.3699
 20
28.7714
 30
0.0000
  0
VERTEX
  8
21
 10
-30.4461
 20
28.7714
 30
0.0000
 42
1.0000
  0
VERTEX
  8
21
 10
-30.4461
 20
29.0000
 30
0.0000
  0
VERTEX
  8
21
 10
-31.3699
 20
29.0000
 30
0.0000
 42
1.0000
  0
SEQEND
  8
0
  0
POLYLINE
  8
21
 66
1
 10
0.0000
 20
0.0000
 30
0.0000
 40
0.0000
 41
0.0000
 70
1
  0
VERTEX
  8
21
 10
-28.2330
 20
26.2286
 30
0.0000
  0
VERTEX
  8
21
 10
-29.4647
 20
26.2286
 30
0.0000
 42
1.0000
  0
VERTEX
  8
21
 10
-29.4647
 20
26.0000
 30
0.0000
  0
VERTEX
  8
21
 10
-28.2330
 20
26.0000
 30
0.0000
 42
1.0000
  0
SEQEND
  8
0
  0
POLYLINE
  8
21
 66
1
 10
0.0000
 20
0.0000
 30
0.0000
 40
0.0000
 41
0.0000
 70
1
  0
VERTEX
  8
21
 10
-29.3504
 20
26.1143
 30
0.0000
  0
VERTEX
  8
21
 10
-29.3504
 20
28.8857
 30
0.0000
 42
1.0000
  0
VERTEX
  8
21
 10
-29.5790
 20
28.8857
 30
0.0000
  0
VERTEX
  8
21
 10
-29.5790
 20
26.1143
 30
0.0000
 42
1.0000
  0
SEQEND
  8
0
  0
POLYLINE
  8
21
 66
1
 10
0.0000
 20
0.0000
 30
0.0000
 40
0.0000
 41
0.0000
 70
1
  0
VERTEX
  8
21
 10
-29.4647
 20
28.7714
 30
0.0000
  0
VERTEX
  8
21
 10
-28.2330
 20
28.7714
 30
0.0000
 42
1.0000
  0
VERTEX
  8
21
 10
-28.2330
 20
29.0000
 30
0.0000
  0
VERTEX
  8
21
 10
-29.4647
 20
29.0000
 30
0.0000
 42
1.0000
  0
SEQEND
  8
0
  0
POLYLINE
  8
21
 66
1
 10
0.0000
 20
0.0000
 30
0.0000
 40
0.0000
 41
0.0000
 70
1
  0
VERTEX
  8
21
 10
-29.4647
 20
27.5397
 30
0.0000
  0
VERTEX
  8
21
 10
-28.5409
 20
27.5397
 30
0.0000
 42
1.0000
  0
VERTEX
  8
21
 10
-28.5409
 20
27.7683
 30
0.0000
  0
VERTEX
  8
21
 10
-29.4647
 20
27.7683
 30
0.0000
 42
1.0000
  0
SEQEND
  8
0
  0
POLYLINE
  8
21
 66
1
 10
0.0000
 20
0.0000
 30
0.0000
 40
0.0000
 41
0.0000
 70
1
  0
VERTEX
  8
21
 10
4.8360
 20
0.7733
 30
0.0000
 42
1.0000
  0
VERTEX
  8
21
 10
3.9684
 20
1.1963
 30
0.0000
 42
0.1139
  0
VERTEX
  8
21
 10
3.0000
 20
-3.0000
 30
0.0000
 42
1.0000
  0
VERTEX
  8
21
 10
3.9652
 20
-3.0000
 30
0.0000
 42
-0.1139
  0
SEQEND
  8
0
  0
POLYLINE
  8
21
 66
1
 10
0.0000
 20
0.0000
 30
0.0000
 40
0.0000
 41
0.0000
 70
1
  0
VERTEX
  8
21
 10
6.5478
 20
2.0348
 30
0.0000
 42
1.0000
  0
VERTEX
  8
21
 10
6.5478
 20
3.0000
 30
0.0000
 42
0.3205
  0
VERTEX
  8
21
 10
3.9457
 20
1.1413
 30
0.0000
 42
1.0000
  0
VERTEX
  8
21
 10
4.8587
 20
0.8283
 30
0.0000
 42
-0.3205
  0
SEQEND
  8
0
  0
POLYLINE
  8
21
 66
1
 10
0.0000
 20
0.0000
 30
0.0000
 40
0.0000
 41
0.0000
 70
1
  0
VERTEX
  8
21
 10
8.2370
 20
0.8283
 30
0.0000
 42
1.0000
  0
VERTEX
  8
21
 10
9.1500
 20
1.1413
 30
0.0000
 42
0.3205
  0
VERTEX
  8
21
 10
6.5478
 20
3.0000
 30
0.0000
 42
1.0000
  0
VERTEX
  8
21
 10
6.5478
 20
2.0348
 30
0.0000
 42
-0.3205
  0
SEQEND
  8
0
  0
POLYLINE
  8
21
 66
1
 10
0.0000
 20
0.0000
 30
0.0000
 40
0.0000
 41
0.0000
 70
1
  0
VERTEX
  8
21
 10
9.1304
 20
-3.0000
 30
0.0000
 42
1.0000
  0
VERTEX
  8
21
 10
10.0956
 20
-3.0000
 30
0.0000
 42
0.1139
  0
VERTEX
  8
21
 10
9.1273
 20
1.1963
 30
0.0000
 42
1.0000
  0
VERTEX
  8
21
 10
8.2597
 20
0.7733
 30
0.0000
 42
-0.1139
  0
SEQEND
  8
0
  0
POLYLINE
  8
21
 66
1
 10
0.0000
 20
0.0000
 30
0.0000
 40
0.0000
 41
0.0000
 70
1
  0
VERTEX
  8
21
 10
3.9652
 20
-3.0000
 30
0.0000
 42
1.0000
  0
VERTEX
  8
21
 10
3.0000
 20
-3.0000
 30
0.0000
 42
0.1139
  0
VERTEX
  8
21
 10
3.9684
 20
-7.1963
 30
0.0000
 42
1.0000
  0
VERTEX
  8
21
 10
4.8360
 20
-6.7733
 30
0.0000
 42
-0.1139
  0
SEQEND
  8
0
  0
POLYLINE
  8
21
 66
1
 10
0.0000
 20
0.0000
 30
0.0000
 40
0.0000
 41
0.0000
 70
1
  0
VERTEX
  8
21
 10
4.8587
 20
-6.8283
 30
0.0000
 42
1.0000
  0
VERTEX
  8
21
 10
3.9456
 20
-7.1413
 30
0.0000
 42
0.3205
  0
VERTEX
  8
21
 10
6.5478
 20
-9.0000
 30
0.0000
 42
1.0000
  0
VERTEX
  8
21
 10
6.5478
 20
-8.0348
 30
0.0000
 42
-0.3205
  0
SEQEND
  8
0
  0
POLYLINE
  8
21
 66
1
 10
0.0000
 20
0.0000
 30
0.0000
 40
0.0000
 41
0.0000
 70
1
  0
VERTEX
  8
21
 10
8.2597
 20
-6.7733
 30
0.0000
 42
1.0000
  0
VERTEX
  8
21
 10
9.1273
 20
-7.1963
 30
0.0000
 42
0.1139
  0
VERTEX
  8
21
 10
10.0956
 20
-3.0000
 30
0.0000
 42
1.0000
  0
VERTEX
  8
21
 10
9.1304
 20
-3.0000
 30
0.0000
 42
-0.1139
  0
SEQEND
  8
0
  0
POLYLINE
  8
21
 66
1
 10
0.0000
 20
0.0000
 30
0.0000
 40
0.0000
 41
0.0000
 70
1
  0
VERTEX
  8
21
 10
6.5478
 20
-8.0348
 30
0.0000
 42
1.0000
  0
VERTEX
  8
21
 10
6.5478
 20
-9.0000
 30
0.0000
 42
0.3205
  0
VERTEX
  8
21
 10
9.1500
 20
-7.1413
 30
0.0000
 42
1.0000
  0
VERTEX
  8
21
 10
8.2370
 20
-6.8283
 30
0.0000
 42
-0.3205
  0
SEQEND
  8
0
  0
POLYLINE
  8
21
 66
1
 10
0.0000
 20
0.0000
 30
0.0000
 40
0.0000
 41
0.0000
 70
1
  0
VERTEX
  8
21
 10
4.4725
 20
-6.3667
 30
0.0000
  0
VERTEX
  8
21
 10
9.3768
 20
-0.2363
 30
0.0000
 42
1.0000
  0
VERTEX
  8
21
 10
8.6232
 20
0.3667
 30
0.0000
  0
VERTEX
  8
21
 10
3.7188
 20
-5.7637
 30
0.0000
 42
1.0000
  0
SEQEND
  8
0
  0
POLYLINE
  8
21
 66
1
 10
0.0000
 20
0.0000
 30
0.0000
 40
0.0000
 41
0.0000
 70
1
  0
VERTEX
  8
21
 10
13.0239
 20
-8.5174
 30
0.0000
  0
VERTEX
  8
21
 10
13.0239
 20
-7.9044
 30
0.0000
 42
1.0000
  0
VERTEX
  8
21
 10
12.0587
 20
-7.9044
 30
0.0000
  0
VERTEX
  8
21
 10
12.0587
 20
-8.5174
 30
0.0000
 42
1.0000
  0
SEQEND
  8
0
  0
POLYLINE
  8
21
 66
1
 10
0.0000
 20
0.0000
 30
0.0000
 40
0.0000
 41
0.0000
 70
1
  0
VERTEX
  8
21
 10
12.5413
 20
-8.3870
 30
0.0000
  0
VERTEX
  8
21
 10
13.1543
 20
-8.3870
 30
0.0000
 42
1.0000
  0
VERTEX
  8
21
 10
13.1543
 20
-7.4218
 30
0.0000
  0
VERTEX
  8
21
 10
12.5413
 20
-7.4218
 30
0.0000
 42
1.0000
  0
SEQEND
  8
0
  0
POLYLINE
  8
21
 66
1
 10
0.0000
 20
0.0000
 30
0.0000
 40
0.0000
 41
0.0000
 70
1
  0
VERTEX
  8
21
 10
12.6717
 20
-7.9044
 30
0.0000
  0
VERTEX
  8
21
 10
12.6717
 20
-8.5174
 30
0.0000
 42
1.0000
  0
VERTEX
  8
21
 10
13.6369
 20
-8.5174
 30
0.0000
  0
VERTEX
  8
21
 10
13.6369
 20
-7.9044
 30
0.0000
 42
1.0000
  0
SEQEND
  8
0
  0
POLYLINE
  8
21
 66
1
 10
0.0000
 20
0.0000
 30
0.0000
 40
0.0000
 41
0.0000
 70
1
  0
VERTEX
  8
21
 10
13.1543
 20
-8.0348
 30
0.0000
  0
VERTEX
  8
21
 10
12.5413
 20
-8.0348
 30
0.0000
 42
1.0000
  0
VERTEX
  8
21
 10
12.5413
 20
-9.0000
 30
0.0000
  0
VERTEX
  8
21
 10
13.1543
 20
-9.0000
 30
0.0000
 42
1.0000
  0
SEQEND
  8
0
  0
POLYLINE
  8
21
 66
1
 10
0.0000
 20
0.0000
 30
0.0000
 40
0.0000
 41
0.0000
 70
1
  0
VERTEX
  8
21
 10
17.4360
 20
0.7733
 30
0.0000
 42
1.0000
  0
VERTEX
  8
21
 10
16.5684
 20
1.1963
 30
0.0000
 42
0.1139
  0
VERTEX
  8
21
 10
15.6000
 20
-3.0000
 30
0.0000
 42
1.0000
  0
VERTEX
  8
21
 10
16.5652
 20
-3.0000
 30
0.0000
 42
-0.1139
  0
SEQEND
  8
0
  0
POLYLINE
  8
21
 66
1
 10
0.0000
 20
0.0000
 30
0.0000
 40
0.0000
 41
0.0000
 70
1
  0
VERTEX
  8
21
 10
19.1478
 20
2.0348
 30
0.0000
 42
1.0000
  0
VERTEX
  8
21
 10
19.1478
 20
3.0000
 30
0.0000
 42
0.3205
  0
VERTEX
  8
21
 10
16.5457
 20
1.1413
 30
0.0000
 42
1.0000
  0
VERTEX
  8
21
 10
17.4587
 20
0.8283
 30
0.0000
 42
-0.3205
  0
SEQEND
  8
0
  0
POLYLINE
  8
21
 66
1
 10
0.0000
 20
0.0000
 30
0.0000
 40
0.0000
 41
0.0000
 70
1
  0
VERTEX
  8
21
 10
20.8370
 20
0.8283
 30
0.0000
 42
1.0000
  0
VERTEX
  8
21
 10
21.7500
 20
1.1413
 30
0.0000
 42
0.3205
  0
VERTEX
  8
21
 10
19.1478
 20
3.0000
 30
0.0000
 42
1.0000
  0
VERTEX
  8
21
 10
19.1478
 20
2.0348
 30
0.0000
 42
-0.3205
  0
SEQEND
  8
0
  0
POLYLINE
  8
21
 66
1
 10
0.0000
 20
0.0000
 30
0.0000
 40
0.0000
 41
0.0000
 70
1
  0
VERTEX
  8
21
 10
21.7304
 20
-3.0000
 30
0.0000
 42
1.0000
  0
VERTEX
  8
21
 10
22.6956
 20
-3.0000
 30
0.0000
 42
0.1139
  0
VERTEX
  8
21
 10
21.7273
 20
1.1963
 30
0.0000
 42
1.0000
  0
VERTEX
  8
21
 10
20.8597
 20
0.7733
 30
0.0000
 42
-0.1139
  0
SEQEND
  8
0
  0
POLYLINE
  8
21
 66
1
 10
0.0000
 20
0.0000
 30
0.0000
 40
0.0000
 41
0.0000
 70
1
  0
VERTEX
  8
21
 10
16.5652
 20
-3.0000
 30
0.0000
 42
1.0000
  0
VERTEX
  8
21
 10
15.6000
 20
-3.0000
 30
0.0000
 42
0.1139
  0
VERTEX
  8
21
 10
16.5684
 20
-7.1963
 30
0.0000
 42
1.0000
  0
VERTEX
  8
21
 10
17.4360
 20
-6.7733
 30
0.0000
 42
-0.1139
  0
SEQEND
  8
0
  0
POLYLINE
  8
21
 66
1
 10
0.0000
 20
0.0000
 30
0.0000
 40
0.0000
 41
0.0000
 70
1
  0
VERTEX
  8
21
 10
17.4587
 20
-6.8283
 30
0.0000
 42
1.0000
  0
VERTEX
  8
21
 10
16.5456
 20
-7.1413
 30
0.0000
 42
0.3205
  0
VERTEX
  8
21
 10
19.1478
 20
-9.0000
 30
0.0000
 42
1.0000
  0
VERTEX
  8
21
 10
19.1478
 20
-8.0348
 30
0.0000
 42
-0.3205
  0
SEQEND
  8
0
  0
POLYLINE
  8
21
 66
1
 10
0.0000
 20
0.0000
 30
0.0000
 40
0.0000
 41
0.0000
 70
1
  0
VERTEX
  8
21
 10
20.8597
 20
-6.7733
 30
0.0000
 42
1.0000
  0
VERTEX
  8
21
 10
21.7273
 20
-7.1963
 30
0.0000
 42
0.1139
  0
VERTEX
  8
21
 10
22.6956
 20
-3.0000
 30
0.0000
 42
1.0000
  0
VERTEX
  8
21
 10
21.7304
 20
-3.0000
 30
0.0000
 42
-0.1139
  0
SEQEND
  8
0
  0
POLYLINE
  8
21
 66
1
 10
0.0000
 20
0.0000
 30
0.0000
 40
0.0000
 41
0.0000
 70
1
  0
VERTEX
  8
21
 10
19.1478
 20
-8.0348
 30
0.0000
 42
1.0000
  0
VERTEX
  8
21
 10
19.1478
 20
-9.0000
 30
0.0000
 42
0.3205
  0
VERTEX
  8
21
 10
21.7500
 20
-7.1413
 30
0.0000
 42
1.0000
  0
VERTEX
  8
21
 10
20.8370
 20
-6.8283
 30
0.0000
 42
-0.3205
  0
SEQEND
  8
0
  0
POLYLINE
  8
21
 66
1
 10
0.0000
 20
0.0000
 30
0.0000
 40
0.0000
 41
0.0000
 70
1
  0
VERTEX
  8
21
 10
17.0725
 20
-6.3667
 30
0.0000
  0
VERTEX
  8
21
 10
21.9768
 20
-0.2363
 30
0.0000
 42
1.0000
  0
VERTEX
  8
21
 10
21.2232
 20
0.3667
 30
0.0000
  0
VERTEX
  8
21
 10
16.3188
 20
-5.7637
 30
0.0000
 42
1.0000
  0
SEQEND
  8
0
  0
POLYLINE
  8
21
 66
1
 10
0.0000
 20
0.0000
 30
0.0000
 40
0.0000
 41
0.0000
 70
1
  0
VERTEX
  8
21
 10
26.4360
 20
0.7733
 30
0.0000
 42
1.0000
  0
VERTEX
  8
21
 10
25.5684
 20
1.1963
 30
0.0000
 42
0.1139
  0
VERTEX
  8
21
 10
24.6000
 20
-3.0000
 30
0.0000
 42
1.0000
  0
VERTEX
  8
21
 10
25.5652
 20
-3.0000
 30
0.0000
 42
-0.1139
  0
SEQEND
  8
0
  0
POLYLINE
  8
21
 66
1
 10
0.0000
 20
0.0000
 30
0.0000
 40
0.0000
 41
0.0000
 70
1
  0
VERTEX
  8
21
 10
28.1478
 20
2.0348
 30
0.0000
 42
1.0000
  0
VERTEX
  8
21
 10
28.1478
 20
3.0000
 30
0.0000
 42
0.3205
  0
VERTEX
  8
21
 10
25.5457
 20
1.1413
 30
0.0000
 42
1.0000
  0
VERTEX
  8
21
 10
26.4587
 20
0.8283
 30
0.0000
 42
-0.3205
  0
SEQEND
  8
0
  0
POLYLINE
  8
21
 66
1
 10
0.0000
 20
0.0000
 30
0.0000
 40
0.0000
 41
0.0000
 70
1
  0
VERTEX
  8
21
 10
29.8370
 20
0.8283
 30
0.0000
 42
1.0000
  0
VERTEX
  8
21
 10
30.7500
 20
1.1413
 30
0.0000
 42
0.3205
  0
VERTEX
  8
21
 10
28.1478
 20
3.0000
 30
0.0000
 42
1.0000
  0
VERTEX
  8
21
 10
28.1478
 20
2.0348
 30
0.0000
 42
-0.3205
  0
SEQEND
  8
0
  0
POLYLINE
  8
21
 66
1
 10
0.0000
 20
0.0000
 30
0.0000
 40
0.0000
 41
0.0000
 70
1
  0
VERTEX
  8
21
 10
30.7304
 20
-3.0000
 30
0.0000
 42
1.0000
  0
VERTEX
  8
21
 10
31.6956
 20
-3.0000
 30
0.0000
 42
0.1139
  0
VERTEX
  8
21
 10
30.7273
 20
1.1963
 30
0.0000
 42
1.0000
  0
VERTEX
  8
21
 10
29.8597
 20
0.7733
 30
0.0000
 42
-0.1139
  0
SEQEND
  8
0
  0
POLYLINE
  8
21
 66
1
 10
0.0000
 20
0.0000
 30
0.0000
 40
0.0000
 41
0.0000
 70
1
  0
VERTEX
  8
21
 10
25.5652
 20
-3.0000
 30
0.0000
 42
1.0000
  0
VERTEX
  8
21
 10
24.6000
 20
-3.0000
 30
0.0000
 42
0.1139
  0
VERTEX
  8
21
 10
25.5684
 20
-7.1963
 30
0.0000
 42
1.0000
  0
VERTEX
  8
21
 10
26.4360
 20
-6.7733
 30
0.0000
 42
-0.1139
  0
SEQEND
  8
0
  0
POLYLINE
  8
21
 66
1
 10
0.0000
 20
0.0000
 30
0.0000
 40
0.0000
 41
0.0000
 70
1
  0
VERTEX
  8
21
 10
26.4587
 20
-6.8283
 30
0.0000
 42
1.0000
  0
VERTEX
  8
21
 10
25.5456
 20
-7.1413
 30
0.0000
 42
0.3205
  0
VERTEX
  8
21
 10
28.1478
 20
-9.0000
 30
0.0000
 42
1.0000
  0
VERTEX
  8
21
 10
28.1478
 20
-8.0348
 30
0.0000
 42
-0.3205
  0
SEQEND
  8
0
  0
POLYLINE
  8
21
 66
1
 10
0.0000
 20
0.0000
 30
0.0000
 40
0.0000
 41
0.0000
 70
1
  0
VERTEX
  8
21
 10
29.8597
 20
-6.7733
 30
0.0000
 42
1.0000
  0
VERTEX
  8
21
 10
30.7273
 20
-7.1963
 30
0.0000
 42
0.1139
  0
VERTEX
  8
21
 10
31.6956
 20
-3.0000
 30
0.0000
 42
1.0000
  0
VERTEX
  8
21
 10
30.7304
 20
-3.0000
 30
0.0000
 42
-0.1139
  0
SEQEND
  8
0
  0
POLYLINE
  8
21
 66
1
 10
0.0000
 20
0.0000
 30
0.0000
 40
0.0000
 41
0.0000
 70
1
  0
VERTEX
  8
21
 10
28.1478
 20
-8.0348
 30
0.0000
 42
1.0000
  0
VERTEX
  8
21
 10
28.1478
 20
-9.0000
 30
0.0000
 42
0.3205
  0
VERTEX
  8
21
 10
30.7500
 20
-7.1413
 30
0.0000
 42
1.0000
  0
VERTEX
  8
21
 10
29.8370
 20
-6.8283
 30
0.0000
 42
-0.3205
  0
SEQEND
  8
0
  0
POLYLINE
  8
21
 66
1
 10
0.0000
 20
0.0000
 30
0.0000
 40
0.0000
 41
0.0000
 70
1
  0
VERTEX
  8
21
 10
26.0725
 20
-6.3667
 30
0.0000
  0
VERTEX
  8
21
 10
30.9768
 20
-0.2363
 30
0.0000
 42
1.0000
  0
VERTEX
  8
21
 10
30.2232
 20
0.3667
 30
0.0000
  0
VERTEX
  8
21
 10
25.3188
 20
-5.7637
 30
0.0000
 42
1.0000
  0
SEQEND
  8
0
  0
POLYLINE
  8
21
 66
1
 10
0.0000
 20
0.0000
 30
0.0000
 40
0.0000
 41
0.0000
 70
1
  0
VERTEX
  8
21
 10
36.0707
 20
2.6500
 30
0.0000
  0
VERTEX
  8
21
 10
33.6186
 20
-5.9326
 30
0.0000
 42
1.0000
  0
VERTEX
  8
21
 10
34.5466
 20
-6.1978
 30
0.0000
  0
VERTEX
  8
21
 10
36.9988
 20
2.3848
 30
0.0000
 42
1.0000
  0
SEQEND
  8
0
  0
POLYLINE
  8
21
 66
1
 10
0.0000
 20
0.0000
 30
0.0000
 40
0.0000
 41
0.0000
 70
1
  0
VERTEX
  8
21
 10
34.0826
 20
-6.5478
 30
0.0000
  0
VERTEX
  8
21
 10
40.2130
 20
-6.5478
 30
0.0000
 42
1.0000
  0
VERTEX
  8
21
 10
40.2130
 20
-5.5826
 30
0.0000
  0
VERTEX
  8
21
 10
34.0826
 20
-5.5826
 30
0.0000
 42
1.0000
  0
SEQEND
  8
0
  0
POLYLINE
  8
21
 66
1
 10
0.0000
 20
0.0000
 30
0.0000
 40
0.0000
 41
0.0000
 70
1
  0
VERTEX
  8
21
 10
37.8913
 20
-3.6130
 30
0.0000
  0
VERTEX
  8
21
 10
37.8913
 20
-8.5174
 30
0.0000
 42
1.0000
  0
VERTEX
  8
21
 10
38.8565
 20
-8.5174
 30
0.0000
  0
VERTEX
  8
21
 10
38.8565
 20
-3.6130
 30
0.0000
 42
1.0000
  0
SEQEND
  8
0
  0
POLYLINE
  8
21
 66
1
 10
0.0000
 20
0.0000
 30
0.0000
 40
0.0000
 41
0.0000
 70
1
  0
VERTEX
  8
21
 10
42.9274
 20
-8.6700
 30
0.0000
  0
VERTEX
  8
21
 10
46.6057
 20
2.3648
 30
0.0000
 42
1.0000
  0
VERTEX
  8
21
 10
45.6900
 20
2.6700
 30
0.0000
  0
VERTEX
  8
21
 10
42.0117
 20
-8.3648
 30
0.0000
 42
1.0000
  0
SEQEND
  8
0
  0
POLYLINE
  8
21
 66
1
 10
0.0000
 20
0.0000
 30
0.0000
 40
0.0000
 41
0.0000
 70
1
  0
VERTEX
  8
21
 10
45.6900
 20
2.3648
 30
0.0000
  0
VERTEX
  8
21
 10
49.3683
 20
-8.6700
 30
0.0000
 42
1.0000
  0
VERTEX
  8
21
 10
50.2839
 20
-8.3648
 30
0.0000
  0
VERTEX
  8
21
 10
46.6057
 20
2.6700
 30
0.0000
 42
1.0000
  0
SEQEND
  8
0
  0
POLYLINE
  8
21
 66
1
 10
0.0000
 20
0.0000
 30
0.0000
 40
0.0000
 41
0.0000
 70
1
  0
VERTEX
  8
21
 10
48.9065
 20
-5.2761
 30
0.0000
  0
VERTEX
  8
21
 10
43.3891
 20
-5.2761
 30
0.0000
 42
1.0000
  0
VERTEX
  8
21
 10
43.3891
 20
-6.2413
 30
0.0000
  0
VERTEX
  8
21
 10
48.9065
 20
-6.2413
 30
0.0000
 42
1.0000
  0
SEQEND
  8
0
  0
POLYLINE
  8
21
 66
1
 10
0.0000
 20
0.0000
 30
0.0000
 40
0.0000
 41
0.0000
 70
1
  0
VERTEX
  8
21
 10
3.2286
 20
6.1143
 30
0.0000
  0
VERTEX
  8
21
 10
3.2286
 20
8.8857
 30
0.0000
 42
1.0000
  0
VERTEX
  8
21
 10
3.0000
 20
8.8857
 30
0.0000
  0
VERTEX
  8
21
 10
3.0000
 20
6.1143
 30
0.0000
 42
1.0000
  0
SEQEND
  8
0
  0
POLYLINE
  8
21
 66
1
 10
0.0000
 20
0.0000
 30
0.0000
 40
0.0000
 41
0.0000
 70
1
  0
VERTEX
  8
21
 10
3.0163
 20
8.8269
 30
0.0000
  0
VERTEX
  8
21
 10
3.9401
 20
7.2872
 30
0.0000
 42
1.0000
  0
VERTEX
  8
21
 10
4.1361
 20
7.4048
 30
0.0000
  0
VERTEX
  8
21
 10
3.2123
 20
8.9445
 30
0.0000
 42
1.0000
  0
SEQEND
  8
0
  0
POLYLINE
  8
21
 66
1
 10
0.0000
 20
0.0000
 30
0.0000
 40
0.0000
 41
0.0000
 70
1
  0
VERTEX
  8
21
 10
4.1361
 20
7.2872
 30
0.0000
  0
VERTEX
  8
21
 10
5.0599
 20
8.8269
 30
0.0000
 42
1.0000
  0
VERTEX
  8
21
 10
4.8639
 20
8.9445
 30
0.0000
  0
VERTEX
  8
21
 10
3.9401
 20
7.4048
 30
0.0000
 42
1.0000
  0
SEQEND
  8
0
  0
POLYLINE
  8
21
 66
1
 10
0.0000
 20
0.0000
 30
0.0000
 40
0.0000
 41
0.0000
 70
1
  0
VERTEX
  8
21
 10
4.8476
 20
8.8857
 30
0.0000
  0
VERTEX
  8
21
 10
4.8476
 20
6.1143
 30
0.0000
 42
1.0000
  0
VERTEX
  8
21
 10
5.0762
 20
6.1143
 30
0.0000
  0
VERTEX
  8
21
 10
5.0762
 20
8.8857
 30
0.0000
 42
1.0000
  0
SEQEND
  8
0
  0
POLYLINE
  8
21
 66
1
 10
0.0000
 20
0.0000
 30
0.0000
 40
0.0000
 41
0.0000
 70
1
  0
VERTEX
  8
21
 10
7.1785
 20
6.2286
 30
0.0000
  0
VERTEX
  8
21
 10
5.9468
 20
6.2286
 30
0.0000
 42
1.0000
  0
VERTEX
  8
21
 10
5.9468
 20
6.0000
 30
0.0000
  0
VERTEX
  8
21
 10
7.1785
 20
6.0000
 30
0.0000
 42
1.0000
  0
SEQEND
  8
0
  0
POLYLINE
  8
21
 66
1
 10
0.0000
 20
0.0000
 30
0.0000
 40
0.0000
 41
0.0000
 70
1
  0
VERTEX
  8
21
 10
6.0611
 20
6.1143
 30
0.0000
  0
VERTEX
  8
21
 10
6.0611
 20
8.8857
 30
0.0000
 42
1.0000
  0
VERTEX
  8
21
 10
5.8325
 20
8.8857
 30
0.0000
  0
VERTEX
  8
21
 10
5.8325
 20
6.1143
 30
0.0000
 42
1.0000
  0
SEQEND
  8
0
  0
POLYLINE
  8
21
 66
1
 10
0.0000
 20
0.0000
 30
0.0000
 40
0.0000
 41
0.0000
 70
1
  0
VERTEX
  8
21
 10
5.9468
 20
8.7714
 30
0.0000
  0
VERTEX
  8
21
 10
7.1785
 20
8.7714
 30
0.0000
 42
1.0000
  0
VERTEX
  8
21
 10
7.1785
 20
9.0000
 30
0.0000
  0
VERTEX
  8
21
 10
5.9468
 20
9.0000
 30
0.0000
 42
1.0000
  0
SEQEND
  8
0
  0
POLYLINE
  8
21
 66
1
 10
0.0000
 20
0.0000
 30
0.0000
 40
0.0000
 41
0.0000
 70
1
  0
VERTEX
  8
21
 10
5.9468
 20
7.5397
 30
0.0000
  0
VERTEX
  8
21
 10
6.8706
 20
7.5397
 30
0.0000
 42
1.0000
  0
VERTEX
  8
21
 10
6.8706
 20
7.7683
 30
0.0000
  0
VERTEX
  8
21
 10
5.9468
 20
7.7683
 30
0.0000
 42
1.0000
  0
SEQEND
  8
0
  0
POLYLINE
  8
21
 66
1
 10
0.0000
 20
0.0000
 30
0.0000
 40
0.0000
 41
0.0000
 70
1
  0
VERTEX
  8
21
 10
7.8690
 20
6.0782
 30
0.0000
  0
VERTEX
  8
21
 10
8.7928
 20
8.8496
 30
0.0000
 42
1.0000
  0
VERTEX
  8
21
 10
8.5759
 20
8.9218
 30
0.0000
  0
VERTEX
  8
21
 10
7.6521
 20
6.1504
 30
0.0000
 42
1.0000
  0
SEQEND
  8
0
  0
POLYLINE
  8
21
 66
1
 10
0.0000
 20
0.0000
 30
0.0000
 40
0.0000
 41
0.0000
 70
1
  0
VERTEX
  8
21
 10
8.5759
 20
8.8496
 30
0.0000
  0
VERTEX
  8
21
 10
9.4997
 20
6.0782
 30
0.0000
 42
1.0000
  0
VERTEX
  8
21
 10
9.7166
 20
6.1504
 30
0.0000
  0
VERTEX
  8
21
 10
8.7928
 20
8.9218
 30
0.0000
 42
1.0000
  0
SEQEND
  8
0
  0
POLYLINE
  8
21
 66
1
 10
0.0000
 20
0.0000
 30
0.0000
 40
0.0000
 41
0.0000
 70
1
  0
VERTEX
  8
21
 10
9.3772
 20
6.9215
 30
0.0000
  0
VERTEX
  8
21
 10
7.9915
 20
6.9215
 30
0.0000
 42
1.0000
  0
VERTEX
  8
21
 10
7.9915
 20
6.6928
 30
0.0000
  0
VERTEX
  8
21
 10
9.3772
 20
6.6928
 30
0.0000
 42
1.0000
  0
SEQEND
  8
0
  0
POLYLINE
  8
21
 66
1
 10
0.0000
 20
0.0000
 30
0.0000
 40
0.0000
 41
0.0000
 70
1
  0
VERTEX
  8
21
 10
11.1220
 20
6.2286
 30
0.0000
 42
1.0000
  0
VERTEX
  8
21
 10
11.1220
 20
6.0000
 30
0.0000
 42
0.4142
  0
VERTEX
  8
21
 10
11.8522
 20
6.7302
 30
0.0000
 42
1.0000
  0
VERTEX
  8
21
 10
11.6236
 20
6.7302
 30
0.0000
 42
-0.4142
  0
SEQEND
  8
0
  0
POLYLINE
  8
21
 66
1
 10
0.0000
 20
0.0000
 30
0.0000
 40
0.0000
 41
0.0000
 70
1
  0
VERTEX
  8
21
 10
10.2794
 20
6.5797
 30
0.0000
 42
1.0000
  0
VERTEX
  8
21
 10
10.1171
 20
6.4187
 30
0.0000
 42
0.2000
  0
VERTEX
  8
21
 10
11.1220
 20
6.0000
 30
0.0000
 42
1.0000
  0
VERTEX
  8
21
 10
11.1220
 20
6.2286
 30
0.0000
 42
-0.2000
  0
SEQEND
  8
0
  0
POLYLINE
  8
21
 66
1
 10
0.0000
 20
0.0000
 30
0.0000
 40
0.0000
 41
0.0000
 70
1
  0
VERTEX
  8
21
 10
10.8911
 20
8.7714
 30
0.0000
 42
1.0000
  0
VERTEX
  8
21
 10
10.8911
 20
9.0000
 30
0.0000
 42
0.4142
  0
VERTEX
  8
21
 10
10.1609
 20
8.2698
 30
0.0000
 42
1.0000
  0
VERTEX
  8
21
 10
10.3895
 20
8.2698
 30
0.0000
 42
-0.4142
  0
SEQEND
  8
0
  0
POLYLINE
  8
21
 66
1
 10
0.0000
 20
0.0000
 30
0.0000
 40
0.0000
 41
0.0000
 70
1
  0
VERTEX
  8
21
 10
11.5154
 20
8.5633
 30
0.0000
 42
1.0000
  0
VERTEX
  8
21
 10
11.6525
 20
8.7462
 30
0.0000
 42
0.1623
  0
VERTEX
  8
21
 10
10.8911
 20
9.0000
 30
0.0000
 42
1.0000
  0
VERTEX
  8
21
 10
10.8911
 20
8.7714
 30
0.0000
 42
-0.1623
  0
SEQEND
  8
0
  0
POLYLINE
  8
21
 66
1
 10
0.0000
 20
0.0000
 30
0.0000
 40
0.0000
 41
0.0000
 70
1
  0
VERTEX
  8
21
 10
10.3895
 20
8.2698
 30
0.0000
 42
1.0000
  0
VERTEX
  8
21
 10
10.1609
 20
8.2698
 30
0.0000
 42
0.2656
  0
VERTEX
  8
21
 10
10.5251
 20
7.6325
 30
0.0000
 42
1.0000
  0
VERTEX
  8
21
 10
10.6412
 20
7.8294
 30
0.0000
 42
-0.2656
  0
SEQEND
  8
0
  0
POLYLINE
  8
21
 66
1
 10
0.0000
 20
0.0000
 30
0.0000
 40
0.0000
 41
0.0000
 70
1
  0
VERTEX
  8
21
 10
11.6236
 20
6.7302
 30
0.0000
 42
1.0000
  0
VERTEX
  8
21
 10
11.8522
 20
6.7302
 30
0.0000
 42
0.2656
  0
VERTEX
  8
21
 10
11.4880
 20
7.3675
 30
0.0000
 42
1.0000
  0
VERTEX
  8
21
 10
11.3719
 20
7.1706
 30
0.0000
 42
-0.2656
  0
SEQEND
  8
0
  0
POLYLINE
  8
21
 66
1
 10
0.0000
 20
0.0000
 30
0.0000
 40
0.0000
 41
0.0000
 70
1
  0
VERTEX
  8
21
 10
11.4847
 20
7.3694
 30
0.0000
  0
VERTEX
  8
21
 10
10.6379
 20
7.8313
 30
0.0000
 42
1.0000
  0
VERTEX
  8
21
 10
10.5284
 20
7.6306
 30
0.0000
  0
VERTEX
  8
21
 10
11.3752
 20
7.1687
 30
0.0000
 42
1.0000
  0
SEQEND
  8
0
  0
POLYLINE
  8
21
 66
1
 10
0.0000
 20
0.0000
 30
0.0000
 40
0.0000
 41
0.0000
 70
1
  0
VERTEX
  8
21
 10
12.4464
 20
8.8857
 30
0.0000
  0
VERTEX
  8
21
 10
12.4464
 20
6.8841
 30
0.0000
 42
1.0000
  0
VERTEX
  8
21
 10
12.6750
 20
6.8841
 30
0.0000
  0
VERTEX
  8
21
 10
12.6750
 20
8.8857
 30
0.0000
 42
1.0000
  0
SEQEND
  8
0
  0
POLYLINE
  8
21
 66
1
 10
0.0000
 20
0.0000
 30
0.0000
 40
0.0000
 41
0.0000
 70
1
  0
VERTEX
  8
21
 10
12.6750
 20
6.8841
 30
0.0000
 42
1.0000
  0
VERTEX
  8
21
 10
12.4464
 20
6.8841
 30
0.0000
 42
1.0000
  0
VERTEX
  8
21
 10
14.2147
 20
6.8841
 30
0.0000
 42
1.0000
  0
VERTEX
  8
21
 10
13.9861
 20
6.8841
 30
0.0000
 42
-1.0000
  0
SEQEND
  8
0
  0
POLYLINE
  8
21
 66
1
 10
0.0000
 20
0.0000
 30
0.0000
 40
0.0000
 41
0.0000
 70
1
  0
VERTEX
  8
21
 10
14.2147
 20
6.8841
 30
0.0000
  0
VERTEX
  8
21
 10
14.2147
 20
8.8857
 30
0.0000
 42
1.0000
  0
VERTEX
  8
21
 10
13.9861
 20
8.8857
 30
0.0000
  0
VERTEX
  8
21
 10
13.9861
 20
6.8841
 30
0.0000
 42
1.0000
  0
SEQEND
  8
0
  0
POLYLINE
  8
21
 66
1
 10
0.0000
 20
0.0000
 30
0.0000
 40
0.0000
 41
0.0000
 70
1
  0
VERTEX
  8
21
 10
15.1975
 20
6.1143
 30
0.0000
  0
VERTEX
  8
21
 10
15.1975
 20
8.8857
 30
0.0000
 42
1.0000
  0
VERTEX
  8
21
 10
14.9689
 20
8.8857
 30
0.0000
  0
VERTEX
  8
21
 10
14.9689
 20
6.1143
 30
0.0000
 42
1.0000
  0
SEQEND
  8
0
  0
POLYLINE
  8
21
 66
1
 10
0.0000
 20
0.0000
 30
0.0000
 40
0.0000
 41
0.0000
 70
1
  0
VERTEX
  8
21
 10
15.0832
 20
8.7714
 30
0.0000
  0
VERTEX
  8
21
 10
15.8530
 20
8.7714
 30
0.0000
 42
1.0000
  0
VERTEX
  8
21
 10
15.8530
 20
9.0000
 30
0.0000
  0
VERTEX
  8
21
 10
15.0832
 20
9.0000
 30
0.0000
 42
1.0000
  0
SEQEND
  8
0
  0
POLYLINE
  8
21
 66
1
 10
0.0000
 20
0.0000
 30
0.0000
 40
0.0000
 41
0.0000
 70
1
  0
VERTEX
  8
21
 10
15.8530
 20
7.4603
 30
0.0000
 42
1.0000
  0
VERTEX
  8
21
 10
15.8530
 20
7.2317
 30
0.0000
 42
1.0000
  0
VERTEX
  8
21
 10
15.8530
 20
9.0000
 30
0.0000
 42
1.0000
  0
VERTEX
  8
21
 10
15.8530
 20
8.7714
 30
0.0000
 42
-1.0000
  0
SEQEND
  8
0
  0
POLYLINE
  8
21
 66
1
 10
0.0000
 20
0.0000
 30
0.0000
 40
0.0000
 41
0.0000
 70
1
  0
VERTEX
  8
21
 10
15.8530
 20
7.4603
 30
0.0000
  0
VERTEX
  8
21
 10
15.0832
 20
7.4603
 30
0.0000
 42
1.0000
  0
VERTEX
  8
21
 10
15.0832
 20
7.2317
 30
0.0000
  0
VERTEX
  8
21
 10
15.8530
 20
7.2317
 30
0.0000
 42
1.0000
  0
SEQEND
  8
0
  0
POLYLINE
  8
21
 66
1
 10
0.0000
 20
0.0000
 30
0.0000
 40
0.0000
 41
0.0000
 70
1
  0
VERTEX
  8
21
 10
16.7251
 20
6.1654
 30
0.0000
  0
VERTEX
  8
21
 10
16.1092
 20
7.3971
 30
0.0000
 42
1.0000
  0
VERTEX
  8
21
 10
15.9048
 20
7.2949
 30
0.0000
  0
VERTEX
  8
21
 10
16.5206
 20
6.0632
 30
0.0000
 42
1.0000
  0
SEQEND
  8
0
  0
POLYLINE
  8
21
 66
1
 10
0.0000
 20
0.0000
 30
0.0000
 40
0.0000
 41
0.0000
 70
1
  0
VERTEX
  8
21
 10
18.7547
 20
6.2286
 30
0.0000
  0
VERTEX
  8
21
 10
17.5230
 20
6.2286
 30
0.0000
 42
1.0000
  0
VERTEX
  8
21
 10
17.5230
 20
6.0000
 30
0.0000
  0
VERTEX
  8
21
 10
18.7547
 20
6.0000
 30
0.0000
 42
1.0000
  0
SEQEND
  8
0
  0
POLYLINE
  8
21
 66
1
 10
0.0000
 20
0.0000
 30
0.0000
 40
0.0000
 41
0.0000
 70
1
  0
VERTEX
  8
21
 10
17.6373
 20
6.1143
 30
0.0000
  0
VERTEX
  8
21
 10
17.6373
 20
8.8857
 30
0.0000
 42
1.0000
  0
VERTEX
  8
21
 10
17.4087
 20
8.8857
 30
0.0000
  0
VERTEX
  8
21
 10
17.4087
 20
6.1143
 30
0.0000
 42
1.0000
  0
SEQEND
  8
0
  0
POLYLINE
  8
21
 66
1
 10
0.0000
 20
0.0000
 30
0.0000
 40
0.0000
 41
0.0000
 70
1
  0
VERTEX
  8
21
 10
17.5230
 20
8.7714
 30
0.0000
  0
VERTEX
  8
21
 10
18.7547
 20
8.7714
 30
0.0000
 42
1.0000
  0
VERTEX
  8
21
 10
18.7547
 20
9.0000
 30
0.0000
  0
VERTEX
  8
21
 10
17.5230
 20
9.0000
 30
0.0000
 42
1.0000
  0
SEQEND
  8
0
  0
POLYLINE
  8
21
 66
1
 10
0.0000
 20
0.0000
 30
0.0000
 40
0.0000
 41
0.0000
 70
1
  0
VERTEX
  8
21
 10
17.5230
 20
7.5397
 30
0.0000
  0
VERTEX
  8
21
 10
18.4468
 20
7.5397
 30
0.0000
 42
1.0000
  0
VERTEX
  8
21
 10
18.4468
 20
7.7683
 30
0.0000
  0
VERTEX
  8
21
 10
17.5230
 20
7.7683
 30
0.0000
 42
1.0000
  0
SEQEND
  8
0
  0
POLYLINE
  8
21
 66
1
 10
0.0000
 20
0.0000
 30
0.0000
 40
0.0000
 41
0.0000
 70
1
  0
VERTEX
  8
21
 10
19.6838
 20
6.1143
 30
0.0000
  0
VERTEX
  8
21
 10
19.6838
 20
8.8857
 30
0.0000
 42
1.0000
  0
VERTEX
  8
21
 10
19.4552
 20
8.8857
 30
0.0000
  0
VERTEX
  8
21
 10
19.4552
 20
6.1143
 30
0.0000
 42
1.0000
  0
SEQEND
  8
0
  0
POLYLINE
  8
21
 66
1
 10
0.0000
 20
0.0000
 30
0.0000
 40
0.0000
 41
0.0000
 70
1
  0
VERTEX
  8
21
 10
19.5695
 20
8.7714
 30
0.0000
  0
VERTEX
  8
21
 10
20.3393
 20
8.7714
 30
0.0000
 42
1.0000
  0
VERTEX
  8
21
 10
20.3393
 20
9.0000
 30
0.0000
  0
VERTEX
  8
21
 10
19.5695
 20
9.0000
 30
0.0000
 42
1.0000
  0
SEQEND
  8
0
  0
POLYLINE
  8
21
 66
1
 10
0.0000
 20
0.0000
 30
0.0000
 40
0.0000
 41
0.0000
 70
1
  0
VERTEX
  8
21
 10
20.9948
 20
8.1159
 30
0.0000
 42
1.0000
  0
VERTEX
  8
21
 10
21.2234
 20
8.1159
 30
0.0000
 42
0.4142
  0
VERTEX
  8
21
 10
20.3393
 20
9.0000
 30
0.0000
 42
1.0000
  0
VERTEX
  8
21
 10
20.3393
 20
8.7714
 30
0.0000
 42
-0.4142
  0
SEQEND
  8
0
  0
POLYLINE
  8
21
 66
1
 10
0.0000
 20
0.0000
 30
0.0000
 40
0.0000
 41
0.0000
 70
1
  0
VERTEX
  8
21
 10
20.9948
 20
8.1159
 30
0.0000
  0
VERTEX
  8
21
 10
20.9948
 20
6.8841
 30
0.0000
 42
1.0000
  0
VERTEX
  8
21
 10
21.2234
 20
6.8841
 30
0.0000
  0
VERTEX
  8
21
 10
21.2234
 20
8.1159
 30
0.0000
 42
1.0000
  0
SEQEND
  8
0
  0
POLYLINE
  8
21
 66
1
 10
0.0000
 20
0.0000
 30
0.0000
 40
0.0000
 41
0.0000
 70
1
  0
VERTEX
  8
21
 10
20.3393
 20
6.2286
 30
0.0000
 42
1.0000
  0
VERTEX
  8
21
 10
20.3393
 20
6.0000
 30
0.0000
 42
0.4142
  0
VERTEX
  8
21
 10
21.2234
 20
6.8841
 30
0.0000
 42
1.0000
  0
VERTEX
  8
21
 10
20.9948
 20
6.8841
 30
0.0000
 42
-0.4142
  0
SEQEND
  8
0
  0
POLYLINE
  8
21
 66
1
 10
0.0000
 20
0.0000
 30
0.0000
 40
0.0000
 41
0.0000
 70
1
  0
VERTEX
  8
21
 10
20.3393
 20
6.2286
 30
0.0000
  0
VERTEX
  8
21
 10
19.5695
 20
6.2286
 30
0.0000
 42
1.0000
  0
VERTEX
  8
21
 10
19.5695
 20
6.0000
 30
0.0000
  0
VERTEX
  8
21
 10
20.3393
 20
6.0000
 30
0.0000
 42
1.0000
  0
SEQEND
  8
0
  0
POLYLINE
  8
21
 66
1
 10
0.0000
 20
0.0000
 30
0.0000
 40
0.0000
 41
0.0000
 70
1
  0
VERTEX
  8
21
 10
24.5016
 20
6.2286
 30
0.0000
  0
VERTEX
  8
21
 10
23.8858
 20
6.2286
 30
0.0000
 42
1.0000
  0
VERTEX
  8
21
 10
23.8858
 20
6.0000
 30
0.0000
  0
VERTEX
  8
21
 10
24.5016
 20
6.0000
 30
0.0000
 42
1.0000
  0
SEQEND
  8
0
  0
POLYLINE
  8
21
 66
1
 10
0.0000
 20
0.0000
 30
0.0000
 40
0.0000
 41
0.0000
 70
1
  0
VERTEX
  8
21
 10
23.3842
 20
6.7302
 30
0.0000
 42
1.0000
  0
VERTEX
  8
21
 10
23.1556
 20
6.7302
 30
0.0000
 42
0.4142
  0
VERTEX
  8
21
 10
23.8858
 20
6.0000
 30
0.0000
 42
1.0000
  0
VERTEX
  8
21
 10
23.8858
 20
6.2286
 30
0.0000
 42
-0.4142
  0
SEQEND
  8
0
  0
POLYLINE
  8
21
 66
1
 10
0.0000
 20
0.0000
 30
0.0000
 40
0.0000
 41
0.0000
 70
1
  0
VERTEX
  8
21
 10
23.3842
 20
6.7302
 30
0.0000
  0
VERTEX
  8
21
 10
23.3842
 20
8.2698
 30
0.0000
 42
1.0000
  0
VERTEX
  8
21
 10
23.1556
 20
8.2698
 30
0.0000
  0
VERTEX
  8
21
 10
23.1556
 20
6.7302
 30
0.0000
 42
1.0000
  0
SEQEND
  8
0
  0
POLYLINE
  8
21
 66
1
 10
0.0000
 20
0.0000
 30
0.0000
 40
0.0000
 41
0.0000
 70
1
  0
VERTEX
  8
21
 10
23.8858
 20
8.7714
 30
0.0000
 42
1.0000
  0
VERTEX
  8
21
 10
23.8858
 20
9.0000
 30
0.0000
 42
0.4142
  0
VERTEX
  8
21
 10
23.1556
 20
8.2698
 30
0.0000
 42
1.0000
  0
VERTEX
  8
21
 10
23.3842
 20
8.2698
 30
0.0000
 42
-0.4142
  0
SEQEND
  8
0
  0
POLYLINE
  8
21
 66
1
 10
0.0000
 20
0.0000
 30
0.0000
 40
0.0000
 41
0.0000
 70
1
  0
VERTEX
  8
21
 10
23.8858
 20
8.7714
 30
0.0000
  0
VERTEX
  8
21
 10
24.5016
 20
8.7714
 30
0.0000
 42
1.0000
  0
VERTEX
  8
21
 10
24.5016
 20
9.0000
 30
0.0000
  0
VERTEX
  8
21
 10
23.8858
 20
9.0000
 30
0.0000
 42
1.0000
  0
SEQEND
  8
0
  0
POLYLINE
  8
21
 66
1
 10
0.0000
 20
0.0000
 30
0.0000
 40
0.0000
 41
0.0000
 70
1
  0
VERTEX
  8
21
 10
25.2039
 20
8.8857
 30
0.0000
  0
VERTEX
  8
21
 10
25.2039
 20
6.8841
 30
0.0000
 42
1.0000
  0
VERTEX
  8
21
 10
25.4325
 20
6.8841
 30
0.0000
  0
VERTEX
  8
21
 10
25.4325
 20
8.8857
 30
0.0000
 42
1.0000
  0
SEQEND
  8
0
  0
POLYLINE
  8
21
 66
1
 10
0.0000
 20
0.0000
 30
0.0000
 40
0.0000
 41
0.0000
 70
1
  0
VERTEX
  8
21
 10
25.4325
 20
6.8841
 30
0.0000
 42
1.0000
  0
VERTEX
  8
21
 10
25.2039
 20
6.8841
 30
0.0000
 42
1.0000
  0
VERTEX
  8
21
 10
26.9722
 20
6.8841
 30
0.0000
 42
1.0000
  0
VERTEX
  8
21
 10
26.7436
 20
6.8841
 30
0.0000
 42
-1.0000
  0
SEQEND
  8
0
  0
POLYLINE
  8
21
 66
1
 10
0.0000
 20
0.0000
 30
0.0000
 40
0.0000
 41
0.0000
 70
1
  0
VERTEX
  8
21
 10
26.9722
 20
6.8841
 30
0.0000
  0
VERTEX
  8
21
 10
26.9722
 20
8.8857
 30
0.0000
 42
1.0000
  0
VERTEX
  8
21
 10
26.7436
 20
8.8857
 30
0.0000
  0
VERTEX
  8
21
 10
26.7436
 20
6.8841
 30
0.0000
 42
1.0000
  0
SEQEND
  8
0
  0
POLYLINE
  8
21
 66
1
 10
0.0000
 20
0.0000
 30
0.0000
 40
0.0000
 41
0.0000
 70
1
  0
VERTEX
  8
21
 10
27.9549
 20
6.1143
 30
0.0000
  0
VERTEX
  8
21
 10
27.9549
 20
8.8857
 30
0.0000
 42
1.0000
  0
VERTEX
  8
21
 10
27.7263
 20
8.8857
 30
0.0000
  0
VERTEX
  8
21
 10
27.7263
 20
6.1143
 30
0.0000
 42
1.0000
  0
SEQEND
  8
0
  0
POLYLINE
  8
21
 66
1
 10
0.0000
 20
0.0000
 30
0.0000
 40
0.0000
 41
0.0000
 70
1
  0
VERTEX
  8
21
 10
27.8406
 20
8.7714
 30
0.0000
  0
VERTEX
  8
21
 10
28.6105
 20
8.7714
 30
0.0000
 42
1.0000
  0
VERTEX
  8
21
 10
28.6105
 20
9.0000
 30
0.0000
  0
VERTEX
  8
21
 10
27.8406
 20
9.0000
 30
0.0000
 42
1.0000
  0
SEQEND
  8
0
  0
POLYLINE
  8
21
 66
1
 10
0.0000
 20
0.0000
 30
0.0000
 40
0.0000
 41
0.0000
 70
1
  0
VERTEX
  8
21
 10
28.6105
 20
7.4603
 30
0.0000
 42
1.0000
  0
VERTEX
  8
21
 10
28.6105
 20
7.2317
 30
0.0000
 42
1.0000
  0
VERTEX
  8
21
 10
28.6105
 20
9.0000
 30
0.0000
 42
1.0000
  0
VERTEX
  8
21
 10
28.6105
 20
8.7714
 30
0.0000
 42
-1.0000
  0
SEQEND
  8
0
  0
POLYLINE
  8
21
 66
1
 10
0.0000
 20
0.0000
 30
0.0000
 40
0.0000
 41
0.0000
 70
1
  0
VERTEX
  8
21
 10
28.6105
 20
7.4603
 30
0.0000
  0
VERTEX
  8
21
 10
27.8406
 20
7.4603
 30
0.0000
 42
1.0000
  0
VERTEX
  8
21
 10
27.8406
 20
7.2317
 30
0.0000
  0
VERTEX
  8
21
 10
28.6105
 20
7.2317
 30
0.0000
 42
1.0000
  0
SEQEND
  8
0
  0
POLYLINE
  8
21
 66
1
 10
0.0000
 20
0.0000
 30
0.0000
 40
0.0000
 41
0.0000
 70
1
  0
VERTEX
  8
21
 10
29.4825
 20
6.1654
 30
0.0000
  0
VERTEX
  8
21
 10
28.8667
 20
7.3971
 30
0.0000
 42
1.0000
  0
VERTEX
  8
21
 10
28.6622
 20
7.2949
 30
0.0000
  0
VERTEX
  8
21
 10
29.2781
 20
6.0632
 30
0.0000
 42
1.0000
  0
SEQEND
  8
0
  0
POLYLINE
  8
21
 66
1
 10
0.0000
 20
0.0000
 30
0.0000
 40
0.0000
 41
0.0000
 70
1
  0
VERTEX
  8
21
 10
30.3962
 20
6.1143
 30
0.0000
  0
VERTEX
  8
21
 10
30.3962
 20
8.8857
 30
0.0000
 42
1.0000
  0
VERTEX
  8
21
 10
30.1676
 20
8.8857
 30
0.0000
  0
VERTEX
  8
21
 10
30.1676
 20
6.1143
 30
0.0000
 42
1.0000
  0
SEQEND
  8
0
  0
POLYLINE
  8
21
 66
1
 10
0.0000
 20
0.0000
 30
0.0000
 40
0.0000
 41
0.0000
 70
1
  0
VERTEX
  8
21
 10
30.2819
 20
8.7714
 30
0.0000
  0
VERTEX
  8
21
 10
31.0517
 20
8.7714
 30
0.0000
 42
1.0000
  0
VERTEX
  8
21
 10
31.0517
 20
9.0000
 30
0.0000
  0
VERTEX
  8
21
 10
30.2819
 20
9.0000
 30
0.0000
 42
1.0000
  0
SEQEND
  8
0
  0
POLYLINE
  8
21
 66
1
 10
0.0000
 20
0.0000
 30
0.0000
 40
0.0000
 41
0.0000
 70
1
  0
VERTEX
  8
21
 10
31.0517
 20
7.4603
 30
0.0000
 42
1.0000
  0
VERTEX
  8
21
 10
31.0517
 20
7.2317
 30
0.0000
 42
1.0000
  0
VERTEX
  8
21
 10
31.0517
 20
9.0000
 30
0.0000
 42
1.0000
  0
VERTEX
  8
21
 10
31.0517
 20
8.7714
 30
0.0000
 42
-1.0000
  0
SEQEND
  8
0
  0
POLYLINE
  8
21
 66
1
 10
0.0000
 20
0.0000
 30
0.0000
 40
0.0000
 41
0.0000
 70
1
  0
VERTEX
  8
21
 10
31.0517
 20
7.4603
 30
0.0000
  0
VERTEX
  8
21
 10
30.2819
 20
7.4603
 30
0.0000
 42
1.0000
  0
VERTEX
  8
21
 10
30.2819
 20
7.2317
 30
0.0000
  0
VERTEX
  8
21
 10
31.0517
 20
7.2317
 30
0.0000
 42
1.0000
  0
SEQEND
  8
0
  0
POLYLINE
  8
21
 66
1
 10
0.0000
 20
0.0000
 30
0.0000
 40
0.0000
 41
0.0000
 70
1
  0
VERTEX
  8
21
 10
31.9238
 20
6.1654
 30
0.0000
  0
VERTEX
  8
21
 10
31.3079
 20
7.3971
 30
0.0000
 42
1.0000
  0
VERTEX
  8
21
 10
31.1035
 20
7.2949
 30
0.0000
  0
VERTEX
  8
21
 10
31.7193
 20
6.0632
 30
0.0000
 42
1.0000
  0
SEQEND
  8
0
  0
POLYLINE
  8
21
 66
1
 10
0.0000
 20
0.0000
 30
0.0000
 40
0.0000
 41
0.0000
 70
1
  0
VERTEX
  8
21
 10
33.9534
 20
6.2286
 30
0.0000
  0
VERTEX
  8
21
 10
32.7217
 20
6.2286
 30
0.0000
 42
1.0000
  0
VERTEX
  8
21
 10
32.7217
 20
6.0000
 30
0.0000
  0
VERTEX
  8
21
 10
33.9534
 20
6.0000
 30
0.0000
 42
1.0000
  0
SEQEND
  8
0
  0
POLYLINE
  8
21
 66
1
 10
0.0000
 20
0.0000
 30
0.0000
 40
0.0000
 41
0.0000
 70
1
  0
VERTEX
  8
21
 10
32.8360
 20
6.1143
 30
0.0000
  0
VERTEX
  8
21
 10
32.8360
 20
8.8857
 30
0.0000
 42
1.0000
  0
VERTEX
  8
21
 10
32.6074
 20
8.8857
 30
0.0000
  0
VERTEX
  8
21
 10
32.6074
 20
6.1143
 30
0.0000
 42
1.0000
  0
SEQEND
  8
0
  0
POLYLINE
  8
21
 66
1
 10
0.0000
 20
0.0000
 30
0.0000
 40
0.0000
 41
0.0000
 70
1
  0
VERTEX
  8
21
 10
32.7217
 20
8.7714
 30
0.0000
  0
VERTEX
  8
21
 10
33.9534
 20
8.7714
 30
0.0000
 42
1.0000
  0
VERTEX
  8
21
 10
33.9534
 20
9.0000
 30
0.0000
  0
VERTEX
  8
21
 10
32.7217
 20
9.0000
 30
0.0000
 42
1.0000
  0
SEQEND
  8
0
  0
POLYLINE
  8
21
 66
1
 10
0.0000
 20
0.0000
 30
0.0000
 40
0.0000
 41
0.0000
 70
1
  0
VERTEX
  8
21
 10
32.7217
 20
7.5397
 30
0.0000
  0
VERTEX
  8
21
 10
33.6455
 20
7.5397
 30
0.0000
 42
1.0000
  0
VERTEX
  8
21
 10
33.6455
 20
7.7683
 30
0.0000
  0
VERTEX
  8
21
 10
32.7217
 20
7.7683
 30
0.0000
 42
1.0000
  0
SEQEND
  8
0
  0
POLYLINE
  8
21
 66
1
 10
0.0000
 20
0.0000
 30
0.0000
 40
0.0000
 41
0.0000
 70
1
  0
VERTEX
  8
21
 10
34.8825
 20
6.1143
 30
0.0000
  0
VERTEX
  8
21
 10
34.8825
 20
8.8857
 30
0.0000
 42
1.0000
  0
VERTEX
  8
21
 10
34.6539
 20
8.8857
 30
0.0000
  0
VERTEX
  8
21
 10
34.6539
 20
6.1143
 30
0.0000
 42
1.0000
  0
SEQEND
  8
0
  0
POLYLINE
  8
21
 66
1
 10
0.0000
 20
0.0000
 30
0.0000
 40
0.0000
 41
0.0000
 70
1
  0
VERTEX
  8
21
 10
34.6682
 20
8.8302
 30
0.0000
  0
VERTEX
  8
21
 10
36.2079
 20
6.0588
 30
0.0000
 42
1.0000
  0
VERTEX
  8
21
 10
36.4077
 20
6.1698
 30
0.0000
  0
VERTEX
  8
21
 10
34.8681
 20
8.9412
 30
0.0000
 42
1.0000
  0
SEQEND
  8
0
  0
POLYLINE
  8
21
 66
1
 10
0.0000
 20
0.0000
 30
0.0000
 40
0.0000
 41
0.0000
 70
1
  0
VERTEX
  8
21
 10
36.4221
 20
6.1143
 30
0.0000
  0
VERTEX
  8
21
 10
36.4221
 20
8.8857
 30
0.0000
 42
1.0000
  0
VERTEX
  8
21
 10
36.1935
 20
8.8857
 30
0.0000
  0
VERTEX
  8
21
 10
36.1935
 20
6.1143
 30
0.0000
 42
1.0000
  0
SEQEND
  8
0
  0
POLYLINE
  8
21
 66
1
 10
0.0000
 20
0.0000
 30
0.0000
 40
0.0000
 41
0.0000
 70
1
  0
VERTEX
  8
21
 10
37.9360
 20
6.1143
 30
0.0000
  0
VERTEX
  8
21
 10
37.9360
 20
8.8857
 30
0.0000
 42
1.0000
  0
VERTEX
  8
21
 10
37.7074
 20
8.8857
 30
0.0000
  0
VERTEX
  8
21
 10
37.7074
 20
6.1143
 30
0.0000
 42
1.0000
  0
SEQEND
  8
0
  0
POLYLINE
  8
21
 66
1
 10
0.0000
 20
0.0000
 30
0.0000
 40
0.0000
 41
0.0000
 70
1
  0
VERTEX
  8
21
 10
37.0519
 20
8.7714
 30
0.0000
  0
VERTEX
  8
21
 10
38.5916
 20
8.7714
 30
0.0000
 42
1.0000
  0
VERTEX
  8
21
 10
38.5916
 20
9.0000
 30
0.0000
  0
VERTEX
  8
21
 10
37.0519
 20
9.0000
 30
0.0000
 42
1.0000
  0
SEQEND
  8
0
  0
POLYLINE
  8
21
 66
1
 10
0.0000
 20
0.0000
 30
0.0000
 40
0.0000
 41
0.0000
 70
1
  0
VERTEX
  8
21
 10
5.4707
 20
22.6500
 30
0.0000
  0
VERTEX
  8
21
 10
3.0186
 20
14.0674
 30
0.0000
 42
1.0000
  0
VERTEX
  8
21
 10
3.9466
 20
13.8022
 30
0.0000
  0
VERTEX
  8
21
 10
6.3988
 20
22.3848
 30
0.0000
 42
1.0000
  0
SEQEND
  8
0
  0
POLYLINE
  8
21
 66
1
 10
0.0000
 20
0.0000
 30
0.0000
 40
0.0000
 41
0.0000
 70
1
  0
VERTEX
  8
21
 10
3.4826
 20
13.4522
 30
0.0000
  0
VERTEX
  8
21
 10
9.6130
 20
13.4522
 30
0.0000
 42
1.0000
  0
VERTEX
  8
21
 10
9.6130
 20
14.4174
 30
0.0000
  0
VERTEX
  8
21
 10
3.4826
 20
14.4174
 30
0.0000
 42
1.0000
  0
SEQEND
  8
0
  0
POLYLINE
  8
21
 66
1
 10
0.0000
 20
0.0000
 30
0.0000
 40
0.0000
 41
0.0000
 70
1
  0
VERTEX
  8
21
 10
7.2913
 20
16.3870
 30
0.0000
  0
VERTEX
  8
21
 10
7.2913
 20
11.4826
 30
0.0000
 42
1.0000
  0
VERTEX
  8
21
 10
8.2565
 20
11.4826
 30
0.0000
  0
VERTEX
  8
21
 10
8.2565
 20
16.3870
 30
0.0000
 42
1.0000
  0
SEQEND
  8
0
  0
POLYLINE
  8
21
 66
1
 10
0.0000
 20
0.0000
 30
0.0000
 40
0.0000
 41
0.0000
 70
1
  0
VERTEX
  8
21
 10
13.0239
 20
11.4826
 30
0.0000
  0
VERTEX
  8
21
 10
13.0239
 20
12.0956
 30
0.0000
 42
1.0000
  0
VERTEX
  8
21
 10
12.0587
 20
12.0956
 30
0.0000
  0
VERTEX
  8
21
 10
12.0587
 20
11.4826
 30
0.0000
 42
1.0000
  0
SEQEND
  8
0
  0
POLYLINE
  8
21
 66
1
 10
0.0000
 20
0.0000
 30
0.0000
 40
0.0000
 41
0.0000
 70
1
  0
VERTEX
  8
21
 10
12.5413
 20
11.6130
 30
0.0000
  0
VERTEX
  8
21
 10
13.1543
 20
11.6130
 30
0.0000
 42
1.0000
  0
VERTEX
  8
21
 10
13.1543
 20
12.5782
 30
0.0000
  0
VERTEX
  8
21
 10
12.5413
 20
12.5782
 30
0.0000
 42
1.0000
  0
SEQEND
  8
0
  0
POLYLINE
  8
21
 66
1
 10
0.0000
 20
0.0000
 30
0.0000
 40
0.0000
 41
0.0000
 70
1
  0
VERTEX
  8
21
 10
12.6717
 20
12.0956
 30
0.0000
  0
VERTEX
  8
21
 10
12.6717
 20
11.4826
 30
0.0000
 42
1.0000
  0
VERTEX
  8
21
 10
13.6369
 20
11.4826
 30
0.0000
  0
VERTEX
  8
21
 10
13.6369
 20
12.0956
 30
0.0000
 42
1.0000
  0
SEQEND
  8
0
  0
POLYLINE
  8
21
 66
1
 10
0.0000
 20
0.0000
 30
0.0000
 40
0.0000
 41
0.0000
 70
1
  0
VERTEX
  8
21
 10
13.1543
 20
11.9652
 30
0.0000
  0
VERTEX
  8
21
 10
12.5413
 20
11.9652
 30
0.0000
 42
1.0000
  0
VERTEX
  8
21
 10
12.5413
 20
11.0000
 30
0.0000
  0
VERTEX
  8
21
 10
13.1543
 20
11.0000
 30
0.0000
 42
1.0000
  0
SEQEND
  8
0
  0
POLYLINE
  8
21
 66
1
 10
0.0000
 20
0.0000
 30
0.0000
 40
0.0000
 41
0.0000
 70
1
  0
VERTEX
  8
21
 10
16.0826
 20
17.1304
 30
0.0000
  0
VERTEX
  8
21
 10
19.7609
 20
17.1304
 30
0.0000
 42
1.0000
  0
VERTEX
  8
21
 10
19.7609
 20
18.0956
 30
0.0000
  0
VERTEX
  8
21
 10
16.0826
 20
18.0956
 30
0.0000
 42
1.0000
  0
SEQEND
  8
0
  0
POLYLINE
  8
21
 66
1
 10
0.0000
 20
0.0000
 30
0.0000
 40
0.0000
 41
0.0000
 70
1
  0
VERTEX
  8
21
 10
21.7304
 20
15.1609
 30
0.0000
 42
1.0000
  0
VERTEX
  8
21
 10
22.6956
 20
15.1609
 30
0.0000
 42
0.4142
  0
VERTEX
  8
21
 10
19.7609
 20
18.0956
 30
0.0000
 42
1.0000
  0
VERTEX
  8
21
 10
19.7609
 20
17.1304
 30
0.0000
 42
-0.4142
  0
SEQEND
  8
0
  0
POLYLINE
  8
21
 66
1
 10
0.0000
 20
0.0000
 30
0.0000
 40
0.0000
 41
0.0000
 70
1
  0
VERTEX
  8
21
 10
21.7304
 20
15.1609
 30
0.0000
  0
VERTEX
  8
21
 10
21.7304
 20
14.5478
 30
0.0000
 42
1.0000
  0
VERTEX
  8
21
 10
22.6956
 20
14.5478
 30
0.0000
  0
VERTEX
  8
21
 10
22.6956
 20
15.1609
 30
0.0000
 42
1.0000
  0
SEQEND
  8
0
  0
POLYLINE
  8
21
 66
1
 10
0.0000
 20
0.0000
 30
0.0000
 40
0.0000
 41
0.0000
 70
1
  0
VERTEX
  8
21
 10
16.5652
 20
14.5478
 30
0.0000
 42
1.0000
  0
VERTEX
  8
21
 10
15.6000
 20
14.5478
 30
0.0000
 42
1.0000
  0
VERTEX
  8
21
 10
22.6956
 20
14.5478
 30
0.0000
 42
1.0000
  0
VERTEX
  8
21
 10
21.7304
 20
14.5478
 30
0.0000
 42
-1.0000
  0
SEQEND
  8
0
  0
POLYLINE
  8
21
 66
1
 10
0.0000
 20
0.0000
 30
0.0000
 40
0.0000
 41
0.0000
 70
1
  0
VERTEX
  8
21
 10
16.5652
 20
14.5478
 30
0.0000
  0
VERTEX
  8
21
 10
16.5652
 20
17.6130
 30
0.0000
 42
1.0000
  0
VERTEX
  8
21
 10
15.6000
 20
17.6130
 30
0.0000
  0
VERTEX
  8
21
 10
15.6000
 20
14.5478
 30
0.0000
 42
1.0000
  0
SEQEND
  8
0
  0
POLYLINE
  8
21
 66
1
 10
0.0000
 20
0.0000
 30
0.0000
 40
0.0000
 41
0.0000
 70
1
  0
VERTEX
  8
21
 10
20.9870
 20
22.0348
 30
0.0000
 42
1.0000
  0
VERTEX
  8
21
 10
20.9870
 20
23.0000
 30
0.0000
 42
0.4142
  0
VERTEX
  8
21
 10
15.6000
 20
17.6130
 30
0.0000
 42
1.0000
  0
VERTEX
  8
21
 10
16.5652
 20
17.6130
 30
0.0000
 42
-0.4142
  0
SEQEND
  8
0
  0
POLYLINE
  8
21
 66
1
 10
0.0000
 20
0.0000
 30
0.0000
 40
0.0000
 41
0.0000
 70
1
  0
VERTEX
  8
21
 10
27.0707
 20
22.6500
 30
0.0000
  0
VERTEX
  8
21
 10
24.6186
 20
14.0674
 30
0.0000
 42
1.0000
  0
VERTEX
  8
21
 10
25.5466
 20
13.8022
 30
0.0000
  0
VERTEX
  8
21
 10
27.9988
 20
22.3848
 30
0.0000
 42
1.0000
  0
SEQEND
  8
0
  0
POLYLINE
  8
21
 66
1
 10
0.0000
 20
0.0000
 30
0.0000
 40
0.0000
 41
0.0000
 70
1
  0
VERTEX
  8
21
 10
25.0826
 20
13.4522
 30
0.0000
  0
VERTEX
  8
21
 10
31.2130
 20
13.4522
 30
0.0000
 42
1.0000
  0
VERTEX
  8
21
 10
31.2130
 20
14.4174
 30
0.0000
  0
VERTEX
  8
21
 10
25.0826
 20
14.4174
 30
0.0000
 42
1.0000
  0
SEQEND
  8
0
  0
POLYLINE
  8
21
 66
1
 10
0.0000
 20
0.0000
 30
0.0000
 40
0.0000
 41
0.0000
 70
1
  0
VERTEX
  8
21
 10
28.8913
 20
16.3870
 30
0.0000
  0
VERTEX
  8
21
 10
28.8913
 20
11.4826
 30
0.0000
 42
1.0000
  0
VERTEX
  8
21
 10
29.8565
 20
11.4826
 30
0.0000
  0
VERTEX
  8
21
 10
29.8565
 20
16.3870
 30
0.0000
 42
1.0000
  0
SEQEND
  8
0
  0
POLYLINE
  8
21
 66
1
 10
0.0000
 20
0.0000
 30
0.0000
 40
0.0000
 41
0.0000
 70
1
  0
VERTEX
  8
21
 10
34.0826
 20
17.1304
 30
0.0000
  0
VERTEX
  8
21
 10
37.7609
 20
17.1304
 30
0.0000
 42
1.0000
  0
VERTEX
  8
21
 10
37.7609
 20
18.0956
 30
0.0000
  0
VERTEX
  8
21
 10
34.0826
 20
18.0956
 30
0.0000
 42
1.0000
  0
SEQEND
  8
0
  0
POLYLINE
  8
21
 66
1
 10
0.0000
 20
0.0000
 30
0.0000
 40
0.0000
 41
0.0000
 70
1
  0
VERTEX
  8
21
 10
39.7304
 20
15.1609
 30
0.0000
 42
1.0000
  0
VERTEX
  8
21
 10
40.6956
 20
15.1609
 30
0.0000
 42
0.4142
  0
VERTEX
  8
21
 10
37.7609
 20
18.0956
 30
0.0000
 42
1.0000
  0
VERTEX
  8
21
 10
37.7609
 20
17.1304
 30
0.0000
 42
-0.4142
  0
SEQEND
  8
0
  0
POLYLINE
  8
21
 66
1
 10
0.0000
 20
0.0000
 30
0.0000
 40
0.0000
 41
0.0000
 70
1
  0
VERTEX
  8
21
 10
39.7304
 20
15.1609
 30
0.0000
  0
VERTEX
  8
21
 10
39.7304
 20
14.5478
 30
0.0000
 42
1.0000
  0
VERTEX
  8
21
 10
40.6956
 20
14.5478
 30
0.0000
  0
VERTEX
  8
21
 10
40.6956
 20
15.1609
 30
0.0000
 42
1.0000
  0
SEQEND
  8
0
  0
POLYLINE
  8
21
 66
1
 10
0.0000
 20
0.0000
 30
0.0000
 40
0.0000
 41
0.0000
 70
1
  0
VERTEX
  8
21
 10
34.5652
 20
14.5478
 30
0.0000
 42
1.0000
  0
VERTEX
  8
21
 10
33.6000
 20
14.5478
 30
0.0000
 42
1.0000
  0
VERTEX
  8
21
 10
40.6956
 20
14.5478
 30
0.0000
 42
1.0000
  0
VERTEX
  8
21
 10
39.7304
 20
14.5478
 30
0.0000
 42
-1.0000
  0
SEQEND
  8
0
  0
POLYLINE
  8
21
 66
1
 10
0.0000
 20
0.0000
 30
0.0000
 40
0.0000
 41
0.0000
 70
1
  0
VERTEX
  8
21
 10
34.5652
 20
14.5478
 30
0.0000
  0
VERTEX
  8
21
 10
34.5652
 20
17.6130
 30
0.0000
 42
1.0000
  0
VERTEX
  8
21
 10
33.6000
 20
17.6130
 30
0.0000
  0
VERTEX
  8
21
 10
33.6000
 20
14.5478
 30
0.0000
 42
1.0000
  0
SEQEND
  8
0
  0
POLYLINE
  8
21
 66
1
 10
0.0000
 20
0.0000
 30
0.0000
 40
0.0000
 41
0.0000
 70
1
  0
VERTEX
  8
21
 10
38.9870
 20
22.0348
 30
0.0000
 42
1.0000
  0
VERTEX
  8
21
 10
38.9870
 20
23.0000
 30
0.0000
 42
0.4142
  0
VERTEX
  8
21
 10
33.6000
 20
17.6130
 30
0.0000
 42
1.0000
  0
VERTEX
  8
21
 10
34.5652
 20
17.6130
 30
0.0000
 42
-0.4142
  0
SEQEND
  8
0
  0
POLYLINE
  8
21
 66
1
 10
0.0000
 20
0.0000
 30
0.0000
 40
0.0000
 41
0.0000
 70
1
  0
VERTEX
  8
21
 10
42.0117
 20
22.3648
 30
0.0000
  0
VERTEX
  8
21
 10
45.6900
 20
11.3300
 30
0.0000
 42
1.0000
  0
VERTEX
  8
21
 10
46.6057
 20
11.6352
 30
0.0000
  0
VERTEX
  8
21
 10
42.9274
 20
22.6700
 30
0.0000
 42
1.0000
  0
SEQEND
  8
0
  0
POLYLINE
  8
21
 66
1
 10
0.0000
 20
0.0000
 30
0.0000
 40
0.0000
 41
0.0000
 70
1
  0
VERTEX
  8
21
 10
46.6057
 20
11.3300
 30
0.0000
  0
VERTEX
  8
21
 10
50.2839
 20
22.3648
 30
0.0000
 42
1.0000
  0
VERTEX
  8
21
 10
49.3683
 20
22.6700
 30
0.0000
  0
VERTEX
  8
21
 10
45.6900
 20
11.6352
 30
0.0000
 42
1.0000
  0
SEQEND
  8
0
  0
POLYLINE
  8
21
 66
1
 10
0.0000
 20
0.0000
 30
0.0000
 40
0.0000
 41
0.0000
 70
1
  0
VERTEX
  8
21
 10
3.2286
 20
26.1143
 30
0.0000
  0
VERTEX
  8
21
 10
3.2286
 20
28.8857
 30
0.0000
 42
1.0000
  0
VERTEX
  8
21
 10
3.0000
 20
28.8857
 30
0.0000
  0
VERTEX
  8
21
 10
3.0000
 20
26.1143
 30
0.0000
 42
1.0000
  0
SEQEND
  8
0
  0
POLYLINE
  8
21
 66
1
 10
0.0000
 20
0.0000
 30
0.0000
 40
0.0000
 41
0.0000
 70
1
  0
VERTEX
  8
21
 10
3.0163
 20
28.8269
 30
0.0000
  0
VERTEX
  8
21
 10
3.9401
 20
27.2872
 30
0.0000
 42
1.0000
  0
VERTEX
  8
21
 10
4.1361
 20
27.4048
 30
0.0000
  0
VERTEX
  8
21
 10
3.2123
 20
28.9445
 30
0.0000
 42
1.0000
  0
SEQEND
  8
0
  0
POLYLINE
  8
21
 66
1
 10
0.0000
 20
0.0000
 30
0.0000
 40
0.0000
 41
0.0000
 70
1
  0
VERTEX
  8
21
 10
4.1361
 20
27.2872
 30
0.0000
  0
VERTEX
  8
21
 10
5.0599
 20
28.8269
 30
0.0000
 42
1.0000
  0
VERTEX
  8
21
 10
4.8639
 20
28.9445
 30
0.0000
  0
VERTEX
  8
21
 10
3.9401
 20
27.4048
 30
0.0000
 42
1.0000
  0
SEQEND
  8
0
  0
POLYLINE
  8
21
 66
1
 10
0.0000
 20
0.0000
 30
0.0000
 40
0.0000
 41
0.0000
 70
1
  0
VERTEX
  8
21
 10
4.8476
 20
28.8857
 30
0.0000
  0
VERTEX
  8
21
 10
4.8476
 20
26.1143
 30
0.0000
 42
1.0000
  0
VERTEX
  8
21
 10
5.0762
 20
26.1143
 30
0.0000
  0
VERTEX
  8
21
 10
5.0762
 20
28.8857
 30
0.0000
 42
1.0000
  0
SEQEND
  8
0
  0
POLYLINE
  8
21
 66
1
 10
0.0000
 20
0.0000
 30
0.0000
 40
0.0000
 41
0.0000
 70
1
  0
VERTEX
  8
21
 10
7.1785
 20
26.2286
 30
0.0000
  0
VERTEX
  8
21
 10
5.9468
 20
26.2286
 30
0.0000
 42
1.0000
  0
VERTEX
  8
21
 10
5.9468
 20
26.0000
 30
0.0000
  0
VERTEX
  8
21
 10
7.1785
 20
26.0000
 30
0.0000
 42
1.0000
  0
SEQEND
  8
0
  0
POLYLINE
  8
21
 66
1
 10
0.0000
 20
0.0000
 30
0.0000
 40
0.0000
 41
0.0000
 70
1
  0
VERTEX
  8
21
 10
6.0611
 20
26.1143
 30
0.0000
  0
VERTEX
  8
21
 10
6.0611
 20
28.8857
 30
0.0000
 42
1.0000
  0
VERTEX
  8
21
 10
5.8325
 20
28.8857
 30
0.0000
  0
VERTEX
  8
21
 10
5.8325
 20
26.1143
 30
0.0000
 42
1.0000
  0
SEQEND
  8
0
  0
POLYLINE
  8
21
 66
1
 10
0.0000
 20
0.0000
 30
0.0000
 40
0.0000
 41
0.0000
 70
1
  0
VERTEX
  8
21
 10
5.9468
 20
28.7714
 30
0.0000
  0
VERTEX
  8
21
 10
7.1785
 20
28.7714
 30
0.0000
 42
1.0000
  0
VERTEX
  8
21
 10
7.1785
 20
29.0000
 30
0.0000
  0
VERTEX
  8
21
 10
5.9468
 20
29.0000
 30
0.0000
 42
1.0000
  0
SEQEND
  8
0
  0
POLYLINE
  8
21
 66
1
 10
0.0000
 20
0.0000
 30
0.0000
 40
0.0000
 41
0.0000
 70
1
  0
VERTEX
  8
21
 10
5.9468
 20
27.5397
 30
0.0000
  0
VERTEX
  8
21
 10
6.8706
 20
27.5397
 30
0.0000
 42
1.0000
  0
VERTEX
  8
21
 10
6.8706
 20
27.7683
 30
0.0000
  0
VERTEX
  8
21
 10
5.9468
 20
27.7683
 30
0.0000
 42
1.0000
  0
SEQEND
  8
0
  0
POLYLINE
  8
21
 66
1
 10
0.0000
 20
0.0000
 30
0.0000
 40
0.0000
 41
0.0000
 70
1
  0
VERTEX
  8
21
 10
7.8690
 20
26.0782
 30
0.0000
  0
VERTEX
  8
21
 10
8.7928
 20
28.8496
 30
0.0000
 42
1.0000
  0
VERTEX
  8
21
 10
8.5759
 20
28.9218
 30
0.0000
  0
VERTEX
  8
21
 10
7.6521
 20
26.1504
 30
0.0000
 42
1.0000
  0
SEQEND
  8
0
  0
POLYLINE
  8
21
 66
1
 10
0.0000
 20
0.0000
 30
0.0000
 40
0.0000
 41
0.0000
 70
1
  0
VERTEX
  8
21
 10
8.5759
 20
28.8496
 30
0.0000
  0
VERTEX
  8
21
 10
9.4997
 20
26.0782
 30
0.0000
 42
1.0000
  0
VERTEX
  8
21
 10
9.7166
 20
26.1504
 30
0.0000
  0
VERTEX
  8
21
 10
8.7928
 20
28.9218
 30
0.0000
 42
1.0000
  0
SEQEND
  8
0
  0
POLYLINE
  8
21
 66
1
 10
0.0000
 20
0.0000
 30
0.0000
 40
0.0000
 41
0.0000
 70
1
  0
VERTEX
  8
21
 10
9.3772
 20
26.9215
 30
0.0000
  0
VERTEX
  8
21
 10
7.9915
 20
26.9215
 30
0.0000
 42
1.0000
  0
VERTEX
  8
21
 10
7.9915
 20
26.6928
 30
0.0000
  0
VERTEX
  8
21
 10
9.3772
 20
26.6928
 30
0.0000
 42
1.0000
  0
SEQEND
  8
0
  0
POLYLINE
  8
21
 66
1
 10
0.0000
 20
0.0000
 30
0.0000
 40
0.0000
 41
0.0000
 70
1
  0
VERTEX
  8
21
 10
11.1220
 20
26.2286
 30
0.0000
 42
1.0000
  0
VERTEX
  8
21
 10
11.1220
 20
26.0000
 30
0.0000
 42
0.4142
  0
VERTEX
  8
21
 10
11.8522
 20
26.7302
 30
0.0000
 42
1.0000
  0
VERTEX
  8
21
 10
11.6236
 20
26.7302
 30
0.0000
 42
-0.4142
  0
SEQEND
  8
0
  0
POLYLINE
  8
21
 66
1
 10
0.0000
 20
0.0000
 30
0.0000
 40
0.0000
 41
0.0000
 70
1
  0
VERTEX
  8
21
 10
10.2794
 20
26.5797
 30
0.0000
 42
1.0000
  0
VERTEX
  8
21
 10
10.1171
 20
26.4187
 30
0.0000
 42
0.2000
  0
VERTEX
  8
21
 10
11.1220
 20
26.0000
 30
0.0000
 42
1.0000
  0
VERTEX
  8
21
 10
11.1220
 20
26.2286
 30
0.0000
 42
-0.2000
  0
SEQEND
  8
0
  0
POLYLINE
  8
21
 66
1
 10
0.0000
 20
0.0000
 30
0.0000
 40
0.0000
 41
0.0000
 70
1
  0
VERTEX
  8
21
 10
10.8911
 20
28.7714
 30
0.0000
 42
1.0000
  0
VERTEX
  8
21
 10
10.8911
 20
29.0000
 30
0.0000
 42
0.4142
  0
VERTEX
  8
21
 10
10.1609
 20
28.2698
 30
0.0000
 42
1.0000
  0
VERTEX
  8
21
 10
10.3895
 20
28.2698
 30
0.0000
 42
-0.4142
  0
SEQEND
  8
0
  0
POLYLINE
  8
21
 66
1
 10
0.0000
 20
0.0000
 30
0.0000
 40
0.0000
 41
0.0000
 70
1
  0
VERTEX
  8
21
 10
11.5154
 20
28.5633
 30
0.0000
 42
1.0000
  0
VERTEX
  8
21
 10
11.6525
 20
28.7462
 30
0.0000
 42
0.1623
  0
VERTEX
  8
21
 10
10.8911
 20
29.0000
 30
0.0000
 42
1.0000
  0
VERTEX
  8
21
 10
10.8911
 20
28.7714
 30
0.0000
 42
-0.1623
  0
SEQEND
  8
0
  0
POLYLINE
  8
21
 66
1
 10
0.0000
 20
0.0000
 30
0.0000
 40
0.0000
 41
0.0000
 70
1
  0
VERTEX
  8
21
 10
10.3895
 20
28.2698
 30
0.0000
 42
1.0000
  0
VERTEX
  8
21
 10
10.1609
 20
28.2698
 30
0.0000
 42
0.2656
  0
VERTEX
  8
21
 10
10.5251
 20
27.6325
 30
0.0000
 42
1.0000
  0
VERTEX
  8
21
 10
10.6412
 20
27.8294
 30
0.0000
 42
-0.2656
  0
SEQEND
  8
0
  0
POLYLINE
  8
21
 66
1
 10
0.0000
 20
0.0000
 30
0.0000
 40
0.0000
 41
0.0000
 70
1
  0
VERTEX
  8
21
 10
11.6236
 20
26.7302
 30
0.0000
 42
1.0000
  0
VERTEX
  8
21
 10
11.8522
 20
26.7302
 30
0.0000
 42
0.2656
  0
VERTEX
  8
21
 10
11.4880
 20
27.3675
 30
0.0000
 42
1.0000
  0
VERTEX
  8
21
 10
11.3719
 20
27.1706
 30
0.0000
 42
-0.2656
  0
SEQEND
  8
0
  0
POLYLINE
  8
21
 66
1
 10
0.0000
 20
0.0000
 30
0.0000
 40
0.0000
 41
0.0000
 70
1
  0
VERTEX
  8
21
 10
11.4847
 20
27.3694
 30
0.0000
  0
VERTEX
  8
21
 10
10.6379
 20
27.8313
 30
0.0000
 42
1.0000
  0
VERTEX
  8
21
 10
10.5284
 20
27.6306
 30
0.0000
  0
VERTEX
  8
21
 10
11.3752
 20
27.1687
 30
0.0000
 42
1.0000
  0
SEQEND
  8
0
  0
POLYLINE
  8
21
 66
1
 10
0.0000
 20
0.0000
 30
0.0000
 40
0.0000
 41
0.0000
 70
1
  0
VERTEX
  8
21
 10
12.4464
 20
28.8857
 30
0.0000
  0
VERTEX
  8
21
 10
12.4464
 20
26.8841
 30
0.0000
 42
1.0000
  0
VERTEX
  8
21
 10
12.6750
 20
26.8841
 30
0.0000
  0
VERTEX
  8
21
 10
12.6750
 20
28.8857
 30
0.0000
 42
1.0000
  0
SEQEND
  8
0
  0
POLYLINE
  8
21
 66
1
 10
0.0000
 20
0.0000
 30
0.0000
 40
0.0000
 41
0.0000
 70
1
  0
VERTEX
  8
21
 10
12.6750
 20
26.8841
 30
0.0000
 42
1.0000
  0
VERTEX
  8
21
 10
12.4464
 20
26.8841
 30
0.0000
 42
1.0000
  0
VERTEX
  8
21
 10
14.2147
 20
26.8841
 30
0.0000
 42
1.0000
  0
VERTEX
  8
21
 10
13.9861
 20
26.8841
 30
0.0000
 42
-1.0000
  0
SEQEND
  8
0
  0
POLYLINE
  8
21
 66
1
 10
0.0000
 20
0.0000
 30
0.0000
 40
0.0000
 41
0.0000
 70
1
  0
VERTEX
  8
21
 10
14.2147
 20
26.8841
 30
0.0000
  0
VERTEX
  8
21
 10
14.2147
 20
28.8857
 30
0.0000
 42
1.0000
  0
VERTEX
  8
21
 10
13.9861
 20
28.8857
 30
0.0000
  0
VERTEX
  8
21
 10
13.9861
 20
26.8841
 30
0.0000
 42
1.0000
  0
SEQEND
  8
0
  0
POLYLINE
  8
21
 66
1
 10
0.0000
 20
0.0000
 30
0.0000
 40
0.0000
 41
0.0000
 70
1
  0
VERTEX
  8
21
 10
15.1975
 20
26.1143
 30
0.0000
  0
VERTEX
  8
21
 10
15.1975
 20
28.8857
 30
0.0000
 42
1.0000
  0
VERTEX
  8
21
 10
14.9689
 20
28.8857
 30
0.0000
  0
VERTEX
  8
21
 10
14.9689
 20
26.1143
 30
0.0000
 42
1.0000
  0
SEQEND
  8
0
  0
POLYLINE
  8
21
 66
1
 10
0.0000
 20
0.0000
 30
0.0000
 40
0.0000
 41
0.0000
 70
1
  0
VERTEX
  8
21
 10
15.0832
 20
28.7714
 30
0.0000
  0
VERTEX
  8
21
 10
15.8530
 20
28.7714
 30
0.0000
 42
1.0000
  0
VERTEX
  8
21
 10
15.8530
 20
29.0000
 30
0.0000
  0
VERTEX
  8
21
 10
15.0832
 20
29.0000
 30
0.0000
 42
1.0000
  0
SEQEND
  8
0
  0
POLYLINE
  8
21
 66
1
 10
0.0000
 20
0.0000
 30
0.0000
 40
0.0000
 41
0.0000
 70
1
  0
VERTEX
  8
21
 10
15.8530
 20
27.4603
 30
0.0000
 42
1.0000
  0
VERTEX
  8
21
 10
15.8530
 20
27.2317
 30
0.0000
 42
1.0000
  0
VERTEX
  8
21
 10
15.8530
 20
29.0000
 30
0.0000
 42
1.0000
  0
VERTEX
  8
21
 10
15.8530
 20
28.7714
 30
0.0000
 42
-1.0000
  0
SEQEND
  8
0
  0
POLYLINE
  8
21
 66
1
 10
0.0000
 20
0.0000
 30
0.0000
 40
0.0000
 41
0.0000
 70
1
  0
VERTEX
  8
21
 10
15.8530
 20
27.4603
 30
0.0000
  0
VERTEX
  8
21
 10
15.0832
 20
27.4603
 30
0.0000
 42
1.0000
  0
VERTEX
  8
21
 10
15.0832
 20
27.2317
 30
0.0000
  0
VERTEX
  8
21
 10
15.8530
 20
27.2317
 30
0.0000
 42
1.0000
  0
SEQEND
  8
0
  0
POLYLINE
  8
21
 66
1
 10
0.0000
 20
0.0000
 30
0.0000
 40
0.0000
 41
0.0000
 70
1
  0
VERTEX
  8
21
 10
16.7251
 20
26.1654
 30
0.0000
  0
VERTEX
  8
21
 10
16.1092
 20
27.3971
 30
0.0000
 42
1.0000
  0
VERTEX
  8
21
 10
15.9048
 20
27.2949
 30
0.0000
  0
VERTEX
  8
21
 10
16.5206
 20
26.0632
 30
0.0000
 42
1.0000
  0
SEQEND
  8
0
  0
POLYLINE
  8
21
 66
1
 10
0.0000
 20
0.0000
 30
0.0000
 40
0.0000
 41
0.0000
 70
1
  0
VERTEX
  8
21
 10
18.7547
 20
26.2286
 30
0.0000
  0
VERTEX
  8
21
 10
17.5230
 20
26.2286
 30
0.0000
 42
1.0000
  0
VERTEX
  8
21
 10
17.5230
 20
26.0000
 30
0.0000
  0
VERTEX
  8
21
 10
18.7547
 20
26.0000
 30
0.0000
 42
1.0000
  0
SEQEND
  8
0
  0
POLYLINE
  8
21
 66
1
 10
0.0000
 20
0.0000
 30
0.0000
 40
0.0000
 41
0.0000
 70
1
  0
VERTEX
  8
21
 10
17.6373
 20
26.1143
 30
0.0000
  0
VERTEX
  8
21
 10
17.6373
 20
28.8857
 30
0.0000
 42
1.0000
  0
VERTEX
  8
21
 10
17.4087
 20
28.8857
 30
0.0000
  0
VERTEX
  8
21
 10
17.4087
 20
26.1143
 30
0.0000
 42
1.0000
  0
SEQEND
  8
0
  0
POLYLINE
  8
21
 66
1
 10
0.0000
 20
0.0000
 30
0.0000
 40
0.0000
 41
0.0000
 70
1
  0
VERTEX
  8
21
 10
17.5230
 20
28.7714
 30
0.0000
  0
VERTEX
  8
21
 10
18.7547
 20
28.7714
 30
0.0000
 42
1.0000
  0
VERTEX
  8
21
 10
18.7547
 20
29.0000
 30
0.0000
  0
VERTEX
  8
21
 10
17.5230
 20
29.0000
 30
0.0000
 42
1.0000
  0
SEQEND
  8
0
  0
POLYLINE
  8
21
 66
1
 10
0.0000
 20
0.0000
 30
0.0000
 40
0.0000
 41
0.0000
 70
1
  0
VERTEX
  8
21
 10
17.5230
 20
27.5397
 30
0.0000
  0
VERTEX
  8
21
 10
18.4468
 20
27.5397
 30
0.0000
 42
1.0000
  0
VERTEX
  8
21
 10
18.4468
 20
27.7683
 30
0.0000
  0
VERTEX
  8
21
 10
17.5230
 20
27.7683
 30
0.0000
 42
1.0000
  0
SEQEND
  8
0
  0
POLYLINE
  8
21
 66
1
 10
0.0000
 20
0.0000
 30
0.0000
 40
0.0000
 41
0.0000
 70
1
  0
VERTEX
  8
21
 10
19.6838
 20
26.1143
 30
0.0000
  0
VERTEX
  8
21
 10
19.6838
 20
28.8857
 30
0.0000
 42
1.0000
  0
VERTEX
  8
21
 10
19.4552
 20
28.8857
 30
0.0000
  0
VERTEX
  8
21
 10
19.4552
 20
26.1143
 30
0.0000
 42
1.0000
  0
SEQEND
  8
0
  0
POLYLINE
  8
21
 66
1
 10
0.0000
 20
0.0000
 30
0.0000
 40
0.0000
 41
0.0000
 70
1
  0
VERTEX
  8
21
 10
19.5695
 20
28.7714
 30
0.0000
  0
VERTEX
  8
21
 10
20.3393
 20
28.7714
 30
0.0000
 42
1.0000
  0
VERTEX
  8
21
 10
20.3393
 20
29.0000
 30
0.0000
  0
VERTEX
  8
21
 10
19.5695
 20
29.0000
 30
0.0000
 42
1.0000
  0
SEQEND
  8
0
  0
POLYLINE
  8
21
 66
1
 10
0.0000
 20
0.0000
 30
0.0000
 40
0.0000
 41
0.0000
 70
1
  0
VERTEX
  8
21
 10
20.9948
 20
28.1159
 30
0.0000
 42
1.0000
  0
VERTEX
  8
21
 10
21.2234
 20
28.1159
 30
0.0000
 42
0.4142
  0
VERTEX
  8
21
 10
20.3393
 20
29.0000
 30
0.0000
 42
1.0000
  0
VERTEX
  8
21
 10
20.3393
 20
28.7714
 30
0.0000
 42
-0.4142
  0
SEQEND
  8
0
  0
POLYLINE
  8
21
 66
1
 10
0.0000
 20
0.0000
 30
0.0000
 40
0.0000
 41
0.0000
 70
1
  0
VERTEX
  8
21
 10
20.9948
 20
28.1159
 30
0.0000
  0
VERTEX
  8
21
 10
20.9948
 20
26.8841
 30
0.0000
 42
1.0000
  0
VERTEX
  8
21
 10
21.2234
 20
26.8841
 30
0.0000
  0
VERTEX
  8
21
 10
21.2234
 20
28.1159
 30
0.0000
 42
1.0000
  0
SEQEND
  8
0
  0
POLYLINE
  8
21
 66
1
 10
0.0000
 20
0.0000
 30
0.0000
 40
0.0000
 41
0.0000
 70
1
  0
VERTEX
  8
21
 10
20.3393
 20
26.2286
 30
0.0000
 42
1.0000
  0
VERTEX
  8
21
 10
20.3393
 20
26.0000
 30
0.0000
 42
0.4142
  0
VERTEX
  8
21
 10
21.2234
 20
26.8841
 30
0.0000
 42
1.0000
  0
VERTEX
  8
21
 10
20.9948
 20
26.8841
 30
0.0000
 42
-0.4142
  0
SEQEND
  8
0
  0
POLYLINE
  8
21
 66
1
 10
0.0000
 20
0.0000
 30
0.0000
 40
0.0000
 41
0.0000
 70
1
  0
VERTEX
  8
21
 10
20.3393
 20
26.2286
 30
0.0000
  0
VERTEX
  8
21
 10
19.5695
 20
26.2286
 30
0.0000
 42
1.0000
  0
VERTEX
  8
21
 10
19.5695
 20
26.0000
 30
0.0000
  0
VERTEX
  8
21
 10
20.3393
 20
26.0000
 30
0.0000
 42
1.0000
  0
SEQEND
  8
0
  0
POLYLINE
  8
21
 66
1
 10
0.0000
 20
0.0000
 30
0.0000
 40
0.0000
 41
0.0000
 70
1
  0
VERTEX
  8
21
 10
23.0083
 20
28.8496
 30
0.0000
  0
VERTEX
  8
21
 10
23.9321
 20
26.0782
 30
0.0000
 42
1.0000
  0
VERTEX
  8
21
 10
24.1490
 20
26.1504
 30
0.0000
  0
VERTEX
  8
21
 10
23.2252
 20
28.9218
 30
0.0000
 42
1.0000
  0
SEQEND
  8
0
  0
POLYLINE
  8
21
 66
1
 10
0.0000
 20
0.0000
 30
0.0000
 40
0.0000
 41
0.0000
 70
1
  0
VERTEX
  8
21
 10
24.1490
 20
26.0782
 30
0.0000
  0
VERTEX
  8
21
 10
25.0728
 20
28.8496
 30
0.0000
 42
1.0000
  0
VERTEX
  8
21
 10
24.8559
 20
28.9218
 30
0.0000
  0
VERTEX
  8
21
 10
23.9321
 20
26.1504
 30
0.0000
 42
1.0000
  0
SEQEND
  8
0
  0
POLYLINE
  8
21
 66
1
 10
0.0000
 20
0.0000
 30
0.0000
 40
0.0000
 41
0.0000
 70
1
  0
VERTEX
  8
21
 10
25.7475
 20
26.8841
 30
0.0000
  0
VERTEX
  8
21
 10
25.7475
 20
28.1159
 30
0.0000
 42
1.0000
  0
VERTEX
  8
21
 10
25.5189
 20
28.1159
 30
0.0000
  0
VERTEX
  8
21
 10
25.5189
 20
26.8841
 30
0.0000
 42
1.0000
  0
SEQEND
  8
0
  0
POLYLINE
  8
21
 66
1
 10
0.0000
 20
0.0000
 30
0.0000
 40
0.0000
 41
0.0000
 70
1
  0
VERTEX
  8
21
 10
27.0586
 20
28.1159
 30
0.0000
 42
1.0000
  0
VERTEX
  8
21
 10
27.2872
 20
28.1159
 30
0.0000
 42
1.0000
  0
VERTEX
  8
21
 10
25.5189
 20
28.1159
 30
0.0000
 42
1.0000
  0
VERTEX
  8
21
 10
25.7475
 20
28.1159
 30
0.0000
 42
-1.0000
  0
SEQEND
  8
0
  0
POLYLINE
  8
21
 66
1
 10
0.0000
 20
0.0000
 30
0.0000
 40
0.0000
 41
0.0000
 70
1
  0
VERTEX
  8
21
 10
27.0586
 20
28.1159
 30
0.0000
  0
VERTEX
  8
21
 10
27.0586
 20
26.8841
 30
0.0000
 42
1.0000
  0
VERTEX
  8
21
 10
27.2872
 20
26.8841
 30
0.0000
  0
VERTEX
  8
21
 10
27.2872
 20
28.1159
 30
0.0000
 42
1.0000
  0
SEQEND
  8
0
  0
POLYLINE
  8
21
 66
1
 10
0.0000
 20
0.0000
 30
0.0000
 40
0.0000
 41
0.0000
 70
1
  0
VERTEX
  8
21
 10
25.7475
 20
26.8841
 30
0.0000
 42
1.0000
  0
VERTEX
  8
21
 10
25.5189
 20
26.8841
 30
0.0000
 42
1.0000
  0
VERTEX
  8
21
 10
27.2872
 20
26.8841
 30
0.0000
 42
1.0000
  0
VERTEX
  8
21
 10
27.0586
 20
26.8841
 30
0.0000
 42
-1.0000
  0
SEQEND
  8
0
  0
POLYLINE
  8
21
 66
1
 10
0.0000
 20
0.0000
 30
0.0000
 40
0.0000
 41
0.0000
 70
1
  0
VERTEX
  8
21
 10
27.9612
 20
28.8857
 30
0.0000
  0
VERTEX
  8
21
 10
27.9612
 20
26.1143
 30
0.0000
 42
1.0000
  0
VERTEX
  8
21
 10
28.1898
 20
26.1143
 30
0.0000
  0
VERTEX
  8
21
 10
28.1898
 20
28.8857
 30
0.0000
 42
1.0000
  0
SEQEND
  8
0
  0
POLYLINE
  8
21
 66
1
 10
0.0000
 20
0.0000
 30
0.0000
 40
0.0000
 41
0.0000
 70
1
  0
VERTEX
  8
21
 10
28.0755
 20
26.0000
 30
0.0000
  0
VERTEX
  8
21
 10
29.3072
 20
26.0000
 30
0.0000
 42
1.0000
  0
VERTEX
  8
21
 10
29.3072
 20
26.2286
 30
0.0000
  0
VERTEX
  8
21
 10
28.0755
 20
26.2286
 30
0.0000
 42
1.0000
  0
SEQEND
  8
0
  0
POLYLINE
  8
21
 66
1
 10
0.0000
 20
0.0000
 30
0.0000
 40
0.0000
 41
0.0000
 70
1
  0
VERTEX
  8
21
 10
30.7698
 20
26.1143
 30
0.0000
  0
VERTEX
  8
21
 10
30.7698
 20
28.8857
 30
0.0000
 42
1.0000
  0
VERTEX
  8
21
 10
30.5412
 20
28.8857
 30
0.0000
  0
VERTEX
  8
21
 10
30.5412
 20
26.1143
 30
0.0000
 42
1.0000
  0
SEQEND
  8
0
  0
POLYLINE
  8
21
 66
1
 10
0.0000
 20
0.0000
 30
0.0000
 40
0.0000
 41
0.0000
 70
1
  0
VERTEX
  8
21
 10
29.8857
 20
28.7714
 30
0.0000
  0
VERTEX
  8
21
 10
31.4254
 20
28.7714
 30
0.0000
 42
1.0000
  0
VERTEX
  8
21
 10
31.4254
 20
29.0000
 30
0.0000
  0
VERTEX
  8
21
 10
29.8857
 20
29.0000
 30
0.0000
 42
1.0000
  0
SEQEND
  8
0
  0
POLYLINE
  8
21
 66
1
 10
0.0000
 20
0.0000
 30
0.0000
 40
0.0000
 41
0.0000
 70
1
  0
VERTEX
  8
21
 10
32.0451
 20
26.0782
 30
0.0000
  0
VERTEX
  8
21
 10
32.9689
 20
28.8496
 30
0.0000
 42
1.0000
  0
VERTEX
  8
21
 10
32.7521
 20
28.9218
 30
0.0000
  0
VERTEX
  8
21
 10
31.8283
 20
26.1504
 30
0.0000
 42
1.0000
  0
SEQEND
  8
0
  0
POLYLINE
  8
21
 66
1
 10
0.0000
 20
0.0000
 30
0.0000
 40
0.0000
 41
0.0000
 70
1
  0
VERTEX
  8
21
 10
32.7521
 20
28.8496
 30
0.0000
  0
VERTEX
  8
21
 10
33.6759
 20
26.0782
 30
0.0000
 42
1.0000
  0
VERTEX
  8
21
 10
33.8927
 20
26.1504
 30
0.0000
  0
VERTEX
  8
21
 10
32.9689
 20
28.9218
 30
0.0000
 42
1.0000
  0
SEQEND
  8
0
  0
POLYLINE
  8
21
 66
1
 10
0.0000
 20
0.0000
 30
0.0000
 40
0.0000
 41
0.0000
 70
1
  0
VERTEX
  8
21
 10
33.5534
 20
26.9215
 30
0.0000
  0
VERTEX
  8
21
 10
32.1677
 20
26.9215
 30
0.0000
 42
1.0000
  0
VERTEX
  8
21
 10
32.1677
 20
26.6928
 30
0.0000
  0
VERTEX
  8
21
 10
33.5534
 20
26.6928
 30
0.0000
 42
1.0000
  0
SEQEND
  8
0
  0
POLYLINE
  8
21
 66
1
 10
0.0000
 20
0.0000
 30
0.0000
 40
0.0000
 41
0.0000
 70
1
  0
VERTEX
  8
21
 10
35.6097
 20
27.5397
 30
0.0000
  0
VERTEX
  8
21
 10
36.0716
 20
27.5397
 30
0.0000
 42
1.0000
  0
VERTEX
  8
21
 10
36.0716
 20
27.7683
 30
0.0000
  0
VERTEX
  8
21
 10
35.6097
 20
27.7683
 30
0.0000
 42
1.0000
  0
SEQEND
  8
0
  0
POLYLINE
  8
21
 66
1
 10
0.0000
 20
0.0000
 30
0.0000
 40
0.0000
 41
0.0000
 70
1
  0
VERTEX
  8
21
 10
35.9573
 20
27.6540
 30
0.0000
  0
VERTEX
  8
21
 10
35.9573
 20
26.1143
 30
0.0000
 42
1.0000
  0
VERTEX
  8
21
 10
36.1859
 20
26.1143
 30
0.0000
  0
VERTEX
  8
21
 10
36.1859
 20
27.6540
 30
0.0000
 42
1.0000
  0
SEQEND
  8
0
  0
POLYLINE
  8
21
 66
1
 10
0.0000
 20
0.0000
 30
0.0000
 40
0.0000
 41
0.0000
 70
1
  0
VERTEX
  8
21
 10
36.0716
 20
26.2286
 30
0.0000
  0
VERTEX
  8
21
 10
35.1478
 20
26.2286
 30
0.0000
 42
1.0000
  0
VERTEX
  8
21
 10
35.1478
 20
26.0000
 30
0.0000
  0
VERTEX
  8
21
 10
36.0716
 20
26.0000
 30
0.0000
 42
1.0000
  0
SEQEND
  8
0
  0
POLYLINE
  8
21
 66
1
 10
0.0000
 20
0.0000
 30
0.0000
 40
0.0000
 41
0.0000
 70
1
  0
VERTEX
  8
21
 10
34.6462
 20
26.7302
 30
0.0000
 42
1.0000
  0
VERTEX
  8
21
 10
34.4176
 20
26.7302
 30
0.0000
 42
0.4142
  0
VERTEX
  8
21
 10
35.1478
 20
26.0000
 30
0.0000
 42
1.0000
  0
VERTEX
  8
21
 10
35.1478
 20
26.2286
 30
0.0000
 42
-0.4142
  0
SEQEND
  8
0
  0
POLYLINE
  8
21
 66
1
 10
0.0000
 20
0.0000
 30
0.0000
 40
0.0000
 41
0.0000
 70
1
  0
VERTEX
  8
21
 10
34.6462
 20
26.7302
 30
0.0000
  0
VERTEX
  8
21
 10
34.6462
 20
28.2698
 30
0.0000
 42
1.0000
  0
VERTEX
  8
21
 10
34.4176
 20
28.2698
 30
0.0000
  0
VERTEX
  8
21
 10
34.4176
 20
26.7302
 30
0.0000
 42
1.0000
  0
SEQEND
  8
0
  0
POLYLINE
  8
21
 66
1
 10
0.0000
 20
0.0000
 30
0.0000
 40
0.0000
 41
0.0000
 70
1
  0
VERTEX
  8
21
 10
35.1478
 20
28.7714
 30
0.0000
 42
1.0000
  0
VERTEX
  8
21
 10
35.1478
 20
29.0000
 30
0.0000
 42
0.4142
  0
VERTEX
  8
21
 10
34.4176
 20
28.2698
 30
0.0000
 42
1.0000
  0
VERTEX
  8
21
 10
34.6462
 20
28.2698
 30
0.0000
 42
-0.4142
  0
SEQEND
  8
0
  0
POLYLINE
  8
21
 66
1
 10
0.0000
 20
0.0000
 30
0.0000
 40
0.0000
 41
0.0000
 70
1
  0
VERTEX
  8
21
 10
35.1478
 20
28.7714
 30
0.0000
  0
VERTEX
  8
21
 10
36.0716
 20
28.7714
 30
0.0000
 42
1.0000
  0
VERTEX
  8
21
 10
36.0716
 20
29.0000
 30
0.0000
  0
VERTEX
  8
21
 10
35.1478
 20
29.0000
 30
0.0000
 42
1.0000
  0
SEQEND
  8
0
  0
POLYLINE
  8
21
 66
1
 10
0.0000
 20
0.0000
 30
0.0000
 40
0.0000
 41
0.0000
 70
1
  0
VERTEX
  8
21
 10
38.2847
 20
26.2286
 30
0.0000
  0
VERTEX
  8
21
 10
37.0529
 20
26.2286
 30
0.0000
 42
1.0000
  0
VERTEX
  8
21
 10
37.0529
 20
26.0000
 30
0.0000
  0
VERTEX
  8
21
 10
38.2847
 20
26.0000
 30
0.0000
 42
1.0000
  0
SEQEND
  8
0
  0
POLYLINE
  8
21
 66
1
 10
0.0000
 20
0.0000
 30
0.0000
 40
0.0000
 41
0.0000
 70
1
  0
VERTEX
  8
21
 10
37.1672
 20
26.1143
 30
0.0000
  0
VERTEX
  8
21
 10
37.1672
 20
28.8857
 30
0.0000
 42
1.0000
  0
VERTEX
  8
21
 10
36.9386
 20
28.8857
 30
0.0000
  0
VERTEX
  8
21
 10
36.9386
 20
26.1143
 30
0.0000
 42
1.0000
  0
SEQEND
  8
0
  0
POLYLINE
  8
21
 66
1
 10
0.0000
 20
0.0000
 30
0.0000
 40
0.0000
 41
0.0000
 70
1
  0
VERTEX
  8
21
 10
37.0529
 20
28.7714
 30
0.0000
  0
VERTEX
  8
21
 10
38.2847
 20
28.7714
 30
0.0000
 42
1.0000
  0
VERTEX
  8
21
 10
38.2847
 20
29.0000
 30
0.0000
  0
VERTEX
  8
21
 10
37.0529
 20
29.0000
 30
0.0000
 42
1.0000
  0
SEQEND
  8
0
  0
POLYLINE
  8
21
 66
1
 10
0.0000
 20
0.0000
 30
0.0000
 40
0.0000
 41
0.0000
 70
1
  0
VERTEX
  8
21
 10
37.0529
 20
27.5397
 30
0.0000
  0
VERTEX
  8
21
 10
37.9767
 20
27.5397
 30
0.0000
 42
1.0000
  0
VERTEX
  8
21
 10
37.9767
 20
27.7683
 30
0.0000
  0
VERTEX
  8
21
 10
37.0529
 20
27.7683
 30
0.0000
 42
1.0000
  0
SEQEND
  8
0
  0
POLYLINE
  8
21
 66
1
 10
0.0000
 20
0.0000
 30
0.0000
 40
0.0000
 41
0.0000
 70
1
  0
VERTEX
  8
21
 10
-50.2159
 20
-20.3116
 30
0.0000
  0
VERTEX
  8
21
 10
-47.1507
 20
-17.8594
 30
0.0000
 42
1.0000
  0
VERTEX
  8
21
 10
-47.7537
 20
-17.1058
 30
0.0000
  0
VERTEX
  8
21
 10
-50.8189
 20
-19.5579
 30
0.0000
 42
1.0000
  0
SEQEND
  8
0
  0
POLYLINE
  8
21
 66
1
 10
0.0000
 20
0.0000
 30
0.0000
 40
0.0000
 41
0.0000
 70
1
  0
VERTEX
  8
21
 10
-47.9348
 20
-17.4826
 30
0.0000
  0
VERTEX
  8
21
 10
-47.9348
 20
-28.5174
 30
0.0000
 42
1.0000
  0
VERTEX
  8
21
 10
-46.9696
 20
-28.5174
 30
0.0000
  0
VERTEX
  8
21
 10
-46.9696
 20
-17.4826
 30
0.0000
 42
1.0000
  0
SEQEND
  8
0
  0
POLYLINE
  8
21
 66
1
 10
0.0000
 20
0.0000
 30
0.0000
 40
0.0000
 41
0.0000
 70
1
  0
VERTEX
  8
21
 10
-50.5174
 20
-29.0000
 30
0.0000
  0
VERTEX
  8
21
 10
-44.3870
 20
-29.0000
 30
0.0000
 42
1.0000
  0
VERTEX
  8
21
 10
-44.3870
 20
-28.0348
 30
0.0000
  0
VERTEX
  8
21
 10
-50.5174
 20
-28.0348
 30
0.0000
 42
1.0000
  0
SEQEND
  8
0
  0
POLYLINE
  8
21
 66
1
 10
0.0000
 20
0.0000
 30
0.0000
 40
0.0000
 41
0.0000
 70
1
  0
VERTEX
  8
21
 10
-40.9761
 20
-28.5174
 30
0.0000
  0
VERTEX
  8
21
 10
-40.9761
 20
-27.9044
 30
0.0000
 42
1.0000
  0
VERTEX
  8
21
 10
-41.9413
 20
-27.9044
 30
0.0000
  0
VERTEX
  8
21
 10
-41.9413
 20
-28.5174
 30
0.0000
 42
1.0000
  0
SEQEND
  8
0
  0
POLYLINE
  8
21
 66
1
 10
0.0000
 20
0.0000
 30
0.0000
 40
0.0000
 41
0.0000
 70
1
  0
VERTEX
  8
21
 10
-41.4587
 20
-28.3870
 30
0.0000
  0
VERTEX
  8
21
 10
-40.8457
 20
-28.3870
 30
0.0000
 42
1.0000
  0
VERTEX
  8
21
 10
-40.8457
 20
-27.4218
 30
0.0000
  0
VERTEX
  8
21
 10
-41.4587
 20
-27.4218
 30
0.0000
 42
1.0000
  0
SEQEND
  8
0
  0
POLYLINE
  8
21
 66
1
 10
0.0000
 20
0.0000
 30
0.0000
 40
0.0000
 41
0.0000
 70
1
  0
VERTEX
  8
21
 10
-41.3283
 20
-27.9044
 30
0.0000
  0
VERTEX
  8
21
 10
-41.3283
 20
-28.5174
 30
0.0000
 42
1.0000
  0
VERTEX
  8
21
 10
-40.3631
 20
-28.5174
 30
0.0000
  0
VERTEX
  8
21
 10
-40.3631
 20
-27.9044
 30
0.0000
 42
1.0000
  0
SEQEND
  8
0
  0
POLYLINE
  8
21
 66
1
 10
0.0000
 20
0.0000
 30
0.0000
 40
0.0000
 41
0.0000
 70
1
  0
VERTEX
  8
21
 10
-40.8457
 20
-28.0348
 30
0.0000
  0
VERTEX
  8
21
 10
-41.4587
 20
-28.0348
 30
0.0000
 42
1.0000
  0
VERTEX
  8
21
 10
-41.4587
 20
-29.0000
 30
0.0000
  0
VERTEX
  8
21
 10
-40.8457
 20
-29.0000
 30
0.0000
 42
1.0000
  0
SEQEND
  8
0
  0
POLYLINE
  8
21
 66
1
 10
0.0000
 20
0.0000
 30
0.0000
 40
0.0000
 41
0.0000
 70
1
  0
VERTEX
  8
21
 10
-37.4348
 20
-18.7087
 30
0.0000
  0
VERTEX
  8
21
 10
-37.4348
 20
-17.4826
 30
0.0000
 42
1.0000
  0
VERTEX
  8
21
 10
-38.4000
 20
-17.4826
 30
0.0000
  0
VERTEX
  8
21
 10
-38.4000
 20
-18.7087
 30
0.0000
 42
1.0000
  0
SEQEND
  8
0
  0
POLYLINE
  8
21
 66
1
 10
0.0000
 20
0.0000
 30
0.0000
 40
0.0000
 41
0.0000
 70
1
  0
VERTEX
  8
21
 10
-37.9174
 20
-17.9652
 30
0.0000
  0
VERTEX
  8
21
 10
-31.7870
 20
-17.9652
 30
0.0000
 42
1.0000
  0
VERTEX
  8
21
 10
-31.7870
 20
-17.0000
 30
0.0000
  0
VERTEX
  8
21
 10
-37.9174
 20
-17.0000
 30
0.0000
 42
1.0000
  0
SEQEND
  8
0
  0
POLYLINE
  8
21
 66
1
 10
0.0000
 20
0.0000
 30
0.0000
 40
0.0000
 41
0.0000
 70
1
  0
VERTEX
  8
21
 10
-32.2519
 20
-17.3534
 30
0.0000
  0
VERTEX
  8
21
 10
-35.3172
 20
-28.3882
 30
0.0000
 42
1.0000
  0
VERTEX
  8
21
 10
-34.3872
 20
-28.6466
 30
0.0000
  0
VERTEX
  8
21
 10
-31.3220
 20
-17.6118
 30
0.0000
 42
1.0000
  0
SEQEND
  8
0
  0
POLYLINE
  8
21
 66
1
 10
0.0000
 20
0.0000
 30
0.0000
 40
0.0000
 41
0.0000
 70
1
  0
VERTEX
  8
21
 10
-26.9293
 20
-17.3500
 30
0.0000
  0
VERTEX
  8
21
 10
-29.3814
 20
-25.9326
 30
0.0000
 42
1.0000
  0
VERTEX
  8
21
 10
-28.4534
 20
-26.1978
 30
0.0000
  0
VERTEX
  8
21
 10
-26.0012
 20
-17.6152
 30
0.0000
 42
1.0000
  0
SEQEND
  8
0
  0
POLYLINE
  8
21
 66
1
 10
0.0000
 20
0.0000
 30
0.0000
 40
0.0000
 41
0.0000
 70
1
  0
VERTEX
  8
21
 10
-28.9174
 20
-26.5478
 30
0.0000
  0
VERTEX
  8
21
 10
-22.7870
 20
-26.5478
 30
0.0000
 42
1.0000
  0
VERTEX
  8
21
 10
-22.7870
 20
-25.5826
 30
0.0000
  0
VERTEX
  8
21
 10
-28.9174
 20
-25.5826
 30
0.0000
 42
1.0000
  0
SEQEND
  8
0
  0
POLYLINE
  8
21
 66
1
 10
0.0000
 20
0.0000
 30
0.0000
 40
0.0000
 41
0.0000
 70
1
  0
VERTEX
  8
21
 10
-25.1087
 20
-23.6130
 30
0.0000
  0
VERTEX
  8
21
 10
-25.1087
 20
-28.5174
 30
0.0000
 42
1.0000
  0
VERTEX
  8
21
 10
-24.1435
 20
-28.5174
 30
0.0000
  0
VERTEX
  8
21
 10
-24.1435
 20
-23.6130
 30
0.0000
 42
1.0000
  0
SEQEND
  8
0
  0
POLYLINE
  8
21
 66
1
 10
0.0000
 20
0.0000
 30
0.0000
 40
0.0000
 41
0.0000
 70
1
  0
VERTEX
  8
21
 10
-19.9174
 20
-29.0000
 30
0.0000
  0
VERTEX
  8
21
 10
-16.2391
 20
-29.0000
 30
0.0000
 42
1.0000
  0
VERTEX
  8
21
 10
-16.2391
 20
-28.0348
 30
0.0000
  0
VERTEX
  8
21
 10
-19.9174
 20
-28.0348
 30
0.0000
 42
1.0000
  0
SEQEND
  8
0
  0
POLYLINE
  8
21
 66
1
 10
0.0000
 20
0.0000
 30
0.0000
 40
0.0000
 41
0.0000
 70
1
  0
VERTEX
  8
21
 10
-16.2391
 20
-28.0348
 30
0.0000
 42
1.0000
  0
VERTEX
  8
21
 10
-16.2391
 20
-29.0000
 30
0.0000
 42
0.4142
  0
VERTEX
  8
21
 10
-13.3044
 20
-26.0652
 30
0.0000
 42
1.0000
  0
VERTEX
  8
21
 10
-14.2696
 20
-26.0652
 30
0.0000
 42
-0.4142
  0
SEQEND
  8
0
  0
POLYLINE
  8
21
 66
1
 10
0.0000
 20
0.0000
 30
0.0000
 40
0.0000
 41
0.0000
 70
1
  0
VERTEX
  8
21
 10
-13.3044
 20
-26.0652
 30
0.0000
  0
VERTEX
  8
21
 10
-13.3044
 20
-24.8391
 30
0.0000
 42
1.0000
  0
VERTEX
  8
21
 10
-14.2696
 20
-24.8391
 30
0.0000
  0
VERTEX
  8
21
 10
-14.2696
 20
-26.0652
 30
0.0000
 42
1.0000
  0
SEQEND
  8
0
  0
POLYLINE
  8
21
 66
1
 10
0.0000
 20
0.0000
 30
0.0000
 40
0.0000
 41
0.0000
 70
1
  0
VERTEX
  8
21
 10
-14.2696
 20
-24.8391
 30
0.0000
 42
1.0000
  0
VERTEX
  8
21
 10
-13.3044
 20
-24.8391
 30
0.0000
 42
0.4142
  0
VERTEX
  8
21
 10
-16.2391
 20
-21.9044
 30
0.0000
 42
1.0000
  0
VERTEX
  8
21
 10
-16.2391
 20
-22.8696
 30
0.0000
 42
-0.4142
  0
SEQEND
  8
0
  0
POLYLINE
  8
21
 66
1
 10
0.0000
 20
0.0000
 30
0.0000
 40
0.0000
 41
0.0000
 70
1
  0
VERTEX
  8
21
 10
-16.2391
 20
-21.9044
 30
0.0000
  0
VERTEX
  8
21
 10
-19.9174
 20
-21.9044
 30
0.0000
 42
1.0000
  0
VERTEX
  8
21
 10
-19.9174
 20
-22.8696
 30
0.0000
  0
VERTEX
  8
21
 10
-16.2391
 20
-22.8696
 30
0.0000
 42
1.0000
  0
SEQEND
  8
0
  0
POLYLINE
  8
21
 66
1
 10
0.0000
 20
0.0000
 30
0.0000
 40
0.0000
 41
0.0000
 70
1
  0
VERTEX
  8
21
 10
-19.4348
 20
-22.3870
 30
0.0000
  0
VERTEX
  8
21
 10
-19.4348
 20
-17.4826
 30
0.0000
 42
1.0000
  0
VERTEX
  8
21
 10
-20.4000
 20
-17.4826
 30
0.0000
  0
VERTEX
  8
21
 10
-20.4000
 20
-22.3870
 30
0.0000
 42
1.0000
  0
SEQEND
  8
0
  0
POLYLINE
  8
21
 66
1
 10
0.0000
 20
0.0000
 30
0.0000
 40
0.0000
 41
0.0000
 70
1
  0
VERTEX
  8
21
 10
-19.9174
 20
-17.9652
 30
0.0000
  0
VERTEX
  8
21
 10
-13.7870
 20
-17.9652
 30
0.0000
 42
1.0000
  0
VERTEX
  8
21
 10
-13.7870
 20
-17.0000
 30
0.0000
  0
VERTEX
  8
21
 10
-19.9174
 20
-17.0000
 30
0.0000
 42
1.0000
  0
SEQEND
  8
0
  0
POLYLINE
  8
21
 66
1
 10
0.0000
 20
0.0000
 30
0.0000
 40
0.0000
 41
0.0000
 70
1
  0
VERTEX
  8
21
 10
-10.9174
 20
-22.8696
 30
0.0000
  0
VERTEX
  8
21
 10
-7.2391
 20
-22.8696
 30
0.0000
 42
1.0000
  0
VERTEX
  8
21
 10
-7.2391
 20
-21.9044
 30
0.0000
  0
VERTEX
  8
21
 10
-10.9174
 20
-21.9044
 30
0.0000
 42
1.0000
  0
SEQEND
  8
0
  0
POLYLINE
  8
21
 66
1
 10
0.0000
 20
0.0000
 30
0.0000
 40
0.0000
 41
0.0000
 70
1
  0
VERTEX
  8
21
 10
-5.2696
 20
-24.8391
 30
0.0000
 42
1.0000
  0
VERTEX
  8
21
 10
-4.3044
 20
-24.8391
 30
0.0000
 42
0.4142
  0
VERTEX
  8
21
 10
-7.2391
 20
-21.9044
 30
0.0000
 42
1.0000
  0
VERTEX
  8
21
 10
-7.2391
 20
-22.8696
 30
0.0000
 42
-0.4142
  0
SEQEND
  8
0
  0
POLYLINE
  8
21
 66
1
 10
0.0000
 20
0.0000
 30
0.0000
 40
0.0000
 41
0.0000
 70
1
  0
VERTEX
  8
21
 10
-5.2696
 20
-24.8391
 30
0.0000
  0
VERTEX
  8
21
 10
-5.2696
 20
-25.4522
 30
0.0000
 42
1.0000
  0
VERTEX
  8
21
 10
-4.3044
 20
-25.4522
 30
0.0000
  0
VERTEX
  8
21
 10
-4.3044
 20
-24.8391
 30
0.0000
 42
1.0000
  0
SEQEND
  8
0
  0
POLYLINE
  8
21
 66
1
 10
0.0000
 20
0.0000
 30
0.0000
 40
0.0000
 41
0.0000
 70
1
  0
VERTEX
  8
21
 10
-10.4348
 20
-25.4522
 30
0.0000
 42
1.0000
  0
VERTEX
  8
21
 10
-11.4000
 20
-25.4522
 30
0.0000
 42
1.0000
  0
VERTEX
  8
21
 10
-4.3044
 20
-25.4522
 30
0.0000
 42
1.0000
  0
VERTEX
  8
21
 10
-5.2696
 20
-25.4522
 30
0.0000
 42
-1.0000
  0
SEQEND
  8
0
  0
POLYLINE
  8
21
 66
1
 10
0.0000
 20
0.0000
 30
0.0000
 40
0.0000
 41
0.0000
 70
1
  0
VERTEX
  8
21
 10
-10.4348
 20
-25.4522
 30
0.0000
  0
VERTEX
  8
21
 10
-10.4348
 20
-22.3870
 30
0.0000
 42
1.0000
  0
VERTEX
  8
21
 10
-11.4000
 20
-22.3870
 30
0.0000
  0
VERTEX
  8
21
 10
-11.4000
 20
-25.4522
 30
0.0000
 42
1.0000
  0
SEQEND
  8
0
  0
POLYLINE
  8
21
 66
1
 10
0.0000
 20
0.0000
 30
0.0000
 40
0.0000
 41
0.0000
 70
1
  0
VERTEX
  8
21
 10
-6.0130
 20
-17.9652
 30
0.0000
 42
1.0000
  0
VERTEX
  8
21
 10
-6.0130
 20
-17.0000
 30
0.0000
 42
0.4142
  0
VERTEX
  8
21
 10
-11.4000
 20
-22.3870
 30
0.0000
 42
1.0000
  0
VERTEX
  8
21
 10
-10.4348
 20
-22.3870
 30
0.0000
 42
-0.4142
  0
SEQEND
  8
0
  0
POLYLINE
  8
21
 66
1
 10
0.0000
 20
0.0000
 30
0.0000
 40
0.0000
 41
0.0000
 70
1
  0
VERTEX
  8
21
 10
0.0707
 20
-17.3500
 30
0.0000
  0
VERTEX
  8
21
 10
-2.3814
 20
-25.9326
 30
0.0000
 42
1.0000
  0
VERTEX
  8
21
 10
-1.4534
 20
-26.1978
 30
0.0000
  0
VERTEX
  8
21
 10
0.9988
 20
-17.6152
 30
0.0000
 42
1.0000
  0
SEQEND
  8
0
  0
POLYLINE
  8
21
 66
1
 10
0.0000
 20
0.0000
 30
0.0000
 40
0.0000
 41
0.0000
 70
1
  0
VERTEX
  8
21
 10
-1.9174
 20
-26.5478
 30
0.0000
  0
VERTEX
  8
21
 10
4.2130
 20
-26.5478
 30
0.0000
 42
1.0000
  0
VERTEX
  8
21
 10
4.2130
 20
-25.5826
 30
0.0000
  0
VERTEX
  8
21
 10
-1.9174
 20
-25.5826
 30
0.0000
 42
1.0000
  0
SEQEND
  8
0
  0
POLYLINE
  8
21
 66
1
 10
0.0000
 20
0.0000
 30
0.0000
 40
0.0000
 41
0.0000
 70
1
  0
VERTEX
  8
21
 10
1.8913
 20
-23.6130
 30
0.0000
  0
VERTEX
  8
21
 10
1.8913
 20
-28.5174
 30
0.0000
 42
1.0000
  0
VERTEX
  8
21
 10
2.8565
 20
-28.5174
 30
0.0000
  0
VERTEX
  8
21
 10
2.8565
 20
-23.6130
 30
0.0000
 42
1.0000
  0
SEQEND
  8
0
  0
POLYLINE
  8
21
 66
1
 10
0.0000
 20
0.0000
 30
0.0000
 40
0.0000
 41
0.0000
 70
1
  0
VERTEX
  8
21
 10
7.0826
 20
-29.0000
 30
0.0000
  0
VERTEX
  8
21
 10
10.1478
 20
-29.0000
 30
0.0000
 42
1.0000
  0
VERTEX
  8
21
 10
10.1478
 20
-28.0348
 30
0.0000
  0
VERTEX
  8
21
 10
7.0826
 20
-28.0348
 30
0.0000
 42
1.0000
  0
SEQEND
  8
0
  0
POLYLINE
  8
21
 66
1
 10
0.0000
 20
0.0000
 30
0.0000
 40
0.0000
 41
0.0000
 70
1
  0
VERTEX
  8
21
 10
10.1478
 20
-28.0348
 30
0.0000
 42
1.0000
  0
VERTEX
  8
21
 10
10.1478
 20
-29.0000
 30
0.0000
 42
1.0000
  0
VERTEX
  8
21
 10
10.1478
 20
-21.9044
 30
0.0000
 42
1.0000
  0
VERTEX
  8
21
 10
10.1478
 20
-22.8696
 30
0.0000
 42
-1.0000
  0
SEQEND
  8
0
  0
POLYLINE
  8
21
 66
1
 10
0.0000
 20
0.0000
 30
0.0000
 40
0.0000
 41
0.0000
 70
1
  0
VERTEX
  8
21
 10
7.0826
 20
-17.9652
 30
0.0000
  0
VERTEX
  8
21
 10
10.7609
 20
-17.9652
 30
0.0000
 42
1.0000
  0
VERTEX
  8
21
 10
10.7609
 20
-17.0000
 30
0.0000
  0
VERTEX
  8
21
 10
7.0826
 20
-17.0000
 30
0.0000
 42
1.0000
  0
SEQEND
  8
0
  0
POLYLINE
  8
21
 66
1
 10
0.0000
 20
0.0000
 30
0.0000
 40
0.0000
 41
0.0000
 70
1
  0
VERTEX
  8
21
 10
10.7609
 20
-21.9044
 30
0.0000
 42
1.0000
  0
VERTEX
  8
21
 10
10.7609
 20
-22.8696
 30
0.0000
 42
1.0000
  0
VERTEX
  8
21
 10
10.7609
 20
-17.0000
 30
0.0000
 42
1.0000
  0
VERTEX
  8
21
 10
10.7609
 20
-17.9652
 30
0.0000
 42
-1.0000
  0
SEQEND
  8
0
  0
POLYLINE
  8
21
 66
1
 10
0.0000
 20
0.0000
 30
0.0000
 40
0.0000
 41
0.0000
 70
1
  0
VERTEX
  8
21
 10
10.7609
 20
-21.9044
 30
0.0000
  0
VERTEX
  8
21
 10
8.3087
 20
-21.9044
 30
0.0000
 42
1.0000
  0
VERTEX
  8
21
 10
8.3087
 20
-22.8696
 30
0.0000
  0
VERTEX
  8
21
 10
10.7609
 20
-22.8696
 30
0.0000
 42
1.0000
  0
SEQEND
  8
0
  0
POLYLINE
  8
21
 66
1
 10
0.0000
 20
0.0000
 30
0.0000
 40
0.0000
 41
0.0000
 70
1
  0
VERTEX
  8
21
 10
-51.0000
 20
-11.1143
 30
0.0000
  0
VERTEX
  8
21
 10
-51.0000
 20
-13.1159
 30
0.0000
 42
1.0000
  0
VERTEX
  8
21
 10
-50.7714
 20
-13.1159
 30
0.0000
  0
VERTEX
  8
21
 10
-50.7714
 20
-11.1143
 30
0.0000
 42
1.0000
  0
SEQEND
  8
0
  0
POLYLINE
  8
21
 66
1
 10
0.0000
 20
0.0000
 30
0.0000
 40
0.0000
 41
0.0000
 70
1
  0
VERTEX
  8
21
 10
-50.7714
 20
-13.1159
 30
0.0000
 42
1.0000
  0
VERTEX
  8
21
 10
-51.0000
 20
-13.1159
 30
0.0000
 42
1.0000
  0
VERTEX
  8
21
 10
-49.2317
 20
-13.1159
 30
0.0000
 42
1.0000
  0
VERTEX
  8
21
 10
-49.4603
 20
-13.1159
 30
0.0000
 42
-1.0000
  0
SEQEND
  8
0
  0
POLYLINE
  8
21
 66
1
 10
0.0000
 20
0.0000
 30
0.0000
 40
0.0000
 41
0.0000
 70
1
  0
VERTEX
  8
21
 10
-49.2317
 20
-13.1159
 30
0.0000
  0
VERTEX
  8
21
 10
-49.2317
 20
-11.1143
 30
0.0000
 42
1.0000
  0
VERTEX
  8
21
 10
-49.4603
 20
-11.1143
 30
0.0000
  0
VERTEX
  8
21
 10
-49.4603
 20
-13.1159
 30
0.0000
 42
1.0000
  0
SEQEND
  8
0
  0
POLYLINE
  8
21
 66
1
 10
0.0000
 20
0.0000
 30
0.0000
 40
0.0000
 41
0.0000
 70
1
  0
VERTEX
  8
21
 10
-47.5994
 20
-13.7714
 30
0.0000
 42
1.0000
  0
VERTEX
  8
21
 10
-47.5994
 20
-14.0000
 30
0.0000
 42
0.4142
  0
VERTEX
  8
21
 10
-46.8692
 20
-13.2698
 30
0.0000
 42
1.0000
  0
VERTEX
  8
21
 10
-47.0978
 20
-13.2698
 30
0.0000
 42
-0.4142
  0
SEQEND
  8
0
  0
POLYLINE
  8
21
 66
1
 10
0.0000
 20
0.0000
 30
0.0000
 40
0.0000
 41
0.0000
 70
1
  0
VERTEX
  8
21
 10
-48.4421
 20
-13.4203
 30
0.0000
 42
1.0000
  0
VERTEX
  8
21
 10
-48.6044
 20
-13.5813
 30
0.0000
 42
0.2000
  0
VERTEX
  8
21
 10
-47.5994
 20
-14.0000
 30
0.0000
 42
1.0000
  0
VERTEX
  8
21
 10
-47.5994
 20
-13.7714
 30
0.0000
 42
-0.2000
  0
SEQEND
  8
0
  0
POLYLINE
  8
21
 66
1
 10
0.0000
 20
0.0000
 30
0.0000
 40
0.0000
 41
0.0000
 70
1
  0
VERTEX
  8
21
 10
-47.8304
 20
-11.2286
 30
0.0000
 42
1.0000
  0
VERTEX
  8
21
 10
-47.8304
 20
-11.0000
 30
0.0000
 42
0.4142
  0
VERTEX
  8
21
 10
-48.5605
 20
-11.7302
 30
0.0000
 42
1.0000
  0
VERTEX
  8
21
 10
-48.3319
 20
-11.7302
 30
0.0000
 42
-0.4142
  0
SEQEND
  8
0
  0
POLYLINE
  8
21
 66
1
 10
0.0000
 20
0.0000
 30
0.0000
 40
0.0000
 41
0.0000
 70
1
  0
VERTEX
  8
21
 10
-47.2061
 20
-11.4367
 30
0.0000
 42
1.0000
  0
VERTEX
  8
21
 10
-47.0689
 20
-11.2538
 30
0.0000
 42
0.1623
  0
VERTEX
  8
21
 10
-47.8304
 20
-11.0000
 30
0.0000
 42
1.0000
  0
VERTEX
  8
21
 10
-47.8304
 20
-11.2286
 30
0.0000
 42
-0.1623
  0
SEQEND
  8
0
  0
POLYLINE
  8
21
 66
1
 10
0.0000
 20
0.0000
 30
0.0000
 40
0.0000
 41
0.0000
 70
1
  0
VERTEX
  8
21
 10
-48.3319
 20
-11.7302
 30
0.0000
 42
1.0000
  0
VERTEX
  8
21
 10
-48.5605
 20
-11.7302
 30
0.0000
 42
0.2656
  0
VERTEX
  8
21
 10
-48.1963
 20
-12.3675
 30
0.0000
 42
1.0000
  0
VERTEX
  8
21
 10
-48.0803
 20
-12.1706
 30
0.0000
 42
-0.2656
  0
SEQEND
  8
0
  0
POLYLINE
  8
21
 66
1
 10
0.0000
 20
0.0000
 30
0.0000
 40
0.0000
 41
0.0000
 70
1
  0
VERTEX
  8
21
 10
-47.0978
 20
-13.2698
 30
0.0000
 42
1.0000
  0
VERTEX
  8
21
 10
-46.8692
 20
-13.2698
 30
0.0000
 42
0.2656
  0
VERTEX
  8
21
 10
-47.2334
 20
-12.6325
 30
0.0000
 42
1.0000
  0
VERTEX
  8
21
 10
-47.3495
 20
-12.8294
 30
0.0000
 42
-0.2656
  0
SEQEND
  8
0
  0
POLYLINE
  8
21
 66
1
 10
0.0000
 20
0.0000
 30
0.0000
 40
0.0000
 41
0.0000
 70
1
  0
VERTEX
  8
21
 10
-47.2367
 20
-12.6306
 30
0.0000
  0
VERTEX
  8
21
 10
-48.0836
 20
-12.1687
 30
0.0000
 42
1.0000
  0
VERTEX
  8
21
 10
-48.1930
 20
-12.3694
 30
0.0000
  0
VERTEX
  8
21
 10
-47.3462
 20
-12.8313
 30
0.0000
 42
1.0000
  0
SEQEND
  8
0
  0
POLYLINE
  8
21
 66
1
 10
0.0000
 20
0.0000
 30
0.0000
 40
0.0000
 41
0.0000
 70
1
  0
VERTEX
  8
21
 10
-44.9280
 20
-13.7714
 30
0.0000
  0
VERTEX
  8
21
 10
-46.1597
 20
-13.7714
 30
0.0000
 42
1.0000
  0
VERTEX
  8
21
 10
-46.1597
 20
-14.0000
 30
0.0000
  0
VERTEX
  8
21
 10
-44.9280
 20
-14.0000
 30
0.0000
 42
1.0000
  0
SEQEND
  8
0
  0
POLYLINE
  8
21
 66
1
 10
0.0000
 20
0.0000
 30
0.0000
 40
0.0000
 41
0.0000
 70
1
  0
VERTEX
  8
21
 10
-46.0454
 20
-13.8857
 30
0.0000
  0
VERTEX
  8
21
 10
-46.0454
 20
-11.1143
 30
0.0000
 42
1.0000
  0
VERTEX
  8
21
 10
-46.2740
 20
-11.1143
 30
0.0000
  0
VERTEX
  8
21
 10
-46.2740
 20
-13.8857
 30
0.0000
 42
1.0000
  0
SEQEND
  8
0
  0
POLYLINE
  8
21
 66
1
 10
0.0000
 20
0.0000
 30
0.0000
 40
0.0000
 41
0.0000
 70
1
  0
VERTEX
  8
21
 10
-46.1597
 20
-11.2286
 30
0.0000
  0
VERTEX
  8
21
 10
-44.9280
 20
-11.2286
 30
0.0000
 42
1.0000
  0
VERTEX
  8
21
 10
-44.9280
 20
-11.0000
 30
0.0000
  0
VERTEX
  8
21
 10
-46.1597
 20
-11.0000
 30
0.0000
 42
1.0000
  0
SEQEND
  8
0
  0
POLYLINE
  8
21
 66
1
 10
0.0000
 20
0.0000
 30
0.0000
 40
0.0000
 41
0.0000
 70
1
  0
VERTEX
  8
21
 10
-46.1597
 20
-12.4603
 30
0.0000
  0
VERTEX
  8
21
 10
-45.2359
 20
-12.4603
 30
0.0000
 42
1.0000
  0
VERTEX
  8
21
 10
-45.2359
 20
-12.2317
 30
0.0000
  0
VERTEX
  8
21
 10
-46.1597
 20
-12.2317
 30
0.0000
 42
1.0000
  0
SEQEND
  8
0
  0
POLYLINE
  8
21
 66
1
 10
0.0000
 20
0.0000
 30
0.0000
 40
0.0000
 41
0.0000
 70
1
  0
VERTEX
  8
21
 10
-43.9965
 20
-13.8857
 30
0.0000
  0
VERTEX
  8
21
 10
-43.9965
 20
-11.1143
 30
0.0000
 42
1.0000
  0
VERTEX
  8
21
 10
-44.2251
 20
-11.1143
 30
0.0000
  0
VERTEX
  8
21
 10
-44.2251
 20
-13.8857
 30
0.0000
 42
1.0000
  0
SEQEND
  8
0
  0
POLYLINE
  8
21
 66
1
 10
0.0000
 20
0.0000
 30
0.0000
 40
0.0000
 41
0.0000
 70
1
  0
VERTEX
  8
21
 10
-44.1108
 20
-11.2286
 30
0.0000
  0
VERTEX
  8
21
 10
-43.3409
 20
-11.2286
 30
0.0000
 42
1.0000
  0
VERTEX
  8
21
 10
-43.3409
 20
-11.0000
 30
0.0000
  0
VERTEX
  8
21
 10
-44.1108
 20
-11.0000
 30
0.0000
 42
1.0000
  0
SEQEND
  8
0
  0
POLYLINE
  8
21
 66
1
 10
0.0000
 20
0.0000
 30
0.0000
 40
0.0000
 41
0.0000
 70
1
  0
VERTEX
  8
21
 10
-43.3409
 20
-12.5397
 30
0.0000
 42
1.0000
  0
VERTEX
  8
21
 10
-43.3409
 20
-12.7683
 30
0.0000
 42
1.0000
  0
VERTEX
  8
21
 10
-43.3409
 20
-11.0000
 30
0.0000
 42
1.0000
  0
VERTEX
  8
21
 10
-43.3409
 20
-11.2286
 30
0.0000
 42
-1.0000
  0
SEQEND
  8
0
  0
POLYLINE
  8
21
 66
1
 10
0.0000
 20
0.0000
 30
0.0000
 40
0.0000
 41
0.0000
 70
1
  0
VERTEX
  8
21
 10
-43.3409
 20
-12.5397
 30
0.0000
  0
VERTEX
  8
21
 10
-44.1108
 20
-12.5397
 30
0.0000
 42
1.0000
  0
VERTEX
  8
21
 10
-44.1108
 20
-12.7683
 30
0.0000
  0
VERTEX
  8
21
 10
-43.3409
 20
-12.7683
 30
0.0000
 42
1.0000
  0
SEQEND
  8
0
  0
POLYLINE
  8
21
 66
1
 10
0.0000
 20
0.0000
 30
0.0000
 40
0.0000
 41
0.0000
 70
1
  0
VERTEX
  8
21
 10
-42.4689
 20
-13.8346
 30
0.0000
  0
VERTEX
  8
21
 10
-43.0847
 20
-12.6029
 30
0.0000
 42
1.0000
  0
VERTEX
  8
21
 10
-43.2892
 20
-12.7051
 30
0.0000
  0
VERTEX
  8
21
 10
-42.6733
 20
-13.9368
 30
0.0000
 42
1.0000
  0
SEQEND
  8
0
  0
POLYLINE
  8
21
 66
1
 10
0.0000
 20
0.0000
 30
0.0000
 40
0.0000
 41
0.0000
 70
1
  0
VERTEX
  8
21
 10
-40.3077
 20
-11.1143
 30
0.0000
  0
VERTEX
  8
21
 10
-40.3077
 20
-13.8857
 30
0.0000
 42
1.0000
  0
VERTEX
  8
21
 10
-40.0791
 20
-13.8857
 30
0.0000
  0
VERTEX
  8
21
 10
-40.0791
 20
-11.1143
 30
0.0000
 42
1.0000
  0
SEQEND
  8
0
  0
POLYLINE
  8
21
 66
1
 10
0.0000
 20
0.0000
 30
0.0000
 40
0.0000
 41
0.0000
 70
1
  0
VERTEX
  8
21
 10
-40.5013
 20
-14.0000
 30
0.0000
  0
VERTEX
  8
21
 10
-39.8855
 20
-14.0000
 30
0.0000
 42
1.0000
  0
VERTEX
  8
21
 10
-39.8855
 20
-13.7714
 30
0.0000
  0
VERTEX
  8
21
 10
-40.5013
 20
-13.7714
 30
0.0000
 42
1.0000
  0
SEQEND
  8
0
  0
POLYLINE
  8
21
 66
1
 10
0.0000
 20
0.0000
 30
0.0000
 40
0.0000
 41
0.0000
 70
1
  0
VERTEX
  8
21
 10
-40.5013
 20
-11.2286
 30
0.0000
  0
VERTEX
  8
21
 10
-39.8855
 20
-11.2286
 30
0.0000
 42
1.0000
  0
VERTEX
  8
21
 10
-39.8855
 20
-11.0000
 30
0.0000
  0
VERTEX
  8
21
 10
-40.5013
 20
-11.0000
 30
0.0000
 42
1.0000
  0
SEQEND
  8
0
  0
POLYLINE
  8
21
 66
1
 10
0.0000
 20
0.0000
 30
0.0000
 40
0.0000
 41
0.0000
 70
1
  0
VERTEX
  8
21
 10
-38.8802
 20
-13.8857
 30
0.0000
  0
VERTEX
  8
21
 10
-38.8802
 20
-11.1143
 30
0.0000
 42
1.0000
  0
VERTEX
  8
21
 10
-39.1088
 20
-11.1143
 30
0.0000
  0
VERTEX
  8
21
 10
-39.1088
 20
-13.8857
 30
0.0000
 42
1.0000
  0
SEQEND
  8
0
  0
POLYLINE
  8
21
 66
1
 10
0.0000
 20
0.0000
 30
0.0000
 40
0.0000
 41
0.0000
 70
1
  0
VERTEX
  8
21
 10
-39.0944
 20
-11.1698
 30
0.0000
  0
VERTEX
  8
21
 10
-37.5547
 20
-13.9412
 30
0.0000
 42
1.0000
  0
VERTEX
  8
21
 10
-37.3549
 20
-13.8302
 30
0.0000
  0
VERTEX
  8
21
 10
-38.8946
 20
-11.0588
 30
0.0000
 42
1.0000
  0
SEQEND
  8
0
  0
POLYLINE
  8
21
 66
1
 10
0.0000
 20
0.0000
 30
0.0000
 40
0.0000
 41
0.0000
 70
1
  0
VERTEX
  8
21
 10
-37.3405
 20
-13.8857
 30
0.0000
  0
VERTEX
  8
21
 10
-37.3405
 20
-11.1143
 30
0.0000
 42
1.0000
  0
VERTEX
  8
21
 10
-37.5691
 20
-11.1143
 30
0.0000
  0
VERTEX
  8
21
 10
-37.5691
 20
-13.8857
 30
0.0000
 42
1.0000
  0
SEQEND
  8
0
  0
POLYLINE
  8
21
 66
1
 10
0.0000
 20
0.0000
 30
0.0000
 40
0.0000
 41
0.0000
 70
1
  0
VERTEX
  8
21
 10
-36.3545
 20
-13.8857
 30
0.0000
  0
VERTEX
  8
21
 10
-36.3545
 20
-11.1143
 30
0.0000
 42
1.0000
  0
VERTEX
  8
21
 10
-36.5831
 20
-11.1143
 30
0.0000
  0
VERTEX
  8
21
 10
-36.5831
 20
-13.8857
 30
0.0000
 42
1.0000
  0
SEQEND
  8
0
  0
POLYLINE
  8
21
 66
1
 10
0.0000
 20
0.0000
 30
0.0000
 40
0.0000
 41
0.0000
 70
1
  0
VERTEX
  8
21
 10
-36.4688
 20
-11.2286
 30
0.0000
  0
VERTEX
  8
21
 10
-35.6990
 20
-11.2286
 30
0.0000
 42
1.0000
  0
VERTEX
  8
21
 10
-35.6990
 20
-11.0000
 30
0.0000
  0
VERTEX
  8
21
 10
-36.4688
 20
-11.0000
 30
0.0000
 42
1.0000
  0
SEQEND
  8
0
  0
POLYLINE
  8
21
 66
1
 10
0.0000
 20
0.0000
 30
0.0000
 40
0.0000
 41
0.0000
 70
1
  0
VERTEX
  8
21
 10
-35.6990
 20
-12.5397
 30
0.0000
 42
1.0000
  0
VERTEX
  8
21
 10
-35.6990
 20
-12.7683
 30
0.0000
 42
1.0000
  0
VERTEX
  8
21
 10
-35.6990
 20
-11.0000
 30
0.0000
 42
1.0000
  0
VERTEX
  8
21
 10
-35.6990
 20
-11.2286
 30
0.0000
 42
-1.0000
  0
SEQEND
  8
0
  0
POLYLINE
  8
21
 66
1
 10
0.0000
 20
0.0000
 30
0.0000
 40
0.0000
 41
0.0000
 70
1
  0
VERTEX
  8
21
 10
-35.6990
 20
-12.5397
 30
0.0000
  0
VERTEX
  8
21
 10
-36.4688
 20
-12.5397
 30
0.0000
 42
1.0000
  0
VERTEX
  8
21
 10
-36.4688
 20
-12.7683
 30
0.0000
  0
VERTEX
  8
21
 10
-35.6990
 20
-12.7683
 30
0.0000
 42
1.0000
  0
SEQEND
  8
0
  0
POLYLINE
  8
21
 66
1
 10
0.0000
 20
0.0000
 30
0.0000
 40
0.0000
 41
0.0000
 70
1
  0
VERTEX
  8
21
 10
-34.2263
 20
-11.1143
 30
0.0000
  0
VERTEX
  8
21
 10
-34.2263
 20
-13.1159
 30
0.0000
 42
1.0000
  0
VERTEX
  8
21
 10
-33.9977
 20
-13.1159
 30
0.0000
  0
VERTEX
  8
21
 10
-33.9977
 20
-11.1143
 30
0.0000
 42
1.0000
  0
SEQEND
  8
0
  0
POLYLINE
  8
21
 66
1
 10
0.0000
 20
0.0000
 30
0.0000
 40
0.0000
 41
0.0000
 70
1
  0
VERTEX
  8
21
 10
-33.9977
 20
-13.1159
 30
0.0000
 42
1.0000
  0
VERTEX
  8
21
 10
-34.2263
 20
-13.1159
 30
0.0000
 42
1.0000
  0
VERTEX
  8
21
 10
-32.4580
 20
-13.1159
 30
0.0000
 42
1.0000
  0
VERTEX
  8
21
 10
-32.6866
 20
-13.1159
 30
0.0000
 42
-1.0000
  0
SEQEND
  8
0
  0
POLYLINE
  8
21
 66
1
 10
0.0000
 20
0.0000
 30
0.0000
 40
0.0000
 41
0.0000
 70
1
  0
VERTEX
  8
21
 10
-32.4580
 20
-13.1159
 30
0.0000
  0
VERTEX
  8
21
 10
-32.4580
 20
-11.1143
 30
0.0000
 42
1.0000
  0
VERTEX
  8
21
 10
-32.6866
 20
-11.1143
 30
0.0000
  0
VERTEX
  8
21
 10
-32.6866
 20
-13.1159
 30
0.0000
 42
1.0000
  0
SEQEND
  8
0
  0
POLYLINE
  8
21
 66
1
 10
0.0000
 20
0.0000
 30
0.0000
 40
0.0000
 41
0.0000
 70
1
  0
VERTEX
  8
21
 10
-30.9441
 20
-13.8857
 30
0.0000
  0
VERTEX
  8
21
 10
-30.9441
 20
-11.1143
 30
0.0000
 42
1.0000
  0
VERTEX
  8
21
 10
-31.1727
 20
-11.1143
 30
0.0000
  0
VERTEX
  8
21
 10
-31.1727
 20
-13.8857
 30
0.0000
 42
1.0000
  0
SEQEND
  8
0
  0
POLYLINE
  8
21
 66
1
 10
0.0000
 20
0.0000
 30
0.0000
 40
0.0000
 41
0.0000
 70
1
  0
VERTEX
  8
21
 10
-31.8283
 20
-11.2286
 30
0.0000
  0
VERTEX
  8
21
 10
-30.2886
 20
-11.2286
 30
0.0000
 42
1.0000
  0
VERTEX
  8
21
 10
-30.2886
 20
-11.0000
 30
0.0000
  0
VERTEX
  8
21
 10
-31.8283
 20
-11.0000
 30
0.0000
 42
1.0000
  0
SEQEND
  8
0
  0
ENDSEC
  0
EOF
